<svg width="237" height="172" viewBox="0 0 237 172" fill="none" xmlns="http://www.w3.org/2000/svg">
<path d="M118.563 0.220078C120.195 0.0784712 121.725 1.21133 122.908 2.12391C125.092 3.8127 127.253 6.12038 129.431 7.89308C141.363 17.6063 153.886 26.622 164.948 37.2162C167.717 39.8701 169.549 43.8141 174.417 42.0309C181.588 39.4033 188.623 33.7862 195.914 30.9436C197.689 30.2513 199.537 29.3911 201.289 30.6813C202.938 31.8981 205.946 35.8946 207.374 37.6411C212.999 44.4959 218.538 52.127 223.571 59.3751C228.587 66.5918 233.654 73.0271 236.89 83.4955C237.436 85.2578 235.798 89.5532 235.173 91.5042C221.677 133.483 180.621 165.066 133.509 170.369C72.0193 177.297 14.7154 140.642 0.252881 85.6616C-0.190718 83.9676 -0.0485389 82.1843 0.662357 80.5742C8.86894 62.0552 23.2916 46.7878 36.5711 31.2268C39.3408 29.0712 43.9133 31.8247 46.6772 33.1254C50.4933 34.919 61.7255 41.9155 64.8307 42.3141C69.6648 42.933 72.0761 38.1393 74.8856 35.3911C85.8107 24.6867 98.8229 15.8283 110.686 6.06793C112.637 4.46305 115.953 0.450844 118.557 0.230567L118.563 0.220078ZM118.131 8.82679C116.737 9.08903 112.085 12.7131 110.686 13.7516C104.516 18.3249 98.1689 23.5644 92.3566 28.5416C87.8865 32.365 80.7889 38.0451 77.1605 42.2933C75.1302 44.6639 73.697 44.6375 76.3415 46.3735C81.0107 49.4416 83.0581 44.0449 87.3689 46.9399C95.8201 52.6147 103.987 62.9678 111.818 69.7072C114.178 71.7421 116.379 74.139 119.467 72.0359C124.62 68.5324 129.937 62.6216 134.538 58.4311C138.588 54.7441 145.168 47.7686 149.621 45.099C154.074 42.4295 155.018 46.2738 158.254 45.7336C159.067 45.5973 160.068 44.2179 160.079 43.5151C160.114 41.9889 156.235 38.1603 155.006 36.954C146.788 28.9086 135.346 19.6412 126.03 12.5976C123.846 10.9455 120.918 8.29184 118.137 8.82155L118.131 8.82679ZM212.089 117.245C213.573 114.397 215.62 111.817 217.253 109.042C220.005 104.369 227.558 89.999 227.069 85.2368C225.778 72.6967 210.144 52.1794 201.573 42.2197C200.248 40.6777 197.069 36.933 194.879 37.2162C187.042 41.3596 178.011 45.923 170.442 50.4859C169.077 51.3093 167.131 54.6688 167.387 56.1373C167.518 56.8925 172.108 60.9013 173.313 61.9922C186.366 73.7823 199.207 83.9361 206.544 99.9744C209.012 105.361 210.001 110.023 211.435 115.635C211.543 116.055 211.639 117.109 212.089 117.245ZM25.1854 116.983C27.4262 104.217 33.8129 93.0199 42.5256 83.0707C50.2943 74.1967 59.7407 66.8016 68.516 58.8402C71.5416 56.0919 73.4069 55.515 69.5055 52.4154C64.171 48.1777 51.0214 42.8321 44.4299 40.0367C39.9484 38.1381 39.1636 38.82 36.0357 42.0087C31.6566 46.4667 26.7599 53.2534 23.0519 58.325C19.1505 63.6641 10.5799 75.6221 9.79507 81.7216C8.78844 89.5625 16.0973 101.836 19.7485 109.042L25.1854 116.983ZM151.23 56.0185C150.826 56.1129 150.235 56.6059 149.882 56.8682C145.662 59.973 140.652 64.4992 136.671 67.9974C123.755 79.3364 109.321 92.5794 103.668 108.549C97.1054 127.09 101.246 148.918 116.851 162.507C147.579 163.635 180.144 150.848 200.737 129.958C201.141 129.549 203.45 127.205 203.512 127.016C203.939 125.694 203.438 121.373 203.251 119.768C200.413 95.2752 182.493 81.4448 164.504 65.653C161.7 63.188 158.896 60.036 155.985 57.7965C154.563 56.7056 153.152 55.557 151.23 56.0185ZM104.152 161.768C87.3405 140.222 89.2059 109.341 105.056 87.8224C107.729 84.1931 112.108 81.9116 108.133 77.5533C102.076 70.9083 93.1812 65.2334 86.8287 58.6933C86.0666 58.0849 84.8723 57.6811 83.8657 57.7912C82.6372 57.9223 79.6913 60.6548 78.5766 61.5779C59.9113 77.1494 34.4498 97.8137 32.8517 122.616C32.6754 125.333 32.5446 126.161 34.41 128.249C37.6119 131.841 42.9692 136.263 46.9161 139.242C62.9312 151.325 83.4676 159.769 104.146 161.773L104.152 161.768Z" fill="white" fill-opacity="0.08" style="fill:white;fill-opacity:0.08;"/>
</svg>
