<svg width="78" height="78" viewBox="0 0 78 78" fill="none" xmlns="http://www.w3.org/2000/svg">
<g clip-path="url(#clip0_376_17266)">
<path d="M78.3966 40.7777C78.3474 40.7371 78.2758 40.7242 78.2201 40.7429C78.1521 40.7638 78.0897 40.782 78.0309 40.7992L78.0021 40.8076C77.857 40.8501 77.7317 40.8864 77.6076 40.9363C75.6463 41.7156 74.1021 43.0507 72.8869 45.0177C72.5868 45.5037 72.3543 46.0089 72.1692 46.5127C72.4728 44.8181 72.5432 44.1578 72.5969 42.2616C72.5995 42.182 72.5995 42.1011 72.5995 42.0208C72.5995 41.8014 72.5995 41.5942 72.6474 41.4051C72.7049 41.1811 72.8204 40.9576 72.9322 40.7414C72.9637 40.6802 72.9952 40.619 73.0212 40.5652C73.0302 40.5546 73.0593 40.5369 73.0707 40.5351C73.6316 40.4495 74.1276 40.2113 74.5874 39.8072C75.0508 39.398 75.4318 38.8971 75.7202 38.3181C76.7552 36.2425 77.2731 33.9485 77.26 31.5003C77.2588 31.2642 77.231 31.0342 77.2005 30.7842C77.1867 30.6722 77.1726 30.5576 77.1609 30.4389C77.1542 30.3738 77.1141 30.316 77.0561 30.2878C76.9988 30.26 76.9296 30.262 76.8717 30.297C76.8367 30.3189 76.8068 30.3367 76.7796 30.3525C76.727 30.3838 76.6869 30.4082 76.649 30.4356C75.7661 31.0685 74.9874 31.8564 74.3342 32.7768C73.2683 34.2812 72.6484 35.9823 72.4814 37.8537C72.4648 37.6451 72.448 37.4365 72.4312 37.2279L72.4253 37.1522C72.3598 36.3344 72.2921 35.4887 72.237 34.657C72.2231 34.4464 72.1827 34.2415 72.1436 34.0433C72.0681 33.6623 71.9967 33.3023 72.1109 32.9252C72.1369 32.8399 72.1588 32.7541 72.1807 32.6685C72.2347 32.4564 72.4953 32.1297 72.8955 31.7725L72.9105 31.759C73.0581 31.6339 73.8163 30.9402 74.2464 29.5681C74.683 28.1742 74.65 26.7177 74.6259 25.6541L74.6253 25.6257C74.5933 24.1637 74.4353 23.0621 74.1131 22.0531C74.0715 21.924 74.022 21.7967 73.9696 21.663C73.9424 21.5934 73.9147 21.5215 73.8861 21.4462C73.8627 21.3825 73.8063 21.3361 73.7405 21.3252L73.7082 21.3222C73.6511 21.3222 73.5977 21.3479 73.5616 21.392L73.2486 21.7735C71.7479 23.6038 71.0106 25.7505 71.0567 28.154C71.0648 28.5773 71.0964 29.0115 71.1525 29.4598C70.7711 28.1435 70.3238 26.8621 69.8151 25.6295C69.8045 25.6025 69.7977 25.569 69.7969 25.5407L69.7934 25.3722C69.7881 25.129 69.7826 24.8773 69.793 24.6298C69.7945 24.5888 69.8211 24.5151 69.8765 24.4425C69.9551 24.3387 70.0423 24.2373 70.1326 24.1317C70.2864 23.9526 70.4454 23.7676 70.5713 23.5565C70.9768 22.8773 71.1672 22.0749 71.1703 21.0311C71.1758 19.8024 70.9864 18.5093 70.5734 16.9615C70.3478 16.1171 70.0073 15.0201 69.373 14.0255C69.33 13.9587 69.2819 13.8957 69.2307 13.8291C69.2076 13.7995 69.1834 13.7681 69.1588 13.7342C69.1228 13.6859 69.0731 13.6578 68.993 13.6578C68.929 13.6625 68.872 13.6988 68.8401 13.7553C68.044 15.1921 67.6475 16.7271 67.6287 18.4479C67.6127 19.8827 67.8367 21.1174 68.1177 22.0931C67.4027 20.787 66.6082 19.525 65.747 18.3279L65.7272 18.3007C65.7077 18.2747 65.6995 18.262 65.7008 18.271C65.6467 17.8837 65.6091 17.5738 65.5831 17.304C65.5837 17.2999 65.5888 17.2772 65.6291 17.21C65.686 17.113 65.7483 17.018 65.8146 16.9175C65.9476 16.7153 66.0848 16.5061 66.1728 16.2719C66.4383 15.565 66.4979 14.7632 66.3546 13.8216C66.04 11.7377 65.1213 9.86124 63.5467 8.08467C63.3847 7.90226 63.2056 7.74097 63.0161 7.57049L62.9637 7.52298C62.8896 7.45592 62.8136 7.3873 62.7367 7.31477C62.6879 7.26824 62.6179 7.25084 62.55 7.27078C62.4859 7.29111 62.4365 7.34429 62.4212 7.41037L62.3868 7.5613C62.3633 7.6614 62.3451 7.74038 62.3317 7.81976C62.1197 9.08469 62.1352 10.4396 62.3792 11.9622C62.6212 13.4723 63.1035 14.7747 63.8435 15.9061C62.7338 14.5986 61.6544 13.5006 60.5263 12.5276C60.5213 12.5209 60.5138 12.5008 60.5133 12.4957C60.6014 11.7362 60.4141 11.0206 59.9402 10.3082C59.3179 9.37189 58.4532 8.65829 57.3701 8.18751C56.722 7.90637 56.0504 7.65749 55.3929 7.41369C55.078 7.29678 54.763 7.18026 54.4387 7.05533C54.1127 6.92571 53.9733 6.90264 53.8977 6.97263C53.8003 7.06334 53.8238 7.14077 53.8662 7.28153L53.8799 7.32747C54.2774 8.6663 54.8048 9.72517 55.4928 10.5645C56.7558 12.1068 58.2329 12.8904 60.0061 12.9596C60.0683 12.9634 60.1175 12.9806 60.1377 12.9962C60.3873 13.1831 60.5711 13.3327 60.7336 13.4809C61.2474 13.9505 61.7534 14.4508 62.2484 14.9777C61.5121 14.5202 60.6122 14.3137 59.5987 14.3649C59.044 14.3929 58.4935 14.4742 57.9611 14.5528L57.9408 14.556C57.7834 14.579 57.6268 14.6019 57.4706 14.624C57.1284 14.6703 56.7836 14.7309 56.479 14.7841C56.3556 14.8062 56.061 14.8733 55.9931 15.0162C55.9697 15.0651 55.9716 15.1186 55.9982 15.1673C56.0217 15.2097 56.0475 15.2496 56.0756 15.286C56.9548 16.4268 57.9578 17.1781 59.1418 17.5826C60.5854 18.0784 61.9113 18.0375 63.1027 17.4543C63.285 17.354 63.5047 17.3032 63.7557 17.3032C63.9452 17.3032 64.0873 17.3331 64.1344 17.3439C64.205 17.3556 64.3008 17.3951 64.3204 17.4205C65.0613 18.3947 65.7646 19.4352 66.4213 20.5283C65.8664 19.9887 65.1429 19.6249 64.1571 19.3879C63.2932 19.182 62.4099 19.1378 61.5559 19.0948L61.2699 19.0804C61.002 19.0667 60.7342 19.0497 60.4583 19.0323L59.9957 19.0037C59.9359 19.0037 59.879 19.0327 59.8442 19.0808C59.8057 19.1326 59.7965 19.1998 59.8192 19.2602C59.8378 19.3107 59.8716 19.3996 59.889 19.4294C60.7897 20.9359 61.8474 21.978 63.1221 22.6153C64.3683 23.2378 65.4942 23.4024 66.6299 23.1309C66.7613 23.0992 66.9136 23.0824 67.0709 23.0824C67.554 23.0824 67.8909 23.2298 67.9617 23.3663C68.5865 24.6552 69.1441 25.9947 69.625 27.3609C69.1206 26.6654 68.4152 26.1006 67.5222 25.6781C66.635 25.2594 65.7112 24.8766 64.8023 24.4998C64.4117 24.3383 64.0195 24.1763 63.629 24.0105C63.571 23.9851 63.5024 23.9903 63.4482 24.0261C63.395 24.0615 63.3633 24.1205 63.3633 24.1841C63.3633 24.3061 64.6596 27.9036 66.5421 29.3212C67.31 29.8995 68.2559 30.4945 69.4487 30.5224C69.8057 30.5296 70.1748 30.5801 70.4536 30.897C70.4962 30.9474 70.5527 30.9867 70.6143 31.0077C70.7095 31.0389 70.7357 31.0972 70.7826 31.2958C71.169 32.9178 71.4503 34.5895 71.6235 36.2871C71.5711 36.1149 71.5103 35.9409 71.4405 35.7647C71.0192 34.6963 70.3101 33.7614 69.209 32.8224C68.6414 32.3363 68.0471 31.8657 67.4723 31.4104L67.4449 31.3889C67.1832 31.1815 66.922 30.9748 66.6615 30.7656C66.6078 30.7224 66.5554 30.6778 66.4946 30.6258L66.3321 30.4866C66.2752 30.4385 66.1906 30.4286 66.1241 30.4618C66.0559 30.4964 66.015 30.568 66.0203 30.6444C66.0283 30.7592 66.0348 30.8677 66.0408 30.9719L66.0439 31.0206C66.0568 31.235 66.069 31.4374 66.0907 31.6372C66.2944 33.5827 66.8729 35.2069 67.8592 36.6027C68.4698 37.4654 69.3457 38.52 70.7115 39.0187C71.0438 39.1407 71.2849 39.3255 71.5432 39.6571C71.7868 39.9675 71.8321 40.2512 71.8266 40.6082C71.8034 42.1037 71.6968 43.5872 71.5089 45.04C71.465 44.6357 71.3719 44.2194 71.229 43.787C70.9332 42.8915 70.4722 42.021 69.8194 41.1255C69.2559 40.3502 68.6696 39.572 68.1026 38.8191L68.0649 38.7689C67.8401 38.4707 67.6154 38.1722 67.3967 37.8801C67.3556 37.8201 67.2964 37.7986 67.2621 37.7867C67.2137 37.763 67.1558 37.7607 67.1044 37.7826C67.0539 37.8041 67.0152 37.8465 66.9982 37.8985L66.9916 37.9188C66.9822 37.9462 66.9748 37.9704 66.9708 37.9947C66.5798 40.3263 66.8197 42.4153 67.704 44.3817C68.1359 45.3432 68.7152 46.4318 69.7365 47.215C70.2028 47.5726 70.5709 48.0742 70.7731 48.6273C70.8159 48.7464 70.8143 48.798 70.8094 48.8179C70.3772 50.6084 69.8125 52.3353 69.1261 53.9697C69.3028 53.1083 69.2907 52.2035 69.089 51.2661C68.8025 49.9374 68.3103 48.6498 67.8711 47.5471L67.7396 47.2169C67.5337 46.7002 67.3265 46.1794 67.1124 45.6396C67.0852 45.5706 67.0197 45.5235 66.9323 45.5192C66.8635 45.5192 66.8002 45.5585 66.7673 45.6222L66.6983 45.752C66.668 45.8089 66.6397 45.8619 66.6154 45.9166C65.7321 47.9096 65.4338 49.9527 65.7292 51.9891C65.9403 53.4452 66.2981 54.4878 66.8893 55.37C67.1953 55.8259 67.486 56.3338 67.5388 56.9585C67.5513 57.1063 67.5454 57.2081 67.4795 57.3241C66.7339 58.6299 65.8979 59.8621 64.9823 61.007C64.9859 61.0008 64.9892 60.9945 64.9927 60.9883C65.6514 59.7845 65.6713 58.483 65.6041 57.3684C65.546 56.413 65.4365 55.4589 65.3311 54.5365L65.3251 54.4831C65.2826 54.1136 65.2404 53.7443 65.2019 53.3742C65.1796 53.1645 65.1548 52.9547 65.1292 52.7418L65.0953 52.4536C65.0879 52.3899 65.049 52.3347 64.9931 52.307C64.8891 52.2526 64.7208 52.3365 64.5389 52.5515C63.2894 54.0294 62.5141 55.6994 62.2341 57.5155C61.9438 59.3984 62.1012 61.0098 62.7158 62.4416C62.7323 62.4798 62.7319 62.5576 62.7317 62.5836L62.6986 63.4075C62.6937 63.4667 62.6625 63.5336 62.6366 63.5584C61.3889 64.76 60.0153 65.8046 58.5412 66.674C59.2389 66.0433 59.7406 65.2204 60.0657 64.1776C60.4261 63.0217 60.611 61.8188 60.7903 60.6524L60.8059 60.5486C60.8695 60.1388 60.9357 59.7298 61.0034 59.3118L61.0798 58.8392C61.0908 58.7704 61.0636 58.7016 61.0102 58.6604C60.9572 58.6181 60.8806 58.608 60.8196 58.6342L60.7529 58.6617C60.6818 58.6909 60.6198 58.7169 60.5613 58.7468C57.7746 60.1386 55.9401 63.3848 56.1994 66.4652C56.2401 66.9477 56.1959 67.4009 56.0641 67.8498C56.0518 67.8906 56.0123 67.935 55.9963 67.9424C54.6727 68.5006 53.4142 68.9078 52.1479 69.1874C52.0828 69.2025 52.0312 69.249 52.0101 69.3118C51.9888 69.3749 52.0017 69.4435 52.0451 69.4951C52.1827 69.6582 52.3025 69.8336 52.4011 70.0172C52.4416 70.0922 52.5379 70.1307 52.6101 70.112C53.6418 69.8766 54.6465 69.5718 55.5972 69.2054C55.6741 69.1745 55.7327 69.1599 55.7877 69.1688C55.9992 69.197 56.2227 69.2404 56.4708 69.302C56.522 69.3145 56.5644 69.3382 56.5652 69.336C57.1071 70.4164 58.0385 71.1046 59.4135 71.4395C59.7126 71.5112 60.0212 71.5642 60.3305 71.5966C60.6542 71.6309 61.0153 71.6483 61.4034 71.6483C61.941 71.6483 62.3244 71.615 62.3291 71.6146C63.5209 71.4813 64.5387 71.2131 65.4402 70.7945C65.8101 70.623 66.2316 70.3921 66.5556 69.9798C66.6176 69.9008 66.6072 69.7868 66.5319 69.7206C65.6162 68.9125 64.6838 68.3254 63.681 67.9258C62.1954 67.3354 60.8421 67.1755 59.5156 67.4306C59.3173 67.4691 59.1238 67.5176 58.9357 67.5733C60.1766 66.8316 61.3647 65.9598 62.4867 64.9666C62.5082 64.9471 62.5436 64.9299 62.5712 64.925C62.7547 64.8945 62.9985 64.8569 63.248 64.839C63.2711 64.839 63.3004 64.8501 63.3037 64.8513C63.9798 65.6079 64.8508 65.9756 65.9665 65.9756C66.0234 65.9756 66.0805 65.9745 66.1374 65.9725C67.3505 65.9334 68.5701 65.6001 69.7629 64.9813C70.6298 64.5291 71.5334 64.0026 72.2661 63.2174C72.4286 63.0428 72.5737 62.8454 72.7017 62.6712L72.7142 62.6542C72.7709 62.5773 72.8282 62.4999 72.8871 62.4235C72.9191 62.3822 72.9326 62.329 72.9242 62.2755C72.9152 62.2239 72.8853 62.1779 72.8343 62.1447C72.8214 62.1376 72.5111 61.9713 72.2278 61.8616C70.331 61.1286 68.416 61.0536 66.5892 61.6422C65.9912 61.8344 65.4283 62.123 64.8803 62.5218C65.8938 61.3437 66.8322 60.0522 67.6842 58.6625C67.6934 58.6478 67.7177 58.6082 67.7255 58.6009C67.8 58.5534 67.8762 58.5084 67.9523 58.4641C68.0886 58.3841 68.2297 58.3014 68.3623 58.2029C68.4741 58.1194 68.5056 58.1172 68.6186 58.19C68.7785 58.2938 68.9644 58.3477 69.1265 58.3902C70.0747 58.633 71.0305 58.512 72.0878 58.0156C73.0536 57.5628 73.7962 56.847 74.455 56.1412C75.4134 55.1117 76.0396 54.1828 76.4259 53.2178C76.5071 53.0153 76.5649 52.8059 76.6252 52.5869C76.65 52.495 76.6754 52.4032 76.7024 52.3128C76.7319 52.2159 76.6803 52.1132 76.5845 52.0794L76.5051 52.0733C76.1143 52.0733 72.628 52.1306 70.5889 54.1091C70.1453 54.5396 69.7476 54.9971 69.3846 55.498C70.1912 53.7897 70.8753 51.9893 71.4266 50.1204L71.4347 50.093C71.4413 50.0702 71.4513 50.0356 71.4579 50.0262L71.9913 49.2938C72.0112 49.2645 72.0135 49.2645 72.0448 49.2645C72.0587 49.2645 72.074 49.2655 72.0914 49.2664L72.2053 49.2733C72.6022 49.2979 72.8358 49.2944 73.028 49.2643C73.7874 49.1444 74.4728 48.762 75.1233 48.095C76.6445 46.5348 77.6917 44.5883 78.3243 42.1449C78.3922 41.8831 78.4111 41.6188 78.4314 41.3384C78.4404 41.2114 78.4504 41.0804 78.4649 40.9451C78.4709 40.8802 78.4455 40.8182 78.3966 40.7777Z" fill="#CEA17A" style="fill:#CEA17A;fill:color(display-p3 0.8078 0.6314 0.4784);fill-opacity:1;"/>
<path d="M26.3176 68.8957C25.0525 68.6164 23.7942 68.2091 22.4702 67.651C22.4544 67.6435 22.4151 67.5991 22.4027 67.5593C22.2708 67.1094 22.2266 66.6562 22.2673 66.1737C22.5265 63.0931 20.6921 59.8471 17.9059 58.4555C17.8467 58.4254 17.7849 58.3994 17.7137 58.3702L17.6476 58.3429C17.5849 58.3161 17.5084 58.3272 17.4578 58.3679C17.403 58.4101 17.3759 58.4789 17.387 58.548L17.4633 59.0203C17.5309 59.4383 17.5972 59.8473 17.6607 60.2567L17.6768 60.3638C17.8556 61.5273 18.0406 62.7304 18.4009 63.8863C18.726 64.9291 19.2277 65.752 19.9255 66.3825C18.4514 65.5133 17.0777 64.4687 15.8302 63.2673C15.804 63.2421 15.7729 63.1752 15.7684 63.1201L15.735 62.2956C15.7348 62.2663 15.7344 62.1885 15.751 62.15C16.3655 60.7185 16.5229 59.1071 16.2325 57.2242C15.9526 55.4081 15.1772 53.7381 13.9277 52.2603C13.7815 52.0872 13.6524 51.9997 13.5441 51.9997C13.5177 51.9997 13.4939 52.0049 13.4751 52.0147C13.4176 52.0433 13.3787 52.0986 13.3711 52.1625L13.3377 52.4501C13.3119 52.6636 13.287 52.8732 13.2648 53.0831C13.2262 53.453 13.184 53.8224 13.1416 54.1919L13.1355 54.2452C13.03 55.1678 12.9205 56.1219 12.8626 57.0772C12.7953 58.1916 12.8153 59.493 13.4739 60.697C13.4775 60.703 13.4806 60.7095 13.4841 60.7155C12.5686 59.5707 11.7328 58.3386 10.9871 57.033C10.9212 56.9168 10.9155 56.815 10.9279 56.6672C10.9808 56.0421 11.2714 55.5342 11.5773 55.0787C12.1684 54.1966 12.5261 53.1539 12.7375 51.6978C13.0329 49.6614 12.7345 47.6185 11.8512 45.6255C11.827 45.5706 11.7986 45.5176 11.7683 45.4607L11.6993 45.3305C11.6663 45.267 11.5957 45.2251 11.5212 45.2285C11.4469 45.2324 11.3814 45.2795 11.3545 45.3479C11.1402 45.8883 10.9329 46.4089 10.7271 46.9257L10.5955 47.2559C10.1564 48.3587 9.66391 49.6463 9.37769 50.9748C9.17593 51.9123 9.16361 52.8171 9.34054 53.6785C8.65392 52.0442 8.08949 50.3173 7.65723 48.5267C7.65234 48.5067 7.65078 48.4551 7.69359 48.3361C7.89575 47.7828 8.26389 47.2811 8.73036 46.9235C9.7515 46.1403 10.3308 45.0517 10.7627 44.0902C11.6469 42.1238 11.8868 40.0348 11.4958 37.7034C11.4917 37.679 11.4843 37.6547 11.4755 37.6283L11.4684 37.6072C11.4514 37.555 11.4127 37.5128 11.3615 37.4907C11.3114 37.4698 11.2485 37.4737 11.2096 37.4928C11.1705 37.5071 11.1112 37.5288 11.0727 37.5853C10.8514 37.8809 10.6268 38.1793 10.4019 38.4774L10.3642 38.5277C9.79725 39.2806 9.21092 40.0587 8.64747 40.8339C7.99467 41.7295 7.53367 42.6001 7.23786 43.4955C7.09515 43.928 7.00189 44.3442 6.9579 44.7485C6.77002 43.2957 6.66347 41.8124 6.6402 40.3167C6.63473 39.9598 6.68008 39.6761 6.92388 39.3654C7.18195 39.0342 7.42301 38.8493 7.75537 38.7273C9.12099 38.2283 9.99705 37.174 10.6076 36.3112C11.594 34.9155 12.1725 33.2914 12.3762 31.3461C12.3979 31.1459 12.4102 30.9434 12.4229 30.7291L12.426 30.6804C12.4321 30.5762 12.4385 30.4677 12.4468 30.3527C12.4518 30.2765 12.411 30.2049 12.3427 30.1703C12.2767 30.1371 12.192 30.1469 12.1345 30.1956L11.9725 30.3344C11.9115 30.3864 11.8593 30.4309 11.8051 30.4743C11.5449 30.6833 11.2837 30.8902 11.0219 31.0976L10.9945 31.1191C10.4199 31.5743 9.82559 32.0449 9.25804 32.5309C8.15675 33.4701 7.44764 34.405 7.02633 35.4735C6.95673 35.6496 6.89573 35.8238 6.84333 35.9962C7.01655 34.2985 7.29789 32.6265 7.68421 31.0044C7.73113 30.8059 7.75733 30.7477 7.85371 30.716C7.91432 30.6955 7.97082 30.656 8.01207 30.6071C8.29223 30.2886 8.66116 30.2382 9.01854 30.2309C10.2111 30.203 11.157 29.6081 11.9248 29.0297C13.8073 27.6119 15.1035 24.0146 15.1035 23.8926C15.1035 23.8291 15.0718 23.7698 15.0181 23.7341C14.9651 23.6991 14.8935 23.6942 14.8396 23.7182C14.4474 23.8846 14.0552 24.0467 13.6491 24.2146C12.7557 24.5851 11.8319 24.9679 10.9447 25.3865C10.0518 25.809 9.34621 26.374 8.8418 27.0692C9.32256 25.7032 9.87994 24.364 10.504 23.077C10.5758 22.9381 10.9128 22.7907 11.3961 22.7907C11.5533 22.7907 11.7056 22.8075 11.8372 22.8392C12.9727 23.1114 14.0986 22.9464 15.3448 22.3237C16.6197 21.6863 17.6773 20.6443 18.5782 19.1371C18.5954 19.108 18.6293 19.019 18.6475 18.9692C18.6703 18.9082 18.6611 18.8409 18.6232 18.7899C18.588 18.7414 18.5317 18.7125 18.46 18.7125C18.4594 18.7125 18.459 18.7125 18.4584 18.7125L18.0083 18.7408C17.7325 18.7582 17.4646 18.7752 17.1968 18.7889L16.9108 18.8034C16.0568 18.8464 15.1735 18.8906 14.3093 19.0964C13.3238 19.3334 12.6002 19.6972 12.0454 20.2368C12.7021 19.1437 13.4053 18.1036 14.1461 17.1294C14.166 17.1036 14.2616 17.0641 14.34 17.051C14.3791 17.0419 14.5215 17.0119 14.7107 17.0119C14.9618 17.0119 15.1815 17.063 15.3678 17.1654C16.5516 17.7443 17.8811 17.7873 19.3245 17.2915C20.5085 16.887 21.5112 16.1357 22.3902 14.9953C22.4188 14.9585 22.4446 14.9185 22.468 14.8762C22.4948 14.8275 22.4966 14.774 22.4731 14.7251C22.4051 14.5824 22.1107 14.5153 21.9867 14.493C21.6825 14.4399 21.3378 14.3792 20.9961 14.3329C20.8395 14.311 20.6827 14.2881 20.5255 14.2649L20.5054 14.2617C19.9728 14.1831 19.4222 14.1018 18.8676 14.0739C17.8541 14.0221 16.9542 14.2289 16.2177 14.6868C16.7129 14.1597 17.2189 13.6596 17.7327 13.1898C17.8951 13.0416 18.0789 12.8922 18.3294 12.7047C18.3487 12.6899 18.398 12.6725 18.4584 12.6689C20.2334 12.5995 21.7105 11.816 22.9734 10.2738C23.6614 9.43429 24.1889 8.37542 24.5864 7.03659L24.6 6.99065C24.6425 6.84988 24.6659 6.77246 24.5684 6.68175C24.4931 6.61176 24.3606 6.63248 24.0161 6.76894C23.7033 6.88918 23.3885 7.0059 23.0653 7.12574C22.416 7.36641 21.7445 7.61529 21.0964 7.89643C20.0133 8.36721 19.1483 9.08081 18.526 10.0171C18.0521 10.7295 17.8648 11.4453 17.953 12.2015C17.9524 12.2099 17.945 12.23 17.9438 12.2324C16.8132 13.2085 15.7324 14.3075 14.6227 15.6154C15.3627 14.484 15.8451 13.1814 16.0871 11.6713C16.3311 10.1489 16.3465 8.79381 16.1346 7.52888C16.1211 7.4497 16.1029 7.37052 16.0797 7.2714L16.0451 7.1187C16.0294 7.05321 15.9802 7.00023 15.9154 6.97989C15.8507 6.96074 15.7782 6.97774 15.7299 7.02369C15.6525 7.09661 15.5766 7.16543 15.5025 7.23229L15.4503 7.27941C15.2607 7.45028 15.0816 7.61158 14.9195 7.79399C13.3447 9.57056 12.4262 11.447 12.1117 13.5307C11.9683 14.4725 12.0278 15.2743 12.2935 15.9812C12.3815 16.2154 12.5187 16.4246 12.6554 16.6323C12.7179 16.7271 12.7805 16.8223 12.8378 16.9201C12.88 16.9902 12.8835 17.0084 12.8833 17.0051C12.8573 17.2837 12.82 17.5942 12.7695 17.9668C12.7674 17.9715 12.7603 17.9824 12.7379 18.0122L12.7197 18.0374C11.8585 19.2345 11.0639 20.4965 10.349 21.8026C10.6301 20.8271 10.854 19.5922 10.8381 18.1574C10.819 16.4364 10.4227 14.9014 9.62618 13.4643C9.5947 13.4084 9.53761 13.372 9.45765 13.3665C9.39958 13.3665 9.34367 13.3953 9.30711 13.4443C9.28326 13.4776 9.25902 13.5088 9.23595 13.5386C9.18453 13.605 9.13643 13.668 9.09342 13.7352C8.4592 14.7298 8.11901 15.8264 7.8932 16.6708C7.48049 18.2194 7.29085 19.5125 7.29632 20.7405C7.29945 21.7843 7.48968 22.5866 7.89516 23.2656C8.02126 23.477 8.18001 23.6619 8.33955 23.848C8.4242 23.9468 8.5112 24.0482 8.58999 24.1522C8.64512 24.2246 8.67171 24.2983 8.67328 24.3393C8.68364 24.5869 8.67816 24.8385 8.67289 25.0817L8.66917 25.2498C8.66858 25.2788 8.66194 25.312 8.65197 25.3374C8.14287 26.5709 7.69535 27.8528 7.31372 29.1693C7.36983 28.721 7.4015 28.287 7.40952 27.8635C7.45566 25.46 6.7184 23.3135 5.21769 21.483L4.90488 21.1019C4.86871 21.0572 4.81514 21.0318 4.75806 21.0318L4.72677 21.0345C4.65991 21.0456 4.60361 21.092 4.58034 21.1551C4.5518 21.2312 4.52384 21.3029 4.49666 21.3723C4.44427 21.5064 4.3948 21.6335 4.35297 21.7628C4.03097 22.7714 3.873 23.8733 3.84093 25.3349L3.84035 25.3634C3.8163 26.4268 3.78326 27.8835 4.22002 29.2775C4.64994 30.6497 5.40812 31.3432 5.55514 31.4677L5.57078 31.4818C5.97098 31.839 6.23159 32.1657 6.28555 32.3778C6.30725 32.4634 6.32934 32.5493 6.35515 32.6341C6.46933 33.0116 6.39797 33.3714 6.32094 33.7598C6.28262 33.9559 6.24274 34.1585 6.22885 34.3663C6.17372 35.198 6.10608 36.0438 6.04058 36.8616L6.03472 36.9372C6.0179 37.1458 6.00109 37.3544 5.98447 37.563C5.81751 35.6916 5.19775 33.9905 4.13146 32.4861C3.47846 31.5657 2.69996 30.7782 1.81705 30.1449C1.77892 30.1175 1.73884 30.0931 1.68527 30.0612C1.65927 30.0462 1.62916 30.0282 1.5926 30.0053C1.53747 29.9723 1.4667 29.9694 1.40981 29.9971C1.35154 30.0255 1.31147 30.0831 1.30482 30.1484C1.29289 30.2667 1.27901 30.3813 1.26435 30.5002C1.23483 30.7436 1.20687 30.9735 1.2057 31.2096C1.1926 33.6578 1.71049 35.9519 2.74551 38.0274C3.03388 38.6065 3.41492 39.1073 3.87847 39.5167C4.33811 39.9205 4.83411 40.1586 5.39384 40.2442C5.40616 40.2464 5.43549 40.2642 5.43998 40.2677C5.47029 40.3285 5.50176 40.3895 5.53324 40.4507C5.64507 40.6667 5.76061 40.8902 5.81809 41.1142C5.86599 41.3037 5.86599 41.5107 5.86599 41.7301C5.86599 41.8104 5.86599 41.8914 5.86854 41.9707C5.9223 43.8672 5.99288 44.5276 6.2963 46.222C6.11116 45.7182 5.8787 45.213 5.5786 44.727C4.36333 42.76 2.81941 41.4249 0.858671 40.6458C0.733938 40.5955 0.608814 40.5594 0.463748 40.5171L0.434813 40.5085C0.375965 40.4913 0.313598 40.473 0.24693 40.4526C0.186714 40.4329 0.118091 40.4464 0.0690192 40.487C0.0201425 40.5275 -0.00546892 40.5895 0.000982811 40.654C0.0154503 40.7885 0.0254212 40.9193 0.03461 41.047C0.0547472 41.3269 0.0737114 41.5913 0.141552 41.8528C0.774212 44.2965 1.82135 46.2428 3.34259 47.8031C3.99304 48.4702 4.67848 48.8526 5.43803 48.9724C5.62963 49.0023 5.86384 49.0061 6.26033 48.9814L6.37451 48.9746C6.39191 48.9736 6.40716 48.9726 6.42104 48.9726C6.45232 48.9726 6.45486 48.9726 6.47656 49.0047L7.00775 49.7341C7.0146 49.7437 7.02457 49.7783 7.03141 49.8022L7.03923 49.8284C7.59056 51.6974 8.27464 53.4976 9.0813 55.2062C8.71824 54.7051 8.32039 54.2476 7.87698 53.8173C5.83784 51.8387 2.35156 51.7815 1.96074 51.7815L1.91206 51.7819L1.88137 51.7875C1.78557 51.8215 1.73376 51.924 1.76328 52.0204C1.79046 52.1113 1.81587 52.2032 1.845 52.3111C1.90072 52.5138 1.95859 52.7232 2.03973 52.9258C2.42605 53.8912 3.05226 54.8198 4.01083 55.8494C4.66949 56.5552 5.41203 57.2709 6.37764 57.7235C7.43513 58.2201 8.38999 58.3413 9.33956 58.0981C9.50105 58.0557 9.68678 58.0019 9.84651 57.8983C9.9603 57.8254 9.99138 57.8277 10.1032 57.911C10.2358 58.0095 10.3767 58.0922 10.5136 58.1724C10.5892 58.2168 10.6655 58.2615 10.7367 58.3065C10.748 58.3161 10.7722 58.3558 10.7812 58.3704C11.6333 59.7601 12.5719 61.0516 13.5854 62.2297C13.0372 61.8309 12.4743 61.5423 11.8765 61.3502C10.0494 60.7615 8.13446 60.8364 6.23785 61.5697C5.95475 61.6794 5.64448 61.8456 5.62376 61.8573C5.58036 61.8858 5.55045 61.932 5.54106 61.985C5.53285 62.037 5.54634 62.0902 5.57801 62.1308C5.63725 62.2079 5.69453 62.2853 5.75123 62.3621L5.76374 62.3789C5.8918 62.5533 6.03687 62.7506 6.19953 62.9254C6.93209 63.7107 7.83553 64.2372 8.7028 64.6892C9.89539 65.308 11.115 65.6413 12.3279 65.6804C12.385 65.6824 12.4421 65.6836 12.499 65.6836C13.6147 65.6836 14.4857 65.3158 15.1571 64.5637C15.1653 64.5578 15.1944 64.5467 15.2104 64.5465C15.4669 64.5649 15.7107 64.6022 15.893 64.6325C15.9217 64.6376 15.9571 64.6548 15.9792 64.6748C17.1008 65.6677 18.2887 66.5393 19.5296 67.2811C19.3415 67.2253 19.1478 67.1769 18.9495 67.1379C17.6234 66.883 16.2701 67.0429 14.784 67.6334C13.7815 68.033 12.8491 68.6201 11.9335 69.4281C11.8581 69.4944 11.8475 69.6084 11.9097 69.6874C12.2337 70.0997 12.6552 70.3306 13.0249 70.5018C13.9265 70.9208 14.9444 71.189 16.1375 71.3224C16.1411 71.3226 16.5244 71.3558 17.0621 71.3558C17.4502 71.3558 17.8113 71.3384 18.1348 71.3042C18.4441 71.2717 18.7526 71.2188 19.052 71.1468C20.4268 70.8121 21.3583 70.1239 21.8921 69.0555C21.9017 69.0463 21.9427 69.0224 21.9947 69.0097C22.2428 68.9481 22.4661 68.9047 22.6784 68.8764C22.7285 68.8684 22.7908 68.8819 22.8694 68.9135C23.8188 69.2793 24.8235 69.5841 25.8536 69.8191C25.8681 69.8226 25.8832 69.8244 25.8982 69.8244C25.9674 69.8244 26.0312 69.7863 26.0648 69.7241C26.1631 69.5411 26.283 69.3655 26.4208 69.2023C26.464 69.1509 26.4769 69.0825 26.4556 69.0191C26.4353 68.9577 26.3837 68.9112 26.3176 68.8957Z" fill="#CEA17A" style="fill:#CEA17A;fill:color(display-p3 0.8078 0.6314 0.4784);fill-opacity:1;"/>
<path d="M48.2754 43.6673L56.1309 36.01C56.3972 35.7504 56.4934 35.3617 56.3782 35.0081C56.2632 34.654 55.9575 34.3959 55.5891 34.3426L44.734 32.7662L39.8786 22.9296C39.714 22.5959 39.3742 22.3848 39.0021 22.3848C38.6301 22.3848 38.2901 22.5963 38.1257 22.9296L33.272 32.7662L22.4151 34.3426C22.047 34.3959 21.741 34.6542 21.6261 35.0081C21.5109 35.3617 21.6069 35.7504 21.8734 36.01L29.7289 43.6673L27.8755 54.4786C27.8125 54.8452 27.9632 55.2158 28.2643 55.4344C28.565 55.6532 28.9638 55.6821 29.2937 55.5089L39.0025 50.4052L48.7114 55.5089C48.8543 55.5842 49.0105 55.6211 49.166 55.6211C49.3687 55.6211 49.5703 55.5582 49.7406 55.4344C50.0416 55.216 50.1926 54.8452 50.1294 54.4786L48.2754 43.6673Z" fill="#CEA17A" style="fill:#CEA17A;fill:color(display-p3 0.8078 0.6314 0.4784);fill-opacity:1;"/>
</g>
<defs>
<clipPath id="clip0_376_17266">
<rect width="78" height="78" fill="white" style="fill:white;fill-opacity:1;"/>
</clipPath>
</defs>
</svg>
