<svg width="24" height="25" viewBox="0 0 24 25" fill="none" xmlns="http://www.w3.org/2000/svg">
<path d="M7.8 2.20703H16.2C19.4 2.20703 22 4.80703 22 8.00703V16.407C22 17.9453 21.3889 19.4205 20.3012 20.5083C19.2135 21.596 17.7383 22.207 16.2 22.207H7.8C4.6 22.207 2 19.607 2 16.407V8.00703C2 6.46878 2.61107 4.99352 3.69878 3.90581C4.78649 2.8181 6.26174 2.20703 7.8 2.20703ZM7.6 4.20703C6.64522 4.20703 5.72955 4.58632 5.05442 5.26145C4.37928 5.93658 4 6.85225 4 7.80703V16.607C4 18.597 5.61 20.207 7.6 20.207H16.4C17.3548 20.207 18.2705 19.8277 18.9456 19.1526C19.6207 18.4775 20 17.5618 20 16.607V7.80703C20 5.81703 18.39 4.20703 16.4 4.20703H7.6ZM17.25 5.70703C17.5815 5.70703 17.8995 5.83873 18.1339 6.07315C18.3683 6.30757 18.5 6.62551 18.5 6.95703C18.5 7.28855 18.3683 7.60649 18.1339 7.84091C17.8995 8.07534 17.5815 8.20703 17.25 8.20703C16.9185 8.20703 16.6005 8.07534 16.3661 7.84091C16.1317 7.60649 16 7.28855 16 6.95703C16 6.62551 16.1317 6.30757 16.3661 6.07315C16.6005 5.83873 16.9185 5.70703 17.25 5.70703ZM12 7.20703C13.3261 7.20703 14.5979 7.73382 15.5355 8.6715C16.4732 9.60918 17 10.8809 17 12.207C17 13.5331 16.4732 14.8049 15.5355 15.7426C14.5979 16.6802 13.3261 17.207 12 17.207C10.6739 17.207 9.40215 16.6802 8.46447 15.7426C7.52678 14.8049 7 13.5331 7 12.207C7 10.8809 7.52678 9.60918 8.46447 8.6715C9.40215 7.73382 10.6739 7.20703 12 7.20703ZM12 9.20703C11.2044 9.20703 10.4413 9.5231 9.87868 10.0857C9.31607 10.6483 9 11.4114 9 12.207C9 13.0027 9.31607 13.7657 9.87868 14.3284C10.4413 14.891 11.2044 15.207 12 15.207C12.7956 15.207 13.5587 14.891 14.1213 14.3284C14.6839 13.7657 15 13.0027 15 12.207C15 11.4114 14.6839 10.6483 14.1213 10.0857C13.5587 9.5231 12.7956 9.20703 12 9.20703Z" fill="#F4EFEB" style="fill:#F4EFEB;fill:color(display-p3 0.9569 0.9373 0.9216);fill-opacity:1;"/>
</svg>
