<svg width="358" height="256" viewBox="0 0 358 256" fill="none" xmlns="http://www.w3.org/2000/svg">
<path fill-rule="evenodd" clip-rule="evenodd" d="M327.742 101.276C327.742 103.128 327.631 104.97 327.53 106.934C320.462 95.7097 313.938 84.2729 306.002 73.6054C299.69 65.2151 293.713 56.4907 287.401 48.1004C283.716 43.212 282.625 42.9792 277.092 46.0357C268.731 50.5092 260.238 54.8613 252.079 59.8712C247.303 62.705 244.264 62.0472 240.679 57.9077C223.402 38.192 201.762 23.2736 182.637 5.51119C178.386 1.58424 176.326 1.79679 172.085 5.82495C157.1 20.1057 140.237 32.0789 125.463 46.5721C121.778 50.1752 118.183 53.7682 114.911 57.6951C111.539 61.8346 108.186 62.5836 103.38 59.861C96.0991 55.3977 88.3945 51.5821 80.8717 47.4426C72.6117 42.9691 71.4303 43.4144 66.0987 50.8129C56.7582 64.1119 46.307 76.6316 38.0571 90.5783C35.1288 95.4769 32.3014 100.396 29.3731 105.284C28.7167 104.96 28.0603 104.636 27.404 104.302C27.404 94.7178 28.0603 85.5684 29.4841 76.753C29.4841 76.753 17.7707 84.5462 15.5795 103.108C14.7313 110.375 15.0645 117.662 15.0645 125.577C15.0645 141.376 26.9496 155.363 26.9496 155.363C27.505 155.262 29.5851 161.253 30.0092 161.152C32.9578 166.375 34.6542 174.198 37.4816 179.542C40.4301 184.866 44.237 189.562 48.0337 194.238C69.2391 219.52 92.8476 236.351 120.021 246.26C145.689 255.743 172.691 257.099 203.247 253.071C215.091 251.553 226.532 249.114 237.296 245.288C263.278 236.037 286.23 220.137 305.143 197.912C330.468 167.953 330.751 144.088 330.963 108.037L327.742 101.256V101.276ZM123.06 65.5389C131.532 57.3611 139.913 49.0923 148.608 41.2384C156.443 34.265 164.804 27.9495 172.741 21.0976C176.326 18.041 178.941 17.8285 182.637 20.9862C197.965 34.3864 213.93 46.8049 228.168 61.5108C229.046 62.3812 230.016 63.2516 230.672 64.2333C232.076 66.3081 234.792 68.0388 233.176 70.8828C231.43 74.0406 228.824 72.5123 226.532 71.1966C223.048 69.1319 220.564 71.0954 218.171 73.3726C207.619 83.3924 197.097 93.5336 186.434 103.553C185.353 104.748 184.263 105.952 183.051 106.924C177.719 111.822 177.406 111.934 172.287 106.924C161.866 96.7926 151.415 86.5502 140.994 76.3178C139.146 74.4657 137.51 72.6034 134.481 72.7248C131.098 74.243 127.948 76.2065 124.04 73.16C120.899 70.65 119.9 68.5854 123.06 65.5288M55.8898 177.417C54.1429 178.287 52.7292 177.103 51.8608 175.787C42.7324 163.359 36.2193 149.746 33.503 134.929C34.9268 124.241 36.7747 114.332 42.0963 105.284C50.5683 90.801 60.353 77.0668 70.784 63.8892C73.5003 60.4076 76.1055 58.6668 80.3567 61.0553C91.9893 67.4822 104.056 73.3625 114.921 81.2063C119.91 84.8093 119.91 85.4672 115.345 89.7079C106.217 98.0982 97.0887 106.489 88.5056 115.415C72.5208 131.761 61.2315 150.393 57.6367 173.267C57.2934 174.795 57.6367 176.647 55.8999 177.406M75.3381 203.569C70.0065 198.772 67.4215 193.651 67.5224 186.252C67.7345 167.285 74.1466 150.738 85.6782 136.022C98.8154 119.14 115.578 105.851 130.896 91.0338C133.713 88.1999 136.541 88.5237 139.257 91.0338C148.173 99.6366 156.958 108.351 166.087 116.741C170.227 120.547 167.955 123.381 165.451 126.538C155.111 139.503 149.042 154.209 146.639 170.656C142.842 195.28 148.173 217.395 163.371 237.12C164.239 238.102 164.905 239.185 165.562 240.177C165.663 240.39 165.451 240.825 165.451 241.695C158.806 242.464 152.283 240.713 145.982 239.408C119.566 233.416 95.776 221.858 75.328 203.559M281.969 202.365C267.004 215.795 253.867 225.157 232.803 233.335C220.978 237.93 208.174 240.157 195.017 241.807C188.181 242.677 182.849 240.501 177.841 235.815C152.404 211.848 150.031 173.712 166.652 144.625C173.165 133.076 182.536 123.917 191.553 114.555C200.338 105.406 210.022 97.238 219.151 88.4023C222.079 85.5684 224.159 85.5684 227.199 88.291C242.84 102.784 258.724 116.944 272.416 133.289C284.261 147.57 289.916 164.016 290.784 184.937C291.966 190.928 288.068 196.92 281.969 202.365ZM321.986 137.874C318.503 151.821 312.414 164.563 302.962 177.538C301.538 174.704 300.882 173.945 300.882 173.075C297.853 148.562 285.453 129.17 268.62 111.843C260.36 103.452 251.978 95.2745 243.183 87.542C238.064 83.0685 238.064 82.7548 244.062 78.6153C254.271 71.6318 265.57 66.5207 276.223 60.2052C279.253 58.2518 281.343 59.2234 283.393 61.946C294.369 76.3381 305.133 90.9325 313.938 106.833C318.715 115.223 320.775 124.595 321.986 134.068C322.087 135.374 322.299 136.68 321.986 137.874Z" fill="#6A704C" fill-opacity="0.05" style="fill:#6A704C;fill:color(display-p3 0.4157 0.4392 0.2980);fill-opacity:0.05;"/>
<path d="M306.296 165.866L307.912 165.604C308.907 165.838 310.196 171.372 310.233 172.451C310.29 174.087 309.272 179.91 308.652 181.448C307.888 183.342 301.792 185.775 299.889 186.687C298.594 187.308 296.792 188.916 295.459 188.958C293.764 189.012 293.568 188.225 291.819 189.885C289.891 189.537 287.394 189.52 285.566 189.148C284.507 188.933 278.58 186 278.274 186.245C279.291 187.803 280.162 189.467 280.715 191.255C283.405 199.939 278.069 207.383 274.992 215.046C274.626 215.958 274.711 217.111 274.159 217.864C273.933 218.176 271.584 220.504 271.248 220.736C269.812 221.731 267.571 221.981 266.117 222.911C265.131 223.541 263.914 225.013 262.884 225.767C256.454 230.464 249.348 233.603 241.424 234.902L244.686 236.655C248.898 237.037 256.428 239.534 257.553 244.208C257.756 245.051 257.378 248.984 257.122 249.815C256.836 250.742 256.037 250.804 255.601 251.338C254.856 252.254 254.902 253.326 253.313 253.619C252.878 253.7 252.428 253.468 252.018 253.542C246.206 254.579 245.018 254.453 239.171 253.717C232.888 252.924 228.687 253.068 222.436 253.777C212.099 254.947 201.49 255.575 191.002 254.982C187.043 254.757 183.081 253.704 179.124 253.438C170.616 252.865 161.85 252.619 153.253 251.926C147.851 251.491 140.236 249.618 135.11 250.847C126.119 253.002 123.184 257.533 112.454 253.74C110.986 253.221 110.831 252.256 110.414 251.989C110.29 251.909 108.709 252.151 107.707 251.184C106.592 250.106 107.087 248.671 106.65 247.678C106.454 247.232 105.426 246.593 105.03 245.952C104.633 245.311 104.334 243.795 104.183 243.688C103.454 243.174 100.159 242.176 98.985 241.645C91.9035 238.449 87.9494 235.708 81.6373 231.601C81.1133 231.26 80.2793 231.234 79.9066 230.971C79.5339 230.707 79.4859 230.005 79.1021 229.571C75.3972 225.378 71.7254 217.756 70.7014 212.11C70.1109 208.856 70.4135 205.581 72.0871 202.671C70.9911 202.509 70.1442 203.297 69.1238 203.509C68.4393 203.651 67.7197 203.483 67.0868 203.603C65.4871 203.907 63.6604 205.029 62.1253 203.791C61.7545 203.492 61.2452 202.144 60.9075 202.054C60.0754 201.831 58.8392 202.254 57.758 201.923C56.8465 201.643 55.5863 199.867 54.7025 199.195C52.9293 197.844 49.073 195.606 47.859 193.864C46.7906 192.333 46.9567 186.32 47.1191 184.274C47.215 183.062 48.1099 177.436 49.4365 177.178L51.6802 177.733C51.4255 172.938 55.1859 173.87 58.3761 175.152C59.6695 175.671 60.7378 176.661 62.0275 177.283C65.9613 179.181 68.4559 178.737 72.4524 179.645C74.7422 180.164 78.615 182.135 80.6816 181.916C83.2038 181.649 85.2537 179.702 87.4144 178.591C90.6304 176.939 94.2062 175.544 97.1584 173.42C100.618 170.932 103.301 167.194 106.496 164.499C110.524 161.101 112.737 161.46 114.733 155.694C116.835 149.624 118.824 137.852 119.558 131.32C120.643 121.664 118.1 112.138 118.992 102.473C120.054 90.934 121.66 85.3617 132.108 79.6863C136.221 77.4537 140.363 78.1224 144.672 75.5066C145.735 74.8619 147.325 73.1101 148.55 72.6606C149.237 72.4101 149.727 72.8798 150.434 72.773C153.593 72.2885 159.717 66.6352 160.104 63.2421C160.691 58.1045 158.984 55.0798 157.58 50.5575C157.333 49.7599 156.949 47.1036 156.611 46.6597C156.242 46.1752 154.897 46.5344 154.019 45.9026C153.401 45.4587 152.43 43.6755 152.128 42.9258C150.683 39.3503 150.262 33.9107 150.679 30.1123C150.906 28.0437 150.943 27.7047 150.94 25.5348C150.923 15.1878 155.189 1.65406 167.265 0.451184C176.996 -0.51959 184.552 1.23223 190.687 9.29315C195.956 16.2175 197.892 32.2436 195.416 40.4187C194.427 43.6847 191.429 44.02 191.015 44.8434C190.399 46.0684 190.148 50.2388 189.349 52.302C188.021 55.7338 186.677 55.1535 186.91 59.5911C187.081 62.8515 187.447 64.246 190.353 65.8836C191.397 66.4731 196.036 68.7959 196.947 69.0299C198.565 69.4462 200.193 68.9359 201.966 69.4922C203.265 69.8993 204.497 71.1501 205.616 71.6254C208.66 72.9167 212.524 72.8817 215.74 74.289C226.011 78.7855 228.822 83.5178 230.925 94.4008C232.79 104.051 231.316 113.921 232.99 123.356C234.239 130.401 237.586 148.562 242.038 153.55C247.702 157.09 252.863 162.281 259.007 164.886C263.275 166.697 270.198 169.279 274.733 168.872C277.601 168.614 280.121 167.406 282.774 166.866C285.138 166.385 287.584 166.741 289.802 166.282C294.052 165.402 297.941 162.202 301.821 160.95C306.825 159.334 306.429 161.633 306.294 165.87L306.296 165.866ZM225.998 170.932C220.011 165.203 217.904 155.633 215.865 147.753C214.284 141.637 213.557 136.026 212.415 129.911C212.363 129.631 212.289 128.999 211.887 129.078C211.365 130.098 211.459 131.48 211.136 132.434C210.876 133.2 209.966 133.611 209.811 134.153C209.625 134.809 209.898 135.582 209.704 136.185C209.575 136.584 208.992 136.614 208.821 136.886C208.164 137.927 207.848 146.653 207.618 148.687C206.972 154.379 205.062 159.69 207.261 165.166C209.682 171.193 213.426 176.48 215.092 182.891C215.513 184.508 215.066 186.495 215.269 188.186C215.325 188.645 216.463 192.447 216.6 192.633C216.965 193.132 217.494 192.935 217.985 192.795C221.38 191.828 227.593 189.052 230.973 187.512C236.268 185.099 241.128 181.675 246.907 180.315C245.234 179.591 243.357 179.481 241.575 178.95C237.2 177.648 229.268 174.058 226.002 170.934L225.998 170.932ZM133.887 196.55C134.54 193.103 136.347 189.592 137.116 186.243C137.924 182.73 137.588 182.563 139.153 179.155C140.718 175.747 142.921 171.602 144.114 168.296C146.816 160.811 142.197 150.525 141.736 142.702L140.157 137.284C139.485 144.721 138.435 152.108 136.695 159.369C134.302 169.36 132.688 174.306 124.477 180.923C116.266 187.54 108.142 189.673 98.2839 191.414L133.887 196.55ZM302.03 167.695C298.441 168.57 299.277 169.631 298.982 172.404C298.827 173.868 298.474 175.344 298.378 176.815C298.851 176.74 298.95 176.248 299.131 175.898C299.544 175.091 302.353 167.988 302.03 167.695ZM57.1638 186.849C58.4111 184.173 59.2137 182.489 55.9516 181.074C55.9018 183.023 55.7652 185.328 57.1638 186.849Z" fill="#4A778C" style="fill:#4A778C;fill:color(display-p3 0.2902 0.4667 0.5490);fill-opacity:1;"/>
<path d="M281.524 183.183L282.827 182.972C283.628 183.16 284.668 187.621 284.698 188.491C284.744 189.81 283.923 194.504 283.423 195.744C282.808 197.27 277.894 199.232 276.361 199.967C275.317 200.467 273.864 201.764 272.791 201.798C271.424 201.841 271.267 201.207 269.857 202.545C268.303 202.264 266.291 202.251 264.817 201.951C263.964 201.777 259.187 199.413 258.94 199.611C259.76 200.867 260.462 202.208 260.908 203.65C263.076 210.65 258.775 216.65 256.295 222.828C256.001 223.563 256.069 224.492 255.624 225.1C255.441 225.351 253.548 227.227 253.278 227.415C252.121 228.216 250.314 228.418 249.142 229.168C248.348 229.676 247.367 230.863 246.537 231.47C241.355 235.257 235.628 237.787 229.241 238.834L231.87 240.247C235.265 240.555 241.334 242.568 242.241 246.336C242.404 247.016 242.1 250.186 241.893 250.856C241.662 251.603 241.019 251.653 240.668 252.084C240.067 252.822 240.104 253.686 238.824 253.922C238.473 253.988 238.11 253.801 237.78 253.86C233.096 254.696 232.138 254.595 227.425 254.001C222.362 253.362 218.976 253.478 213.938 254.05C205.607 254.993 197.057 255.499 188.604 255.021C185.413 254.84 182.221 253.991 179.031 253.777C172.174 253.315 165.109 253.116 158.181 252.558C153.827 252.207 147.69 250.697 143.559 251.687C136.312 253.425 133.946 257.078 125.299 254.02C124.116 253.602 123.991 252.823 123.655 252.608C123.555 252.544 122.281 252.739 121.473 251.959C120.575 251.09 120.973 249.934 120.621 249.133C120.463 248.774 119.635 248.259 119.315 247.742C118.996 247.225 118.755 246.003 118.633 245.917C118.045 245.503 115.39 244.698 114.444 244.27C108.737 241.694 105.55 239.484 100.463 236.173C100.04 235.898 99.3681 235.877 99.0677 235.665C98.7673 235.453 98.7287 234.887 98.4194 234.536C95.4334 231.157 92.4741 225.012 91.6488 220.461C91.173 217.838 91.4168 215.198 92.7656 212.852C91.8823 212.721 91.1997 213.357 90.3774 213.527C89.8257 213.642 89.2457 213.507 88.7357 213.603C87.4464 213.848 85.9742 214.752 84.737 213.755C84.4381 213.514 84.0277 212.427 83.7556 212.354C83.0849 212.175 82.0886 212.516 81.2172 212.249C80.4826 212.023 79.4669 210.592 78.7546 210.05C77.3256 208.961 74.2176 207.157 73.2391 205.752C72.3781 204.518 72.512 199.671 72.6428 198.022C72.7202 197.045 73.4414 192.51 74.5106 192.302L76.3188 192.749C76.1136 188.883 79.1442 189.635 81.7153 190.668C82.7577 191.087 83.6188 191.884 84.6582 192.386C87.8286 193.916 89.8391 193.558 93.06 194.29C94.9055 194.709 98.0268 196.298 99.6923 196.121C101.725 195.906 103.377 194.336 105.119 193.441C107.71 192.109 110.592 190.984 112.972 189.272C115.76 187.266 117.922 184.253 120.498 182.081C123.744 179.341 125.527 179.631 127.136 174.983C128.83 170.09 130.433 160.6 131.024 155.334C131.899 147.55 129.85 139.871 130.568 132.08C131.424 122.778 132.718 118.286 141.139 113.711C144.454 111.911 147.792 112.45 151.265 110.342C152.121 109.822 153.403 108.41 154.39 108.048C154.944 107.846 155.339 108.224 155.909 108.138C158.455 107.748 163.39 103.19 163.702 100.455C164.175 96.3135 162.8 93.8752 161.668 90.2297C161.469 89.5867 161.159 87.4455 160.887 87.0876C160.59 86.697 159.506 86.9866 158.798 86.4773C158.3 86.1194 157.518 84.682 157.274 84.0776C156.109 81.1953 155.77 76.8103 156.106 73.7484C156.289 72.0808 156.319 71.8075 156.316 70.0583C156.303 61.7174 159.741 50.8075 169.474 49.8378C177.316 49.0553 183.406 50.4674 188.35 56.9655C192.597 62.5474 194.157 75.4664 192.161 82.0566C191.364 84.6894 188.948 84.9597 188.615 85.6234C188.118 86.6109 187.916 89.9728 187.272 91.636C186.201 94.4024 185.119 93.9346 185.306 97.5119C185.444 100.14 185.739 101.264 188.081 102.584C188.923 103.06 192.661 104.932 193.396 105.121C194.7 105.456 196.011 105.045 197.441 105.493C198.487 105.822 199.481 106.83 200.382 107.213C202.836 108.254 205.949 108.226 208.541 109.36C216.82 112.985 219.085 116.8 220.78 125.573C222.283 133.352 221.095 141.309 222.444 148.915C223.451 154.593 226.148 169.233 229.736 173.254C234.302 176.108 238.461 180.293 243.413 182.393C246.852 183.852 252.432 185.934 256.087 185.606C258.398 185.398 260.429 184.424 262.567 183.989C264.472 183.601 266.444 183.888 268.232 183.518C271.656 182.808 274.791 180.229 277.918 179.219C281.951 177.917 281.631 179.77 281.523 183.186L281.524 183.183ZM216.809 187.266C211.984 182.648 210.286 174.934 208.642 168.581C207.368 163.651 206.782 159.128 205.862 154.198C205.82 153.972 205.761 153.463 205.436 153.527C205.016 154.35 205.091 155.463 204.831 156.232C204.621 156.85 203.888 157.181 203.763 157.618C203.613 158.146 203.833 158.77 203.677 159.256C203.573 159.578 203.103 159.602 202.965 159.822C202.436 160.66 202.181 167.695 201.995 169.334C201.475 173.923 199.936 178.204 201.708 182.618C203.659 187.477 206.677 191.739 208.019 196.906C208.358 198.21 207.999 199.812 208.162 201.176C208.207 201.545 209.124 204.61 209.234 204.76C209.529 205.163 209.956 205.004 210.351 204.891C213.087 204.111 218.094 201.874 220.818 200.632C225.086 198.687 229.003 195.926 233.661 194.83C232.312 194.247 230.8 194.158 229.363 193.73C225.837 192.68 219.444 189.786 216.812 187.268L216.809 187.266ZM142.573 207.917C143.099 205.139 144.555 202.309 145.175 199.609C145.827 196.777 145.556 196.642 146.817 193.895C148.078 191.148 149.853 187.807 150.816 185.141C152.993 179.108 149.271 170.816 148.899 164.509L147.626 160.142C147.085 166.137 146.238 172.092 144.836 177.945C142.907 186 141.606 189.987 134.989 195.321C128.372 200.654 121.824 202.374 113.879 203.777L142.573 207.917ZM278.086 184.657C275.194 185.363 275.868 186.218 275.63 188.453C275.505 189.633 275.221 190.823 275.143 192.009C275.524 191.948 275.604 191.552 275.75 191.27C276.083 190.619 278.346 184.893 278.086 184.657ZM80.7383 200.098C81.7436 197.94 82.3904 196.583 79.7613 195.442C79.7212 197.013 79.6112 198.871 80.7383 200.098Z" fill="#2E6273" style="fill:#2E6273;fill:color(display-p3 0.1812 0.3831 0.4524);fill-opacity:1;"/>
<path d="M260.34 197.905L261.374 197.738C262.011 197.888 262.836 201.437 262.86 202.129C262.896 203.178 262.244 206.912 261.848 207.899C261.359 209.113 257.457 210.674 256.239 211.259C255.41 211.657 254.256 212.688 253.404 212.715C252.318 212.75 252.193 212.245 251.074 213.31C249.839 213.086 248.242 213.076 247.071 212.837C246.393 212.699 242.6 210.818 242.404 210.975C243.055 211.975 243.612 213.042 243.966 214.189C245.688 219.758 242.273 224.532 240.303 229.447C240.069 230.031 240.124 230.771 239.77 231.254C239.625 231.454 238.122 232.947 237.907 233.096C236.988 233.734 235.553 233.895 234.623 234.491C233.992 234.895 233.213 235.839 232.554 236.322C228.438 239.335 223.89 241.348 218.818 242.181L220.906 243.306C223.602 243.55 228.421 245.152 229.142 248.149C229.272 248.691 229.029 251.213 228.865 251.746C228.682 252.34 228.171 252.38 227.892 252.723C227.415 253.31 227.445 253.997 226.428 254.185C226.149 254.237 225.861 254.088 225.599 254.136C221.879 254.801 221.118 254.72 217.376 254.248C213.354 253.74 210.665 253.832 206.664 254.287C200.048 255.037 193.258 255.44 186.545 255.059C184.011 254.915 181.475 254.24 178.942 254.069C173.496 253.702 167.886 253.544 162.383 253.1C158.925 252.821 154.052 251.619 150.771 252.407C145.016 253.789 143.137 256.696 136.27 254.263C135.33 253.93 135.23 253.311 134.963 253.14C134.884 253.089 133.872 253.244 133.231 252.623C132.518 251.932 132.834 251.012 132.554 250.375C132.429 250.089 131.771 249.679 131.517 249.268C131.263 248.857 131.072 247.885 130.975 247.816C130.509 247.487 128.4 246.846 127.648 246.506C123.116 244.456 120.585 242.698 116.545 240.064C116.21 239.845 115.676 239.829 115.437 239.66C115.199 239.491 115.168 239.041 114.922 238.762C112.551 236.073 110.201 231.184 109.545 227.563C109.167 225.477 109.361 223.377 110.432 221.51C109.731 221.406 109.189 221.912 108.536 222.047C108.097 222.138 107.637 222.031 107.232 222.108C106.208 222.303 105.039 223.022 104.056 222.228C103.819 222.037 103.493 221.172 103.277 221.114C102.744 220.971 101.953 221.243 101.261 221.03C100.677 220.851 99.8707 219.712 99.305 219.281C98.1701 218.415 95.7019 216.979 94.9248 215.862C94.241 214.88 94.3473 211.024 94.4512 209.711C94.5126 208.934 95.0854 205.326 95.9345 205.16L97.3706 205.516C97.2076 202.441 99.6144 203.039 101.656 203.861C102.484 204.194 103.168 204.828 103.994 205.228C106.511 206.445 108.108 206.16 110.666 206.742C112.132 207.075 114.61 208.34 115.933 208.199C117.548 208.028 118.86 206.779 120.243 206.067C122.301 205.007 124.59 204.112 126.479 202.75C128.694 201.154 130.411 198.757 132.456 197.029C135.034 194.849 136.45 195.079 137.728 191.382C139.073 187.489 140.346 179.939 140.816 175.749C141.511 169.556 139.883 163.447 140.454 157.248C141.134 149.848 142.162 146.274 148.849 142.634C151.482 141.203 154.133 141.631 156.891 139.954C157.571 139.54 158.589 138.417 159.373 138.129C159.812 137.968 160.127 138.269 160.579 138.201C162.601 137.89 166.52 134.264 166.768 132.088C167.144 128.793 166.052 126.853 165.153 123.953C164.995 123.441 164.749 121.738 164.533 121.453C164.297 121.142 163.436 121.373 162.874 120.967C162.478 120.683 161.857 119.539 161.663 119.058C160.738 116.765 160.469 113.277 160.736 110.84C160.881 109.514 160.905 109.296 160.902 107.905C160.892 101.269 163.622 92.5889 171.352 91.8174C177.58 91.1948 182.416 92.3184 186.343 97.4882C189.716 101.929 190.955 112.207 189.37 117.45C188.737 119.545 186.818 119.76 186.553 120.288C186.159 121.074 185.998 123.748 185.487 125.072C184.637 127.273 183.777 126.9 183.926 129.746C184.035 131.838 184.269 132.732 186.129 133.782C186.798 134.16 189.767 135.65 190.35 135.8C191.386 136.067 192.427 135.74 193.562 136.097C194.394 136.358 195.183 137.16 195.898 137.465C197.847 138.293 200.32 138.27 202.378 139.173C208.953 142.057 210.752 145.092 212.098 152.072C213.292 158.261 212.348 164.591 213.419 170.642C214.219 175.16 216.361 186.807 219.211 190.006C222.836 192.277 226.14 195.606 230.072 197.277C232.804 198.438 237.235 200.095 240.138 199.833C241.973 199.668 243.586 198.893 245.284 198.547C246.797 198.239 248.363 198.467 249.783 198.172C252.503 197.608 254.992 195.556 257.476 194.752C260.679 193.716 260.425 195.191 260.338 197.908L260.34 197.905ZM208.945 201.154C205.112 197.48 203.764 191.343 202.459 186.289C201.447 182.366 200.981 178.768 200.25 174.846C200.217 174.666 200.17 174.261 199.912 174.312C199.578 174.966 199.639 175.852 199.432 176.464C199.265 176.955 198.683 177.219 198.584 177.566C198.465 177.987 198.639 178.483 198.515 178.869C198.433 179.126 198.06 179.145 197.95 179.319C197.529 179.987 197.327 185.583 197.18 186.888C196.766 190.538 195.544 193.944 196.952 197.456C198.501 201.322 200.897 204.713 201.964 208.824C202.233 209.861 201.947 211.136 202.077 212.22C202.113 212.515 202.841 214.953 202.929 215.072C203.163 215.393 203.501 215.266 203.816 215.176C205.989 214.556 209.965 212.776 212.129 211.788C215.518 210.24 218.629 208.044 222.327 207.172C221.256 206.708 220.055 206.637 218.914 206.297C216.114 205.462 211.037 203.159 208.947 201.155L208.945 201.154ZM149.988 217.584C150.406 215.374 151.562 213.122 152.055 210.974C152.572 208.721 152.357 208.614 153.358 206.428C154.36 204.242 155.77 201.584 156.534 199.464C158.263 194.664 155.307 188.067 155.012 183.049L154.001 179.575C153.571 184.344 152.899 189.081 151.785 193.739C150.254 200.147 149.22 203.319 143.965 207.562C138.71 211.806 133.51 213.174 127.2 214.29L149.988 217.584ZM257.609 199.079C255.312 199.64 255.847 200.32 255.658 202.098C255.559 203.037 255.333 203.984 255.272 204.928C255.574 204.879 255.638 204.564 255.754 204.339C256.018 203.822 257.816 199.266 257.609 199.079ZM100.88 211.363C101.679 209.646 102.193 208.566 100.105 207.659C100.073 208.909 99.9853 210.387 100.88 211.363Z" fill="#224855" style="fill:#224855;fill:color(display-p3 0.1349 0.2820 0.3326);fill-opacity:1;"/>
<path d="M243.559 209.738L244.381 209.605C244.887 209.724 245.542 212.54 245.561 213.089C245.59 213.922 245.072 216.885 244.757 217.668C244.368 218.631 241.268 219.87 240.3 220.334C239.642 220.649 238.725 221.468 238.047 221.489C237.185 221.517 237.085 221.116 236.196 221.961C235.215 221.784 233.945 221.775 233.015 221.586C232.477 221.476 229.462 219.984 229.307 220.109C229.824 220.902 230.267 221.748 230.548 222.658C231.916 227.077 229.203 230.865 227.637 234.765C227.451 235.229 227.495 235.815 227.214 236.199C227.099 236.357 225.904 237.542 225.733 237.66C225.003 238.166 223.863 238.294 223.123 238.767C222.622 239.088 222.003 239.837 221.479 240.22C218.209 242.611 214.595 244.208 210.564 244.869L212.224 245.761C214.366 245.955 218.196 247.226 218.768 249.604C218.871 250.034 218.679 252.035 218.549 252.458C218.403 252.929 217.997 252.961 217.775 253.233C217.396 253.699 217.42 254.245 216.612 254.394C216.39 254.435 216.161 254.317 215.953 254.354C212.997 254.882 212.392 254.818 209.419 254.443C206.223 254.04 204.086 254.113 200.907 254.474C195.65 255.069 190.254 255.389 184.92 255.087C182.906 254.973 180.891 254.437 178.878 254.302C174.551 254.01 170.093 253.885 165.721 253.532C162.973 253.311 159.1 252.358 156.493 252.983C151.92 254.08 150.427 256.385 144.97 254.455C144.223 254.191 144.144 253.7 143.932 253.564C143.869 253.524 143.065 253.646 142.555 253.154C141.989 252.606 142.24 251.876 142.018 251.37C141.918 251.144 141.396 250.818 141.194 250.492C140.992 250.166 140.84 249.394 140.763 249.34C140.392 249.079 138.716 248.571 138.12 248.301C134.518 246.674 132.507 245.279 129.296 243.189C129.03 243.016 128.606 243.002 128.416 242.868C128.227 242.734 128.202 242.377 128.007 242.156C126.123 240.022 124.255 236.144 123.734 233.27C123.434 231.615 123.588 229.948 124.439 228.467C123.882 228.385 123.451 228.786 122.932 228.894C122.584 228.966 122.218 228.881 121.896 228.942C121.082 229.096 120.153 229.667 119.372 229.037C119.184 228.885 118.925 228.199 118.753 228.153C118.33 228.04 117.701 228.255 117.151 228.087C116.688 227.944 116.047 227.041 115.597 226.698C114.695 226.011 112.734 224.872 112.117 223.986C111.573 223.207 111.658 220.147 111.74 219.106C111.789 218.489 112.244 215.626 112.919 215.495L114.06 215.777C113.931 213.337 115.843 213.811 117.466 214.464C118.123 214.728 118.667 215.231 119.323 215.548C121.323 216.514 122.592 216.288 124.625 216.75C125.789 217.014 127.759 218.017 128.81 217.906C130.093 217.77 131.136 216.779 132.235 216.214C133.87 215.373 135.689 214.663 137.19 213.582C138.95 212.316 140.314 210.414 141.94 209.043C143.988 207.313 145.114 207.496 146.129 204.562C147.198 201.473 148.209 195.482 148.583 192.158C149.135 187.245 147.842 182.397 148.295 177.479C148.835 171.607 149.652 168.772 154.966 165.884C157.058 164.747 159.165 165.088 161.356 163.757C161.896 163.428 162.705 162.537 163.329 162.308C163.678 162.181 163.927 162.42 164.287 162.365C165.893 162.119 169.008 159.242 169.205 157.515C169.503 154.901 168.635 153.362 167.921 151.061C167.795 150.655 167.6 149.303 167.429 149.077C167.241 148.831 166.557 149.013 166.11 148.692C165.796 148.466 165.302 147.559 165.148 147.177C164.413 145.358 164.199 142.589 164.411 140.657C164.527 139.604 164.546 139.431 164.544 138.327C164.535 133.062 166.705 126.175 172.847 125.563C177.796 125.069 181.639 125.96 184.759 130.062C187.44 133.586 188.424 141.741 187.165 145.901C186.662 147.563 185.137 147.734 184.926 148.153C184.613 148.776 184.485 150.898 184.079 151.948C183.403 153.695 182.72 153.399 182.838 155.658C182.926 157.317 183.112 158.026 184.59 158.86C185.121 159.16 187.48 160.342 187.944 160.461C188.767 160.673 189.594 160.413 190.496 160.696C191.157 160.903 191.784 161.54 192.352 161.781C193.901 162.439 195.866 162.421 197.501 163.137C202.726 165.425 204.155 167.833 205.225 173.371C206.173 178.282 205.424 183.305 206.275 188.106C206.91 191.691 208.612 200.932 210.877 203.471C213.758 205.273 216.383 207.914 219.508 209.24C221.678 210.161 225.199 211.475 227.506 211.268C228.964 211.137 230.246 210.522 231.596 210.247C232.798 210.003 234.042 210.184 235.17 209.95C237.331 209.502 239.309 207.874 241.283 207.236C243.828 206.414 243.626 207.584 243.558 209.74L243.559 209.738ZM202.719 212.316C199.674 209.401 198.602 204.531 197.565 200.521C196.761 197.409 196.391 194.554 195.81 191.441C195.784 191.299 195.747 190.977 195.542 191.018C195.276 191.537 195.324 192.24 195.16 192.726C195.028 193.116 194.565 193.325 194.486 193.6C194.391 193.934 194.53 194.328 194.432 194.634C194.366 194.838 194.07 194.853 193.982 194.991C193.648 195.521 193.488 199.961 193.37 200.996C193.042 203.893 192.071 206.595 193.189 209.382C194.421 212.449 196.325 215.139 197.172 218.402C197.386 219.225 197.159 220.236 197.262 221.097C197.29 221.33 197.869 223.265 197.939 223.359C198.125 223.613 198.394 223.513 198.644 223.442C200.37 222.95 203.53 221.537 205.249 220.754C207.942 219.526 210.414 217.783 213.353 217.091C212.502 216.723 211.548 216.667 210.641 216.397C208.416 215.734 204.382 213.907 202.721 212.317L202.719 212.316ZM155.871 225.352C156.203 223.598 157.122 221.812 157.513 220.108C157.924 218.32 157.753 218.235 158.549 216.501C159.345 214.766 160.465 212.657 161.073 210.975C162.446 207.166 160.098 201.932 159.863 197.951L159.06 195.194C158.718 198.978 158.184 202.737 157.299 206.432C156.082 211.516 155.261 214.033 151.085 217.4C146.909 220.768 142.777 221.853 137.763 222.739L155.871 225.352ZM241.389 210.669C239.564 211.114 239.989 211.654 239.839 213.065C239.76 213.81 239.581 214.561 239.532 215.31C239.772 215.272 239.823 215.021 239.915 214.843C240.125 214.433 241.553 210.818 241.389 210.669ZM116.849 220.416C117.483 219.054 117.892 218.197 116.233 217.477C116.207 218.469 116.138 219.642 116.849 220.416Z" fill="#1A3C47" style="fill:#1A3C47;fill:color(display-p3 0.1027 0.2345 0.2796);fill-opacity:1;"/>
<path d="M227.175 221.282L227.79 221.183C228.168 221.272 228.658 223.372 228.673 223.782C228.694 224.403 228.307 226.614 228.071 227.198C227.781 227.917 225.462 228.84 224.739 229.187C224.246 229.422 223.561 230.033 223.054 230.049C222.41 230.069 222.335 229.771 221.67 230.401C220.937 230.268 219.987 230.262 219.292 230.121C218.889 230.039 216.636 228.926 216.519 229.019C216.906 229.61 217.237 230.242 217.447 230.921C218.47 234.218 216.441 237.043 215.271 239.953C215.132 240.299 215.164 240.737 214.954 241.023C214.868 241.141 213.975 242.025 213.847 242.113C213.301 242.491 212.449 242.586 211.896 242.939C211.521 243.178 211.058 243.737 210.667 244.023C208.221 245.806 205.519 246.998 202.506 247.491L203.746 248.156C205.348 248.301 208.212 249.249 208.64 251.024C208.717 251.344 208.573 252.837 208.475 253.152C208.367 253.504 208.063 253.528 207.897 253.731C207.614 254.078 207.631 254.485 207.027 254.596C206.862 254.627 206.69 254.539 206.535 254.567C204.324 254.961 203.872 254.913 201.649 254.634C199.26 254.333 197.662 254.387 195.285 254.657C191.354 255.101 187.32 255.339 183.331 255.114C181.826 255.029 180.319 254.629 178.814 254.528C175.579 254.31 172.245 254.217 168.976 253.954C166.922 253.789 164.026 253.078 162.077 253.544C158.658 254.362 157.541 256.083 153.461 254.643C152.903 254.445 152.844 254.079 152.685 253.978C152.638 253.947 152.037 254.039 151.656 253.672C151.232 253.263 151.42 252.718 151.254 252.341C151.179 252.172 150.789 251.929 150.638 251.686C150.487 251.443 150.373 250.867 150.316 250.826C150.039 250.631 148.785 250.252 148.339 250.051C145.646 248.838 144.143 247.797 141.742 246.237C141.543 246.108 141.226 246.098 141.084 245.998C140.942 245.898 140.924 245.632 140.778 245.467C139.369 243.875 137.973 240.981 137.583 238.838C137.359 237.603 137.474 236.36 138.11 235.255C137.694 235.193 137.372 235.492 136.984 235.573C136.723 235.627 136.45 235.563 136.209 235.608C135.601 235.724 134.906 236.15 134.322 235.68C134.181 235.567 133.987 235.055 133.859 235.02C133.543 234.936 133.073 235.097 132.661 234.971C132.315 234.864 131.835 234.19 131.499 233.935C130.825 233.422 129.359 232.573 128.897 231.911C128.491 231.33 128.554 229.047 128.616 228.27C128.652 227.81 128.992 225.675 129.497 225.577L130.35 225.787C130.253 223.967 131.683 224.321 132.896 224.807C133.388 225.005 133.795 225.38 134.285 225.617C135.781 226.337 136.73 226.168 138.249 226.513C139.12 226.71 140.593 227.459 141.379 227.375C142.338 227.274 143.117 226.535 143.939 226.113C145.162 225.486 146.522 224.956 147.645 224.15C148.96 223.205 149.98 221.786 151.196 220.763C152.727 219.473 153.569 219.609 154.328 217.421C155.127 215.116 155.883 210.647 156.163 208.167C156.575 204.501 155.608 200.885 155.947 197.216C156.351 192.835 156.962 190.72 160.935 188.565C162.499 187.718 164.075 187.971 165.713 186.978C166.117 186.734 166.722 186.069 167.188 185.898C167.449 185.803 167.635 185.981 167.904 185.941C169.105 185.757 171.434 183.61 171.582 182.322C171.805 180.372 171.156 179.224 170.622 177.507C170.528 177.204 170.382 176.196 170.253 176.027C170.113 175.843 169.601 175.979 169.267 175.74C169.032 175.571 168.663 174.894 168.548 174.609C167.999 173.252 167.839 171.187 167.997 169.745C168.084 168.96 168.098 168.831 168.096 168.007C168.09 164.079 169.712 158.941 174.305 158.485C178.005 158.116 180.878 158.781 183.211 161.841C185.215 164.47 185.951 170.554 185.01 173.658C184.634 174.898 183.494 175.025 183.336 175.337C183.102 175.803 183.007 177.386 182.703 178.169C182.198 179.472 181.687 179.252 181.775 180.936C181.84 182.174 181.979 182.703 183.084 183.325C183.482 183.549 185.246 184.431 185.592 184.52C186.208 184.678 186.826 184.484 187.501 184.695C187.995 184.85 188.463 185.324 188.889 185.505C190.046 185.995 191.516 185.982 192.739 186.516C196.645 188.223 197.713 190.02 198.513 194.151C199.223 197.815 198.662 201.562 199.298 205.144C199.773 207.818 201.046 214.713 202.739 216.607C204.893 217.951 206.856 219.921 209.192 220.91C210.815 221.598 213.448 222.578 215.173 222.423C216.263 222.326 217.221 221.867 218.23 221.662C219.129 221.479 220.06 221.614 220.903 221.44C222.519 221.106 223.998 219.891 225.474 219.416C227.377 218.802 227.226 219.675 227.174 221.284L227.175 221.282ZM196.64 223.205C194.363 221.03 193.562 217.397 192.786 214.406C192.185 212.084 191.909 209.954 191.474 207.632C191.455 207.526 191.426 207.286 191.274 207.316C191.075 207.703 191.111 208.228 190.988 208.59C190.889 208.881 190.543 209.037 190.484 209.243C190.413 209.492 190.517 209.785 190.443 210.014C190.394 210.166 190.173 210.177 190.107 210.28C189.858 210.676 189.738 213.988 189.65 214.76C189.404 216.921 188.678 218.937 189.514 221.016C190.435 223.305 191.859 225.312 192.492 227.745C192.652 228.359 192.482 229.114 192.56 229.756C192.581 229.93 193.014 231.373 193.066 231.444C193.204 231.634 193.406 231.559 193.592 231.506C194.884 231.138 197.246 230.085 198.531 229.5C200.545 228.584 202.393 227.284 204.591 226.768C203.955 226.493 203.241 226.451 202.563 226.249C200.9 225.755 197.883 224.392 196.641 223.206L196.64 223.205ZM161.612 232.931C161.86 231.622 162.547 230.289 162.84 229.018C163.147 227.684 163.019 227.621 163.614 226.327C164.209 225.033 165.047 223.46 165.501 222.205C166.528 219.363 164.772 215.458 164.597 212.488L163.996 210.432C163.741 213.255 163.341 216.059 162.68 218.816C161.77 222.609 161.156 224.486 158.033 226.998C154.911 229.51 151.821 230.32 148.073 230.981L161.612 232.931ZM225.553 221.977C224.188 222.309 224.506 222.712 224.394 223.764C224.335 224.32 224.201 224.88 224.164 225.439C224.344 225.41 224.382 225.224 224.451 225.091C224.608 224.784 225.676 222.088 225.553 221.977ZM132.435 229.248C132.91 228.232 133.215 227.593 131.974 227.056C131.955 227.796 131.904 228.671 132.435 229.248Z" fill="#122A33" style="fill:#122A33;fill:color(display-p3 0.0705 0.1662 0.1990);fill-opacity:1;"/>
</svg>
