<svg width="32" height="25" viewBox="0 0 32 25" fill="none" xmlns="http://www.w3.org/2000/svg">
<path d="M13.5344 22.6615C7.96911 21.3286 3.52012 18.0568 3.42676 14.3313C3.33746 10.638 1.49048 9.8712 1.49048 9.8712C1.67315 9.8712 1.85176 9.86719 2.03036 9.86719C3.55666 9.86719 4.92464 10.0037 6.08966 10.2887C6.08966 10.4292 6.09372 10.5778 6.09372 10.7303C6.09372 14.793 8.03 20.313 13.5303 22.6655L13.5344 22.6615Z" stroke="#4A778C" style="stroke:#4A778C;stroke:color(display-p3 0.2902 0.4667 0.5490);stroke-opacity:1;" stroke-width="0.75" stroke-linecap="round" stroke-linejoin="round"/>
<path d="M15.9825 23.4361H15.9784C15.0976 23.2474 14.2817 22.9905 13.5388 22.6694C13.5388 22.6694 13.5388 22.6694 13.5348 22.6694C8.03441 20.3168 6.09813 14.8009 6.09813 10.7342C6.09813 10.5856 6.09813 10.4371 6.09407 10.2926C5.96824 5.34268 3.7478 3.8252 3.7478 3.8252C8.07095 3.8252 10.7135 4.51168 12.0734 6.80397C10.7257 9.0802 9.54853 11.7499 9.54853 14.1385C9.54853 19.6143 15.7471 23.2996 15.9866 23.4401L15.9825 23.4361Z" stroke="#4A778C" style="stroke:#4A778C;stroke:color(display-p3 0.2902 0.4667 0.5490);stroke-opacity:1;" stroke-width="0.75" stroke-linecap="round" stroke-linejoin="round"/>
<path d="M16.0432 23.447C16.0432 23.447 16.0189 23.443 16.0026 23.439C15.9945 23.439 15.9864 23.435 15.9783 23.435H15.9823C15.9823 23.435 15.9945 23.423 15.9986 23.4189C15.9986 23.4189 16.0026 23.423 16.0067 23.423C16.0107 23.427 16.0189 23.431 16.0229 23.435C16.027 23.439 16.0351 23.443 16.0392 23.447H16.0432Z" stroke="#4A778C" style="stroke:#4A778C;stroke:color(display-p3 0.2902 0.4667 0.5490);stroke-opacity:1;" stroke-width="0.75" stroke-linecap="round" stroke-linejoin="round"/>
<path d="M30.5142 9.87131C30.5142 9.87131 28.6672 10.6381 28.5779 14.3314C28.4845 18.0529 24.0437 21.3167 18.4824 22.6576C23.9746 20.297 25.9069 14.7851 25.9069 10.7264C25.9069 10.5779 25.9069 10.4293 25.9109 10.2848C27.0759 9.99977 28.448 9.86328 29.9702 9.86328C30.1488 9.86328 30.3274 9.86328 30.5101 9.8673L30.5142 9.87131Z" stroke="#4A778C" style="stroke:#4A778C;stroke:color(display-p3 0.2902 0.4667 0.5490);stroke-opacity:1;" stroke-width="0.75" stroke-linecap="round" stroke-linejoin="round"/>
<path d="M28.2554 3.81651C28.2554 3.81651 26.035 5.334 25.9092 10.2839C25.9092 10.4244 25.9051 10.573 25.9051 10.7255C25.9051 14.7842 23.9729 20.2961 18.4807 22.6567C18.4807 22.6567 18.4807 22.6567 18.4766 22.6567C17.7256 22.9778 16.9097 23.2388 16.0248 23.4315C16.0248 23.4315 16.0167 23.4275 16.0085 23.4194C16.3861 23.1946 22.4344 19.5334 22.4344 14.1218C22.4344 11.7412 21.2613 9.07554 19.9176 6.80332C21.2775 4.49898 23.9242 3.8125 28.2554 3.8125V3.81651Z" stroke="#4A778C" style="stroke:#4A778C;stroke:color(display-p3 0.2902 0.4667 0.5490);stroke-opacity:1;" stroke-width="0.75" stroke-linecap="round" stroke-linejoin="round"/>
<path d="M16.0173 23.435C16.0173 23.435 16.0011 23.435 15.993 23.439C15.9767 23.439 15.9686 23.443 15.9524 23.447C15.9565 23.443 15.9646 23.439 15.9686 23.435H15.9727C15.9727 23.435 15.9849 23.423 15.9889 23.4189C15.9889 23.4189 15.993 23.423 15.997 23.423C16.0011 23.427 16.0092 23.431 16.0133 23.435H16.0173Z" stroke="#4A778C" style="stroke:#4A778C;stroke:color(display-p3 0.2902 0.4667 0.5490);stroke-opacity:1;" stroke-width="0.75" stroke-linecap="round" stroke-linejoin="round"/>
<path d="M22.4356 14.1272C22.4356 19.5388 16.3873 23.2 16.0098 23.4248C16.0098 23.4248 16.0057 23.4248 16.0016 23.4208C15.9976 23.4248 15.9895 23.4288 15.9854 23.4328C15.7459 23.2923 9.54736 19.607 9.54736 14.1312C9.54736 11.7466 10.7246 9.0729 12.0722 6.79667C13.8786 3.74563 15.9935 1.40918 15.9935 1.40918C15.9935 1.40918 18.1125 3.75768 19.9189 6.81273C21.2625 9.08093 22.4356 11.7466 22.4356 14.1312V14.1272Z" stroke="#4A778C" style="stroke:#4A778C;stroke:color(display-p3 0.2902 0.4667 0.5490);stroke-opacity:1;" stroke-width="0.75" stroke-linecap="round" stroke-linejoin="round"/>
<path d="M16.0077 23.4231L15.991 23.4356C15.991 23.4356 15.991 23.4356 15.9827 23.4314C15.9868 23.4314 15.9952 23.4273 15.9994 23.4189C15.9994 23.4189 16.0035 23.4231 16.0077 23.4231Z" stroke="#4A778C" style="stroke:#4A778C;stroke:color(display-p3 0.2902 0.4667 0.5490);stroke-opacity:1;" stroke-width="0.75" stroke-linecap="round" stroke-linejoin="round"/>
<path d="M17.6562 17.5225C17.2708 17.5225 17.0781 17.4808 17.0781 17.3975V14.71H13.125C13.0521 14.6266 13.0156 14.4652 13.0156 14.2256L17.75 7.53809C17.8438 7.41309 17.9635 7.35059 18.1094 7.35059C18.2448 7.35059 18.3125 7.40267 18.3125 7.50684V13.8037H19.2812C19.4479 13.8037 19.5312 14.0537 19.5312 14.5537C19.5312 14.6058 19.5 14.6579 19.4375 14.71H18.3125V17.4443C18.2812 17.4964 18.0625 17.5225 17.6562 17.5225ZM14.2344 13.8037H17.0781V9.64746C17.0781 9.55371 17.0521 9.50684 17 9.50684L16.9844 9.53809L14.1406 13.6162C14.1302 13.6266 14.125 13.6423 14.125 13.6631C14.125 13.7568 14.1615 13.8037 14.2344 13.8037Z" fill="#323333" style="fill:#323333;fill:color(display-p3 0.1961 0.2000 0.2000);fill-opacity:1;"/>
</svg>
