<svg width="31" height="25" viewBox="0 0 31 25" fill="none" xmlns="http://www.w3.org/2000/svg">
<g clip-path="url(#clip0_376_22901)">
<path d="M13.0342 22.4408C7.46886 21.1079 3.01988 17.8361 2.92652 14.1106C2.83721 10.4173 0.990234 9.6505 0.990234 9.6505C1.1729 9.6505 1.35151 9.64648 1.53012 9.64648C3.05641 9.64648 4.4244 9.78298 5.58941 10.068C5.58941 10.2085 5.59347 10.3571 5.59347 10.5096C5.59347 14.5723 7.52975 20.0923 13.0301 22.4448L13.0342 22.4408Z" stroke="#4A778C" style="stroke:#4A778C;stroke:color(display-p3 0.2902 0.4667 0.5490);stroke-opacity:1;" stroke-width="0.75" stroke-linecap="round" stroke-linejoin="round"/>
<path d="M15.4828 23.2154H15.4787C14.5978 23.0267 13.7819 22.7698 13.0391 22.4487C13.0391 22.4487 13.0391 22.4487 13.035 22.4487C7.53466 20.0961 5.59838 14.5802 5.59838 10.5135C5.59838 10.3649 5.59838 10.2164 5.59432 10.0719C5.46848 5.12198 3.24805 3.60449 3.24805 3.60449C7.57119 3.60449 10.2138 4.29098 11.5737 6.58327C10.226 8.8595 9.04877 11.5292 9.04877 13.9178C9.04877 19.3936 15.2473 23.0789 15.4868 23.2194L15.4828 23.2154Z" stroke="#4A778C" style="stroke:#4A778C;stroke:color(display-p3 0.2902 0.4667 0.5490);stroke-opacity:1;" stroke-width="0.75" stroke-linecap="round" stroke-linejoin="round"/>
<path d="M15.5435 23.2263C15.5435 23.2263 15.5191 23.2223 15.5029 23.2183C15.4948 23.2183 15.4866 23.2143 15.4785 23.2143H15.4826C15.4826 23.2143 15.4948 23.2023 15.4988 23.1982C15.4988 23.1982 15.5029 23.2023 15.5069 23.2023C15.511 23.2063 15.5191 23.2103 15.5232 23.2143C15.5272 23.2183 15.5353 23.2223 15.5394 23.2263H15.5435Z" stroke="#4A778C" style="stroke:#4A778C;stroke:color(display-p3 0.2902 0.4667 0.5490);stroke-opacity:1;" stroke-width="0.75" stroke-linecap="round" stroke-linejoin="round"/>
<path d="M30.0142 9.65061C30.0142 9.65061 28.1672 10.4174 28.0779 14.1107C27.9845 17.8322 23.5437 21.096 17.9824 22.4369C23.4746 20.0763 25.4069 14.5644 25.4069 10.5057C25.4069 10.3572 25.4069 10.2086 25.4109 10.0641C26.5759 9.77907 27.948 9.64258 29.4702 9.64258C29.6488 9.64258 29.8274 9.64258 30.0101 9.64659L30.0142 9.65061Z" stroke="#4A778C" style="stroke:#4A778C;stroke:color(display-p3 0.2902 0.4667 0.5490);stroke-opacity:1;" stroke-width="0.75" stroke-linecap="round" stroke-linejoin="round"/>
<path d="M27.7547 3.59581C27.7547 3.59581 25.5343 5.1133 25.4084 10.0632C25.4084 10.2037 25.4044 10.3523 25.4044 10.5048C25.4044 14.5635 23.4721 20.0754 17.9799 22.436C17.9799 22.436 17.9799 22.436 17.9759 22.436C17.2249 22.7571 16.409 23.0181 15.5241 23.2108C15.5241 23.2108 15.5159 23.2068 15.5078 23.1987C15.8853 22.9739 21.9337 19.3127 21.9337 13.9011C21.9337 11.5205 20.7605 8.85483 19.4169 6.58262C20.7768 4.27828 23.4234 3.5918 27.7547 3.5918V3.59581Z" stroke="#4A778C" style="stroke:#4A778C;stroke:color(display-p3 0.2902 0.4667 0.5490);stroke-opacity:1;" stroke-width="0.75" stroke-linecap="round" stroke-linejoin="round"/>
<path d="M15.5181 23.2143C15.5181 23.2143 15.5018 23.2143 15.4937 23.2183C15.4775 23.2183 15.4694 23.2223 15.4531 23.2263C15.4572 23.2223 15.4653 23.2183 15.4694 23.2143H15.4734C15.4734 23.2143 15.4856 23.2023 15.4897 23.1982C15.4897 23.1982 15.4937 23.2023 15.4978 23.2023C15.5018 23.2063 15.51 23.2103 15.514 23.2143H15.5181Z" stroke="#4A778C" style="stroke:#4A778C;stroke:color(display-p3 0.2902 0.4667 0.5490);stroke-opacity:1;" stroke-width="0.75" stroke-linecap="round" stroke-linejoin="round"/>
<path d="M21.9351 13.9065C21.9351 19.3181 15.8868 22.9793 15.5093 23.2041C15.5093 23.2041 15.5052 23.2041 15.5011 23.2001C15.4971 23.2041 15.489 23.2081 15.4849 23.2121C15.2454 23.0716 9.04688 19.3863 9.04688 13.9105C9.04688 11.5259 10.2241 8.8522 11.5718 6.57597C13.3781 3.52493 15.493 1.18848 15.493 1.18848C15.493 1.18848 17.612 3.53697 19.4184 6.59202C20.762 8.86023 21.9351 11.5259 21.9351 13.9105V13.9065Z" stroke="#4A778C" style="stroke:#4A778C;stroke:color(display-p3 0.2902 0.4667 0.5490);stroke-opacity:1;" stroke-width="0.75" stroke-linecap="round" stroke-linejoin="round"/>
<path d="M15.5075 23.2024L15.4908 23.2149C15.4908 23.2149 15.4908 23.2149 15.4824 23.2107C15.4866 23.2107 15.4949 23.2066 15.4991 23.1982C15.4991 23.1982 15.5033 23.2024 15.5075 23.2024Z" stroke="#4A778C" style="stroke:#4A778C;stroke:color(display-p3 0.2902 0.4667 0.5490);stroke-opacity:1;" stroke-width="0.75" stroke-linecap="round" stroke-linejoin="round"/>
<path d="M15.6719 17.3018C15.099 17.3018 14.5833 17.1455 14.125 16.833C13.6771 16.5205 13.3229 16.109 13.0625 15.5986C12.8125 15.0882 12.6875 14.5413 12.6875 13.958C12.6875 13.1455 12.8385 12.3903 13.1406 11.6924C13.4427 10.984 13.8542 10.3382 14.375 9.75488C14.8958 9.16113 15.4896 8.6403 16.1562 8.19238C16.8229 7.74447 17.5208 7.37988 18.25 7.09863C18.3125 7.09863 18.3854 7.15592 18.4688 7.27051C18.5625 7.38509 18.6094 7.46842 18.6094 7.52051C17.5573 7.97884 16.6615 8.53613 15.9219 9.19238C15.1927 9.83822 14.6875 10.6768 14.4062 11.708C14.3958 11.8122 14.401 11.8643 14.4219 11.8643L14.4688 11.833C14.5729 11.7497 14.7292 11.6663 14.9375 11.583C15.1458 11.4893 15.3698 11.4111 15.6094 11.3486C15.8594 11.2861 16.0885 11.2549 16.2969 11.2549C16.7865 11.2549 17.224 11.4007 17.6094 11.6924C17.9948 11.9736 18.3021 12.3382 18.5312 12.7861C18.7604 13.2236 18.875 13.682 18.875 14.1611C18.875 14.734 18.724 15.2601 18.4219 15.7393C18.1302 16.2184 17.7396 16.5986 17.25 16.8799C16.7604 17.1611 16.2344 17.3018 15.6719 17.3018ZM15.8594 16.6924C16.3177 16.6924 16.7188 16.4945 17.0625 16.0986C17.4062 15.6924 17.5781 15.1559 17.5781 14.4893C17.5781 13.7809 17.4062 13.1976 17.0625 12.7393C16.7292 12.2809 16.2344 12.0518 15.5781 12.0518C15.2969 12.0518 15.026 12.1299 14.7656 12.2861C14.5052 12.432 14.3385 12.5882 14.2656 12.7549C14.1302 13.0778 14.0521 13.4684 14.0312 13.9268C14.0312 14.4059 14.1094 14.859 14.2656 15.2861C14.4323 15.7028 14.651 16.0413 14.9219 16.3018C15.2031 16.5622 15.5156 16.6924 15.8594 16.6924Z" fill="#323333" style="fill:#323333;fill:color(display-p3 0.1961 0.2000 0.2000);fill-opacity:1;"/>
</g>
<defs>
<clipPath id="clip0_376_22901">
<rect width="31" height="24" fill="white" style="fill:white;fill-opacity:1;" transform="translate(0 0.208008)"/>
</clipPath>
</defs>
</svg>
