<svg width="31" height="25" viewBox="0 0 31 25" fill="none" xmlns="http://www.w3.org/2000/svg">
<g clip-path="url(#clip0_421_6195)">
<path d="M13.0342 22.4408C7.46886 21.1079 3.01988 17.8361 2.92652 14.1106C2.83721 10.4173 0.990234 9.6505 0.990234 9.6505C1.1729 9.6505 1.35151 9.64648 1.53012 9.64648C3.05641 9.64648 4.4244 9.78298 5.58941 10.068C5.58941 10.2085 5.59347 10.3571 5.59347 10.5096C5.59347 14.5723 7.52975 20.0923 13.0301 22.4448L13.0342 22.4408Z" stroke="#F4EFEB" style="stroke:#F4EFEB;stroke:color(display-p3 0.9569 0.9373 0.9216);stroke-opacity:1;" stroke-width="0.75" stroke-linecap="round" stroke-linejoin="round"/>
<path d="M15.4828 23.2154H15.4787C14.5978 23.0267 13.7819 22.7698 13.0391 22.4487C13.0391 22.4487 13.0391 22.4487 13.035 22.4487C7.53466 20.0961 5.59838 14.5802 5.59838 10.5135C5.59838 10.3649 5.59838 10.2164 5.59432 10.0719C5.46848 5.12198 3.24805 3.60449 3.24805 3.60449C7.57119 3.60449 10.2138 4.29098 11.5737 6.58327C10.226 8.8595 9.04877 11.5292 9.04877 13.9178C9.04877 19.3936 15.2473 23.0789 15.4868 23.2194L15.4828 23.2154Z" stroke="#F4EFEB" style="stroke:#F4EFEB;stroke:color(display-p3 0.9569 0.9373 0.9216);stroke-opacity:1;" stroke-width="0.75" stroke-linecap="round" stroke-linejoin="round"/>
<path d="M15.5435 23.2263C15.5435 23.2263 15.5191 23.2223 15.5029 23.2183C15.4948 23.2183 15.4866 23.2143 15.4785 23.2143H15.4826C15.4826 23.2143 15.4948 23.2023 15.4988 23.1982C15.4988 23.1982 15.5029 23.2023 15.5069 23.2023C15.511 23.2063 15.5191 23.2103 15.5232 23.2143C15.5272 23.2183 15.5353 23.2223 15.5394 23.2263H15.5435Z" stroke="#F4EFEB" style="stroke:#F4EFEB;stroke:color(display-p3 0.9569 0.9373 0.9216);stroke-opacity:1;" stroke-width="0.75" stroke-linecap="round" stroke-linejoin="round"/>
<path d="M30.0142 9.65061C30.0142 9.65061 28.1672 10.4174 28.0779 14.1107C27.9845 17.8322 23.5437 21.096 17.9824 22.4369C23.4746 20.0763 25.4069 14.5644 25.4069 10.5057C25.4069 10.3572 25.4069 10.2086 25.4109 10.0641C26.5759 9.77907 27.948 9.64258 29.4702 9.64258C29.6488 9.64258 29.8274 9.64258 30.0101 9.64659L30.0142 9.65061Z" stroke="#F4EFEB" style="stroke:#F4EFEB;stroke:color(display-p3 0.9569 0.9373 0.9216);stroke-opacity:1;" stroke-width="0.75" stroke-linecap="round" stroke-linejoin="round"/>
<path d="M27.7557 3.59581C27.7557 3.59581 25.5352 5.1133 25.4094 10.0632C25.4094 10.2037 25.4053 10.3523 25.4053 10.5048C25.4053 14.5635 23.4731 20.0754 17.9809 22.436C17.9809 22.436 17.9809 22.436 17.9768 22.436C17.2259 22.7571 16.41 23.0181 15.525 23.2108C15.525 23.2108 15.5169 23.2068 15.5088 23.1987C15.8863 22.9739 21.9346 19.3127 21.9346 13.9011C21.9346 11.5205 20.7615 8.85483 19.4179 6.58262C20.7778 4.27828 23.4244 3.5918 27.7557 3.5918V3.59581Z" stroke="#F4EFEB" style="stroke:#F4EFEB;stroke:color(display-p3 0.9569 0.9373 0.9216);stroke-opacity:1;" stroke-width="0.75" stroke-linecap="round" stroke-linejoin="round"/>
<path d="M15.5171 23.2143C15.5171 23.2143 15.5009 23.2143 15.4927 23.2183C15.4765 23.2183 15.4684 23.2223 15.4521 23.2263C15.4562 23.2223 15.4643 23.2183 15.4684 23.2143H15.4724C15.4724 23.2143 15.4846 23.2023 15.4887 23.1982C15.4887 23.1982 15.4927 23.2023 15.4968 23.2023C15.5009 23.2063 15.509 23.2103 15.513 23.2143H15.5171Z" stroke="#F4EFEB" style="stroke:#F4EFEB;stroke:color(display-p3 0.9569 0.9373 0.9216);stroke-opacity:1;" stroke-width="0.75" stroke-linecap="round" stroke-linejoin="round"/>
<path d="M21.9361 13.9065C21.9361 19.3181 15.8878 22.9793 15.5102 23.2041C15.5102 23.2041 15.5062 23.2041 15.5021 23.2001C15.4981 23.2041 15.4899 23.2081 15.4859 23.2121C15.2464 23.0716 9.04785 19.3863 9.04785 13.9105C9.04785 11.5259 10.225 8.8522 11.5727 6.57597C13.3791 3.52493 15.494 1.18848 15.494 1.18848C15.494 1.18848 17.613 3.53697 19.4193 6.59202C20.763 8.86023 21.9361 11.5259 21.9361 13.9105V13.9065Z" stroke="#F4EFEB" style="stroke:#F4EFEB;stroke:color(display-p3 0.9569 0.9373 0.9216);stroke-opacity:1;" stroke-width="0.75" stroke-linecap="round" stroke-linejoin="round"/>
<path d="M15.5075 23.2024L15.4908 23.2149C15.4908 23.2149 15.4908 23.2149 15.4824 23.2107C15.4866 23.2107 15.4949 23.2066 15.4991 23.1982C15.4991 23.1982 15.5033 23.2024 15.5075 23.2024Z" stroke="#F4EFEB" style="stroke:#F4EFEB;stroke:color(display-p3 0.9569 0.9373 0.9216);stroke-opacity:1;" stroke-width="0.75" stroke-linecap="round" stroke-linejoin="round"/>
<path d="M14.6562 17.2861C13.7708 17.2861 13.0938 17.1299 12.625 16.8174C12.5208 16.7445 12.4688 16.5934 12.4688 16.3643C12.4688 15.8747 12.6615 15.6299 13.0469 15.6299C13.2031 15.6299 13.3438 15.708 13.4688 15.8643C13.5938 16.0101 13.7604 16.1663 13.9688 16.333C14.2708 16.5518 14.6667 16.6611 15.1562 16.6611C15.6146 16.6611 16.026 16.484 16.3906 16.1299C16.7656 15.7653 16.9531 15.1872 16.9531 14.3955C16.9531 13.9788 16.8594 13.609 16.6719 13.2861C16.4948 12.9528 16.2552 12.6872 15.9531 12.4893C15.651 12.2913 15.3229 12.1924 14.9688 12.1924C14.5729 12.1924 14.2344 12.2288 13.9531 12.3018C13.8802 12.2184 13.8438 12.083 13.8438 11.8955C13.8438 11.833 13.8542 11.7809 13.875 11.7393C14.5938 11.6143 15.1667 11.3643 15.5938 10.9893C16.0208 10.6143 16.2344 10.1038 16.2344 9.45801C16.2344 9.10384 16.0938 8.79134 15.8125 8.52051C15.5417 8.23926 15.2292 8.09863 14.875 8.09863C14.5729 8.09863 14.3125 8.16113 14.0938 8.28613C13.8854 8.40072 13.7188 8.52051 13.5938 8.64551C13.4792 8.77051 13.401 8.85384 13.3594 8.89551C13.3177 8.89551 13.276 8.84863 13.2344 8.75488C13.1927 8.65072 13.1719 8.56217 13.1719 8.48926C13.4531 8.07259 13.7708 7.74967 14.125 7.52051C14.4792 7.29134 14.9375 7.17676 15.5 7.17676C15.8021 7.17676 16.099 7.26009 16.3906 7.42676C16.6823 7.59342 16.9219 7.8278 17.1094 8.12988C17.3073 8.43197 17.4062 8.78092 17.4062 9.17676C17.4062 9.63509 17.2917 10.0257 17.0625 10.3486C16.8438 10.6611 16.526 10.9736 16.1094 11.2861C16.4844 11.4111 16.8385 11.5986 17.1719 11.8486C17.5052 12.0986 17.776 12.4059 17.9844 12.7705C18.1927 13.1247 18.2969 13.5309 18.2969 13.9893C18.2969 14.6455 18.1354 15.2236 17.8125 15.7236C17.5 16.2132 17.0677 16.5986 16.5156 16.8799C15.9635 17.1507 15.3438 17.2861 14.6562 17.2861Z" fill="#F4EFEB" style="fill:#F4EFEB;fill:color(display-p3 0.9569 0.9373 0.9216);fill-opacity:1;"/>
</g>
<defs>
<clipPath id="clip0_421_6195">
<rect width="31" height="24" fill="white" style="fill:white;fill-opacity:1;" transform="translate(0 0.208008)"/>
</clipPath>
</defs>
</svg>
