<svg width="31" height="25" viewBox="0 0 31 25" fill="none" xmlns="http://www.w3.org/2000/svg">
<g clip-path="url(#clip0_421_6193)">
<path d="M13.0342 22.4408C7.46886 21.1079 3.01988 17.8361 2.92652 14.1106C2.83721 10.4173 0.990234 9.6505 0.990234 9.6505C1.1729 9.6505 1.35151 9.64648 1.53012 9.64648C3.05641 9.64648 4.4244 9.78298 5.58941 10.068C5.58941 10.2085 5.59347 10.3571 5.59347 10.5096C5.59347 14.5723 7.52975 20.0923 13.0301 22.4448L13.0342 22.4408Z" stroke="#F4EFEB" style="stroke:#F4EFEB;stroke:color(display-p3 0.9569 0.9373 0.9216);stroke-opacity:1;" stroke-width="0.75" stroke-linecap="round" stroke-linejoin="round"/>
<path d="M15.4828 23.2154H15.4787C14.5978 23.0267 13.7819 22.7698 13.0391 22.4487C13.0391 22.4487 13.0391 22.4487 13.035 22.4487C7.53466 20.0961 5.59838 14.5802 5.59838 10.5135C5.59838 10.3649 5.59838 10.2164 5.59432 10.0719C5.46848 5.12198 3.24805 3.60449 3.24805 3.60449C7.57119 3.60449 10.2138 4.29098 11.5737 6.58327C10.226 8.8595 9.04877 11.5292 9.04877 13.9178C9.04877 19.3936 15.2473 23.0789 15.4868 23.2194L15.4828 23.2154Z" stroke="#F4EFEB" style="stroke:#F4EFEB;stroke:color(display-p3 0.9569 0.9373 0.9216);stroke-opacity:1;" stroke-width="0.75" stroke-linecap="round" stroke-linejoin="round"/>
<path d="M15.5435 23.2263C15.5435 23.2263 15.5191 23.2223 15.5029 23.2183C15.4948 23.2183 15.4866 23.2143 15.4785 23.2143H15.4826C15.4826 23.2143 15.4948 23.2023 15.4988 23.1982C15.4988 23.1982 15.5029 23.2023 15.5069 23.2023C15.511 23.2063 15.5191 23.2103 15.5232 23.2143C15.5272 23.2183 15.5353 23.2223 15.5394 23.2263H15.5435Z" stroke="#F4EFEB" style="stroke:#F4EFEB;stroke:color(display-p3 0.9569 0.9373 0.9216);stroke-opacity:1;" stroke-width="0.75" stroke-linecap="round" stroke-linejoin="round"/>
<path d="M30.0142 9.65061C30.0142 9.65061 28.1672 10.4174 28.0779 14.1107C27.9845 17.8322 23.5437 21.096 17.9824 22.4369C23.4746 20.0763 25.4069 14.5644 25.4069 10.5057C25.4069 10.3572 25.4069 10.2086 25.4109 10.0641C26.5759 9.77907 27.948 9.64258 29.4702 9.64258C29.6488 9.64258 29.8274 9.64258 30.0101 9.64659L30.0142 9.65061Z" stroke="#F4EFEB" style="stroke:#F4EFEB;stroke:color(display-p3 0.9569 0.9373 0.9216);stroke-opacity:1;" stroke-width="0.75" stroke-linecap="round" stroke-linejoin="round"/>
<path d="M27.7557 3.59581C27.7557 3.59581 25.5352 5.1133 25.4094 10.0632C25.4094 10.2037 25.4053 10.3523 25.4053 10.5048C25.4053 14.5635 23.4731 20.0754 17.9809 22.436C17.9809 22.436 17.9809 22.436 17.9768 22.436C17.2259 22.7571 16.41 23.0181 15.525 23.2108C15.525 23.2108 15.5169 23.2068 15.5088 23.1987C15.8863 22.9739 21.9346 19.3127 21.9346 13.9011C21.9346 11.5205 20.7615 8.85483 19.4179 6.58262C20.7778 4.27828 23.4244 3.5918 27.7557 3.5918V3.59581Z" stroke="#F4EFEB" style="stroke:#F4EFEB;stroke:color(display-p3 0.9569 0.9373 0.9216);stroke-opacity:1;" stroke-width="0.75" stroke-linecap="round" stroke-linejoin="round"/>
<path d="M15.5171 23.2143C15.5171 23.2143 15.5009 23.2143 15.4927 23.2183C15.4765 23.2183 15.4684 23.2223 15.4521 23.2263C15.4562 23.2223 15.4643 23.2183 15.4684 23.2143H15.4724C15.4724 23.2143 15.4846 23.2023 15.4887 23.1982C15.4887 23.1982 15.4927 23.2023 15.4968 23.2023C15.5009 23.2063 15.509 23.2103 15.513 23.2143H15.5171Z" stroke="#F4EFEB" style="stroke:#F4EFEB;stroke:color(display-p3 0.9569 0.9373 0.9216);stroke-opacity:1;" stroke-width="0.75" stroke-linecap="round" stroke-linejoin="round"/>
<path d="M21.9361 13.9065C21.9361 19.3181 15.8878 22.9793 15.5102 23.2041C15.5102 23.2041 15.5062 23.2041 15.5021 23.2001C15.4981 23.2041 15.4899 23.2081 15.4859 23.2121C15.2464 23.0716 9.04785 19.3863 9.04785 13.9105C9.04785 11.5259 10.225 8.8522 11.5727 6.57597C13.3791 3.52493 15.494 1.18848 15.494 1.18848C15.494 1.18848 17.613 3.53697 19.4193 6.59202C20.763 8.86023 21.9361 11.5259 21.9361 13.9105V13.9065Z" stroke="#F4EFEB" style="stroke:#F4EFEB;stroke:color(display-p3 0.9569 0.9373 0.9216);stroke-opacity:1;" stroke-width="0.75" stroke-linecap="round" stroke-linejoin="round"/>
<path d="M15.5075 23.2024L15.4908 23.2149C15.4908 23.2149 15.4908 23.2149 15.4824 23.2107C15.4866 23.2107 15.4949 23.2066 15.4991 23.1982C15.4991 23.1982 15.5033 23.2024 15.5075 23.2024Z" stroke="#F4EFEB" style="stroke:#F4EFEB;stroke:color(display-p3 0.9569 0.9373 0.9216);stroke-opacity:1;" stroke-width="0.75" stroke-linecap="round" stroke-linejoin="round"/>
<path d="M13.25 17.2549C13.2083 17.2132 13.1875 17.1247 13.1875 16.9893C13.1875 16.8643 13.2083 16.8018 13.25 16.8018C13.3438 16.8018 13.474 16.7861 13.6406 16.7549C13.8073 16.7236 13.9635 16.682 14.1094 16.6299C14.2552 16.5778 14.3333 16.5309 14.3438 16.4893C14.4062 16.2393 14.4375 15.9424 14.4375 15.5986V9.97363C14.4375 9.65072 14.4271 9.40072 14.4062 9.22363C14.3854 9.03613 14.3229 8.94238 14.2188 8.94238C14.1458 8.94238 14.0052 8.99967 13.7969 9.11426C13.599 9.22884 13.4062 9.34342 13.2188 9.45801C13.1562 9.42676 13.0938 9.36947 13.0312 9.28613C12.9688 9.19238 12.9375 9.11947 12.9375 9.06738C12.9375 9.02572 12.9479 8.99447 12.9688 8.97363C14.7292 7.77572 15.6302 7.17676 15.6719 7.17676H15.7031C15.7865 7.17676 15.849 7.27572 15.8906 7.47363C15.7865 7.79655 15.7344 8.28613 15.7344 8.94238V15.0986C15.7344 15.4007 15.7448 15.6663 15.7656 15.8955C15.7865 16.1247 15.8177 16.3226 15.8594 16.4893C15.8802 16.5309 15.9583 16.5778 16.0938 16.6299C16.2396 16.682 16.3958 16.7236 16.5625 16.7549C16.7292 16.7861 16.8438 16.8018 16.9062 16.8018C16.9479 16.8018 16.9688 16.8955 16.9688 17.083C16.9688 17.1872 16.9635 17.2445 16.9531 17.2549C16.4323 17.234 16.0156 17.2184 15.7031 17.208C15.3906 17.1872 15.1771 17.1768 15.0625 17.1768C14.9792 17.1768 14.7865 17.1872 14.4844 17.208C14.1823 17.2184 13.7708 17.234 13.25 17.2549Z" fill="#F4EFEB" style="fill:#F4EFEB;fill:color(display-p3 0.9569 0.9373 0.9216);fill-opacity:1;"/>
</g>
<defs>
<clipPath id="clip0_421_6193">
<rect width="31" height="24" fill="white" style="fill:white;fill-opacity:1;" transform="translate(0 0.208008)"/>
</clipPath>
</defs>
</svg>
