<svg width="31" height="25" viewBox="0 0 31 25" fill="none" xmlns="http://www.w3.org/2000/svg">
<path d="M13.0344 22.6615C7.46911 21.3286 3.02012 18.0568 2.92676 14.3313C2.83746 10.638 0.990479 9.8712 0.990479 9.8712C1.17315 9.8712 1.35176 9.86719 1.53036 9.86719C3.05666 9.86719 4.42464 10.0037 5.58966 10.2887C5.58966 10.4292 5.59372 10.5778 5.59372 10.7303C5.59372 14.793 7.53 20.313 13.0303 22.6655L13.0344 22.6615Z" stroke="#4A778C" style="stroke:#4A778C;stroke:color(display-p3 0.2902 0.4667 0.5490);stroke-opacity:1;" stroke-width="0.75" stroke-linecap="round" stroke-linejoin="round"/>
<path d="M15.4825 23.4361H15.4784C14.5976 23.2474 13.7817 22.9905 13.0388 22.6694C13.0388 22.6694 13.0388 22.6694 13.0348 22.6694C7.53441 20.3168 5.59813 14.8009 5.59813 10.7342C5.59813 10.5856 5.59813 10.4371 5.59407 10.2926C5.46824 5.34268 3.2478 3.8252 3.2478 3.8252C7.57095 3.8252 10.2135 4.51168 11.5734 6.80397C10.2257 9.0802 9.04853 11.7499 9.04853 14.1385C9.04853 19.6143 15.2471 23.2996 15.4866 23.4401L15.4825 23.4361Z" stroke="#4A778C" style="stroke:#4A778C;stroke:color(display-p3 0.2902 0.4667 0.5490);stroke-opacity:1;" stroke-width="0.75" stroke-linecap="round" stroke-linejoin="round"/>
<path d="M15.5432 23.447C15.5432 23.447 15.5189 23.443 15.5026 23.439C15.4945 23.439 15.4864 23.435 15.4783 23.435H15.4823C15.4823 23.435 15.4945 23.423 15.4986 23.4189C15.4986 23.4189 15.5026 23.423 15.5067 23.423C15.5107 23.427 15.5189 23.431 15.5229 23.435C15.527 23.439 15.5351 23.443 15.5392 23.447H15.5432Z" stroke="#4A778C" style="stroke:#4A778C;stroke:color(display-p3 0.2902 0.4667 0.5490);stroke-opacity:1;" stroke-width="0.75" stroke-linecap="round" stroke-linejoin="round"/>
<path d="M30.0142 9.87131C30.0142 9.87131 28.1672 10.6381 28.0779 14.3314C27.9845 18.0529 23.5437 21.3167 17.9824 22.6576C23.4746 20.297 25.4069 14.7851 25.4069 10.7264C25.4069 10.5779 25.4069 10.4293 25.4109 10.2848C26.5759 9.99977 27.948 9.86328 29.4702 9.86328C29.6488 9.86328 29.8274 9.86328 30.0101 9.8673L30.0142 9.87131Z" stroke="#4A778C" style="stroke:#4A778C;stroke:color(display-p3 0.2902 0.4667 0.5490);stroke-opacity:1;" stroke-width="0.75" stroke-linecap="round" stroke-linejoin="round"/>
<path d="M27.7554 3.81651C27.7554 3.81651 25.535 5.334 25.4092 10.2839C25.4092 10.4244 25.4051 10.573 25.4051 10.7255C25.4051 14.7842 23.4729 20.2961 17.9807 22.6567C17.9807 22.6567 17.9807 22.6567 17.9766 22.6567C17.2256 22.9778 16.4097 23.2388 15.5248 23.4315C15.5248 23.4315 15.5167 23.4275 15.5085 23.4194C15.8861 23.1946 21.9344 19.5334 21.9344 14.1218C21.9344 11.7412 20.7613 9.07554 19.4176 6.80332C20.7775 4.49898 23.4242 3.8125 27.7554 3.8125V3.81651Z" stroke="#4A778C" style="stroke:#4A778C;stroke:color(display-p3 0.2902 0.4667 0.5490);stroke-opacity:1;" stroke-width="0.75" stroke-linecap="round" stroke-linejoin="round"/>
<path d="M15.5173 23.435C15.5173 23.435 15.5011 23.435 15.493 23.439C15.4767 23.439 15.4686 23.443 15.4524 23.447C15.4565 23.443 15.4646 23.439 15.4686 23.435H15.4727C15.4727 23.435 15.4849 23.423 15.4889 23.4189C15.4889 23.4189 15.493 23.423 15.497 23.423C15.5011 23.427 15.5092 23.431 15.5133 23.435H15.5173Z" stroke="#4A778C" style="stroke:#4A778C;stroke:color(display-p3 0.2902 0.4667 0.5490);stroke-opacity:1;" stroke-width="0.75" stroke-linecap="round" stroke-linejoin="round"/>
<path d="M21.9356 14.1272C21.9356 19.5388 15.8873 23.2 15.5098 23.4248C15.5098 23.4248 15.5057 23.4248 15.5016 23.4208C15.4976 23.4248 15.4895 23.4288 15.4854 23.4328C15.2459 23.2923 9.04736 19.607 9.04736 14.1312C9.04736 11.7466 10.2246 9.0729 11.5722 6.79667C13.3786 3.74563 15.4935 1.40918 15.4935 1.40918C15.4935 1.40918 17.6125 3.75768 19.4189 6.81273C20.7625 9.08093 21.9356 11.7466 21.9356 14.1312V14.1272Z" stroke="#4A778C" style="stroke:#4A778C;stroke:color(display-p3 0.2902 0.4667 0.5490);stroke-opacity:1;" stroke-width="0.75" stroke-linecap="round" stroke-linejoin="round"/>
<path d="M15.5077 23.4231L15.491 23.4356C15.491 23.4356 15.491 23.4356 15.4827 23.4314C15.4868 23.4314 15.4952 23.4273 15.4994 23.4189C15.4994 23.4189 15.5035 23.4231 15.5077 23.4231Z" stroke="#4A778C" style="stroke:#4A778C;stroke:color(display-p3 0.2902 0.4667 0.5490);stroke-opacity:1;" stroke-width="0.75" stroke-linecap="round" stroke-linejoin="round"/>
<path d="M15.1406 17.5068C14.2135 17.5068 13.5156 17.3506 13.0469 17.0381C12.9427 16.9652 12.8906 16.8141 12.8906 16.585C12.8906 16.0954 13.0833 15.8506 13.4688 15.8506C13.625 15.8506 13.7656 15.9287 13.8906 16.085C14.0156 16.2308 14.1823 16.387 14.3906 16.5537C14.6927 16.7725 15.1094 16.8818 15.6406 16.8818C16.0781 16.8818 16.4688 16.6995 16.8125 16.335C17.1667 15.96 17.3438 15.387 17.3438 14.6162C17.3438 13.9704 17.1562 13.4391 16.7812 13.0225C16.4167 12.5954 15.8438 12.3818 15.0625 12.3818C14.5312 12.3818 14.0781 12.4391 13.7031 12.5537C13.6615 12.5329 13.6146 12.5068 13.5625 12.4756C13.5208 12.4339 13.474 12.387 13.4219 12.335L14.1719 7.69434C15.1927 7.66309 16.0104 7.63184 16.625 7.60059C17.2396 7.55892 17.6458 7.51725 17.8438 7.47559C17.8646 7.51725 17.8802 7.56934 17.8906 7.63184C17.9115 7.68392 17.9219 7.76725 17.9219 7.88184C17.9219 8.09017 17.8906 8.35059 17.8281 8.66309C17.5469 8.74642 16.9583 8.80371 16.0625 8.83496L14.7031 8.89746C14.6406 8.91829 14.6042 8.95996 14.5938 9.02246C14.5417 9.31413 14.474 9.66829 14.3906 10.085C14.3177 10.4912 14.2344 10.9704 14.1406 11.5225C14.474 11.387 14.9635 11.3193 15.6094 11.3193C16.1719 11.3193 16.6823 11.4548 17.1406 11.7256C17.6094 11.986 17.9844 12.335 18.2656 12.7725C18.5469 13.21 18.6875 13.6891 18.6875 14.21C18.6875 14.8454 18.5312 15.4131 18.2188 15.9131C17.9167 16.4131 17.5 16.8037 16.9688 17.085C16.4375 17.3662 15.8281 17.5068 15.1406 17.5068Z" fill="#323333" style="fill:#323333;fill:color(display-p3 0.1961 0.2000 0.2000);fill-opacity:1;"/>
</svg>
