<svg width="31" height="25" viewBox="0 0 31 25" fill="none" xmlns="http://www.w3.org/2000/svg">
<path d="M13.0344 22.6615C7.46911 21.3286 3.02012 18.0568 2.92676 14.3313C2.83746 10.638 0.990479 9.8712 0.990479 9.8712C1.17315 9.8712 1.35176 9.86719 1.53036 9.86719C3.05666 9.86719 4.42464 10.0037 5.58966 10.2887C5.58966 10.4292 5.59372 10.5778 5.59372 10.7303C5.59372 14.793 7.53 20.313 13.0303 22.6655L13.0344 22.6615Z" stroke="#4A778C" style="stroke:#4A778C;stroke:color(display-p3 0.2902 0.4667 0.5490);stroke-opacity:1;" stroke-width="0.75" stroke-linecap="round" stroke-linejoin="round"/>
<path d="M15.4825 23.4361H15.4784C14.5976 23.2474 13.7817 22.9905 13.0388 22.6694C13.0388 22.6694 13.0388 22.6694 13.0348 22.6694C7.53441 20.3168 5.59813 14.8009 5.59813 10.7342C5.59813 10.5856 5.59813 10.4371 5.59407 10.2926C5.46824 5.34268 3.2478 3.8252 3.2478 3.8252C7.57095 3.8252 10.2135 4.51168 11.5734 6.80397C10.2257 9.0802 9.04853 11.7499 9.04853 14.1385C9.04853 19.6143 15.2471 23.2996 15.4866 23.4401L15.4825 23.4361Z" stroke="#4A778C" style="stroke:#4A778C;stroke:color(display-p3 0.2902 0.4667 0.5490);stroke-opacity:1;" stroke-width="0.75" stroke-linecap="round" stroke-linejoin="round"/>
<path d="M15.5432 23.447C15.5432 23.447 15.5189 23.443 15.5026 23.439C15.4945 23.439 15.4864 23.435 15.4783 23.435H15.4823C15.4823 23.435 15.4945 23.423 15.4986 23.4189C15.4986 23.4189 15.5026 23.423 15.5067 23.423C15.5107 23.427 15.5189 23.431 15.5229 23.435C15.527 23.439 15.5351 23.443 15.5392 23.447H15.5432Z" stroke="#4A778C" style="stroke:#4A778C;stroke:color(display-p3 0.2902 0.4667 0.5490);stroke-opacity:1;" stroke-width="0.75" stroke-linecap="round" stroke-linejoin="round"/>
<path d="M30.0142 9.87131C30.0142 9.87131 28.1672 10.6381 28.0779 14.3314C27.9845 18.0529 23.5437 21.3167 17.9824 22.6576C23.4746 20.297 25.4069 14.7851 25.4069 10.7264C25.4069 10.5779 25.4069 10.4293 25.4109 10.2848C26.5759 9.99977 27.948 9.86328 29.4702 9.86328C29.6488 9.86328 29.8274 9.86328 30.0101 9.8673L30.0142 9.87131Z" stroke="#4A778C" style="stroke:#4A778C;stroke:color(display-p3 0.2902 0.4667 0.5490);stroke-opacity:1;" stroke-width="0.75" stroke-linecap="round" stroke-linejoin="round"/>
<path d="M27.7554 3.81651C27.7554 3.81651 25.535 5.334 25.4092 10.2839C25.4092 10.4244 25.4051 10.573 25.4051 10.7255C25.4051 14.7842 23.4729 20.2961 17.9807 22.6567C17.9807 22.6567 17.9807 22.6567 17.9766 22.6567C17.2256 22.9778 16.4097 23.2388 15.5248 23.4315C15.5248 23.4315 15.5167 23.4275 15.5085 23.4194C15.8861 23.1946 21.9344 19.5334 21.9344 14.1218C21.9344 11.7412 20.7613 9.07554 19.4176 6.80332C20.7775 4.49898 23.4242 3.8125 27.7554 3.8125V3.81651Z" stroke="#4A778C" style="stroke:#4A778C;stroke:color(display-p3 0.2902 0.4667 0.5490);stroke-opacity:1;" stroke-width="0.75" stroke-linecap="round" stroke-linejoin="round"/>
<path d="M15.5173 23.435C15.5173 23.435 15.5011 23.435 15.493 23.439C15.4767 23.439 15.4686 23.443 15.4524 23.447C15.4565 23.443 15.4646 23.439 15.4686 23.435H15.4727C15.4727 23.435 15.4849 23.423 15.4889 23.4189C15.4889 23.4189 15.493 23.423 15.497 23.423C15.5011 23.427 15.5092 23.431 15.5133 23.435H15.5173Z" stroke="#4A778C" style="stroke:#4A778C;stroke:color(display-p3 0.2902 0.4667 0.5490);stroke-opacity:1;" stroke-width="0.75" stroke-linecap="round" stroke-linejoin="round"/>
<path d="M21.9356 14.1272C21.9356 19.5388 15.8873 23.2 15.5098 23.4248C15.5098 23.4248 15.5057 23.4248 15.5016 23.4208C15.4976 23.4248 15.4895 23.4288 15.4854 23.4328C15.2459 23.2923 9.04736 19.607 9.04736 14.1312C9.04736 11.7466 10.2246 9.0729 11.5722 6.79667C13.3786 3.74563 15.4935 1.40918 15.4935 1.40918C15.4935 1.40918 17.6125 3.75768 19.4189 6.81273C20.7625 9.08093 21.9356 11.7466 21.9356 14.1312V14.1272Z" stroke="#4A778C" style="stroke:#4A778C;stroke:color(display-p3 0.2902 0.4667 0.5490);stroke-opacity:1;" stroke-width="0.75" stroke-linecap="round" stroke-linejoin="round"/>
<path d="M15.5077 23.4231L15.491 23.4356C15.491 23.4356 15.491 23.4356 15.4827 23.4314C15.4868 23.4314 15.4952 23.4273 15.4994 23.4189C15.4994 23.4189 15.5035 23.4231 15.5077 23.4231Z" stroke="#4A778C" style="stroke:#4A778C;stroke:color(display-p3 0.2902 0.4667 0.5490);stroke-opacity:1;" stroke-width="0.75" stroke-linecap="round" stroke-linejoin="round"/>
<path d="M14.6562 17.5068C13.7708 17.5068 13.0938 17.3506 12.625 17.0381C12.5208 16.9652 12.4688 16.8141 12.4688 16.585C12.4688 16.0954 12.6615 15.8506 13.0469 15.8506C13.2031 15.8506 13.3438 15.9287 13.4688 16.085C13.5938 16.2308 13.7604 16.387 13.9688 16.5537C14.2708 16.7725 14.6667 16.8818 15.1562 16.8818C15.6146 16.8818 16.026 16.7048 16.3906 16.3506C16.7656 15.986 16.9531 15.4079 16.9531 14.6162C16.9531 14.1995 16.8594 13.8298 16.6719 13.5068C16.4948 13.1735 16.2552 12.9079 15.9531 12.71C15.651 12.512 15.3229 12.4131 14.9688 12.4131C14.5729 12.4131 14.2344 12.4495 13.9531 12.5225C13.8802 12.4391 13.8438 12.3037 13.8438 12.1162C13.8438 12.0537 13.8542 12.0016 13.875 11.96C14.5938 11.835 15.1667 11.585 15.5938 11.21C16.0208 10.835 16.2344 10.3245 16.2344 9.67871C16.2344 9.32454 16.0938 9.01204 15.8125 8.74121C15.5417 8.45996 15.2292 8.31934 14.875 8.31934C14.5729 8.31934 14.3125 8.38184 14.0938 8.50684C13.8854 8.62142 13.7188 8.74121 13.5938 8.86621C13.4792 8.99121 13.401 9.07454 13.3594 9.11621C13.3177 9.11621 13.276 9.06934 13.2344 8.97559C13.1927 8.87142 13.1719 8.78288 13.1719 8.70996C13.4531 8.29329 13.7708 7.97038 14.125 7.74121C14.4792 7.51204 14.9375 7.39746 15.5 7.39746C15.8021 7.39746 16.099 7.48079 16.3906 7.64746C16.6823 7.81413 16.9219 8.0485 17.1094 8.35059C17.3073 8.65267 17.4062 9.00163 17.4062 9.39746C17.4062 9.85579 17.2917 10.2464 17.0625 10.5693C16.8438 10.8818 16.526 11.1943 16.1094 11.5068C16.4844 11.6318 16.8385 11.8193 17.1719 12.0693C17.5052 12.3193 17.776 12.6266 17.9844 12.9912C18.1927 13.3454 18.2969 13.7516 18.2969 14.21C18.2969 14.8662 18.1354 15.4443 17.8125 15.9443C17.5 16.4339 17.0677 16.8193 16.5156 17.1006C15.9635 17.3714 15.3438 17.5068 14.6562 17.5068Z" fill="#323333" style="fill:#323333;fill:color(display-p3 0.1961 0.2000 0.2000);fill-opacity:1;"/>
</svg>
