<svg width="31" height="25" viewBox="0 0 31 25" fill="none" xmlns="http://www.w3.org/2000/svg">
<path d="M13.0344 22.6615C7.46911 21.3286 3.02012 18.0568 2.92676 14.3313C2.83746 10.638 0.990479 9.8712 0.990479 9.8712C1.17315 9.8712 1.35176 9.86719 1.53036 9.86719C3.05666 9.86719 4.42464 10.0037 5.58966 10.2887C5.58966 10.4292 5.59372 10.5778 5.59372 10.7303C5.59372 14.793 7.53 20.313 13.0303 22.6655L13.0344 22.6615Z" stroke="#4A778C" style="stroke:#4A778C;stroke:color(display-p3 0.2902 0.4667 0.5490);stroke-opacity:1;" stroke-width="0.75" stroke-linecap="round" stroke-linejoin="round"/>
<path d="M15.4825 23.4361H15.4784C14.5976 23.2474 13.7817 22.9905 13.0388 22.6694C13.0388 22.6694 13.0388 22.6694 13.0348 22.6694C7.53441 20.3168 5.59813 14.8009 5.59813 10.7342C5.59813 10.5856 5.59813 10.4371 5.59407 10.2926C5.46824 5.34268 3.2478 3.8252 3.2478 3.8252C7.57095 3.8252 10.2135 4.51168 11.5734 6.80397C10.2257 9.0802 9.04853 11.7499 9.04853 14.1385C9.04853 19.6143 15.2471 23.2996 15.4866 23.4401L15.4825 23.4361Z" stroke="#4A778C" style="stroke:#4A778C;stroke:color(display-p3 0.2902 0.4667 0.5490);stroke-opacity:1;" stroke-width="0.75" stroke-linecap="round" stroke-linejoin="round"/>
<path d="M15.5432 23.447C15.5432 23.447 15.5189 23.443 15.5026 23.439C15.4945 23.439 15.4864 23.435 15.4783 23.435H15.4823C15.4823 23.435 15.4945 23.423 15.4986 23.4189C15.4986 23.4189 15.5026 23.423 15.5067 23.423C15.5107 23.427 15.5189 23.431 15.5229 23.435C15.527 23.439 15.5351 23.443 15.5392 23.447H15.5432Z" stroke="#4A778C" style="stroke:#4A778C;stroke:color(display-p3 0.2902 0.4667 0.5490);stroke-opacity:1;" stroke-width="0.75" stroke-linecap="round" stroke-linejoin="round"/>
<path d="M30.0142 9.87131C30.0142 9.87131 28.1672 10.6381 28.0779 14.3314C27.9845 18.0529 23.5437 21.3167 17.9824 22.6576C23.4746 20.297 25.4069 14.7851 25.4069 10.7264C25.4069 10.5779 25.4069 10.4293 25.4109 10.2848C26.5759 9.99977 27.948 9.86328 29.4702 9.86328C29.6488 9.86328 29.8274 9.86328 30.0101 9.8673L30.0142 9.87131Z" stroke="#4A778C" style="stroke:#4A778C;stroke:color(display-p3 0.2902 0.4667 0.5490);stroke-opacity:1;" stroke-width="0.75" stroke-linecap="round" stroke-linejoin="round"/>
<path d="M27.7554 3.81651C27.7554 3.81651 25.535 5.334 25.4092 10.2839C25.4092 10.4244 25.4051 10.573 25.4051 10.7255C25.4051 14.7842 23.4729 20.2961 17.9807 22.6567C17.9807 22.6567 17.9807 22.6567 17.9766 22.6567C17.2256 22.9778 16.4097 23.2388 15.5248 23.4315C15.5248 23.4315 15.5167 23.4275 15.5085 23.4194C15.8861 23.1946 21.9344 19.5334 21.9344 14.1218C21.9344 11.7412 20.7613 9.07554 19.4176 6.80332C20.7775 4.49898 23.4242 3.8125 27.7554 3.8125V3.81651Z" stroke="#4A778C" style="stroke:#4A778C;stroke:color(display-p3 0.2902 0.4667 0.5490);stroke-opacity:1;" stroke-width="0.75" stroke-linecap="round" stroke-linejoin="round"/>
<path d="M15.5173 23.435C15.5173 23.435 15.5011 23.435 15.493 23.439C15.4767 23.439 15.4686 23.443 15.4524 23.447C15.4565 23.443 15.4646 23.439 15.4686 23.435H15.4727C15.4727 23.435 15.4849 23.423 15.4889 23.4189C15.4889 23.4189 15.493 23.423 15.497 23.423C15.5011 23.427 15.5092 23.431 15.5133 23.435H15.5173Z" stroke="#4A778C" style="stroke:#4A778C;stroke:color(display-p3 0.2902 0.4667 0.5490);stroke-opacity:1;" stroke-width="0.75" stroke-linecap="round" stroke-linejoin="round"/>
<path d="M21.9356 14.1272C21.9356 19.5388 15.8873 23.2 15.5098 23.4248C15.5098 23.4248 15.5057 23.4248 15.5016 23.4208C15.4976 23.4248 15.4895 23.4288 15.4854 23.4328C15.2459 23.2923 9.04736 19.607 9.04736 14.1312C9.04736 11.7466 10.2246 9.0729 11.5722 6.79667C13.3786 3.74563 15.4935 1.40918 15.4935 1.40918C15.4935 1.40918 17.6125 3.75768 19.4189 6.81273C20.7625 9.08093 21.9356 11.7466 21.9356 14.1312V14.1272Z" stroke="#4A778C" style="stroke:#4A778C;stroke:color(display-p3 0.2902 0.4667 0.5490);stroke-opacity:1;" stroke-width="0.75" stroke-linecap="round" stroke-linejoin="round"/>
<path d="M15.5077 23.4231L15.491 23.4356C15.491 23.4356 15.491 23.4356 15.4827 23.4314C15.4868 23.4314 15.4952 23.4273 15.4994 23.4189C15.4994 23.4189 15.5035 23.4231 15.5077 23.4231Z" stroke="#4A778C" style="stroke:#4A778C;stroke:color(display-p3 0.2902 0.4667 0.5490);stroke-opacity:1;" stroke-width="0.75" stroke-linecap="round" stroke-linejoin="round"/>
<path d="M13.25 17.4756C13.2083 17.4339 13.1875 17.3454 13.1875 17.21C13.1875 17.085 13.2083 17.0225 13.25 17.0225C13.3438 17.0225 13.474 17.0068 13.6406 16.9756C13.8073 16.9443 13.9635 16.9027 14.1094 16.8506C14.2552 16.7985 14.3333 16.7516 14.3438 16.71C14.4062 16.46 14.4375 16.1631 14.4375 15.8193V10.1943C14.4375 9.87142 14.4271 9.62142 14.4062 9.44434C14.3854 9.25684 14.3229 9.16309 14.2188 9.16309C14.1458 9.16309 14.0052 9.22038 13.7969 9.33496C13.599 9.44954 13.4062 9.56413 13.2188 9.67871C13.1562 9.64746 13.0938 9.59017 13.0312 9.50684C12.9688 9.41309 12.9375 9.34017 12.9375 9.28809C12.9375 9.24642 12.9479 9.21517 12.9688 9.19434C14.7292 7.99642 15.6302 7.39746 15.6719 7.39746H15.7031C15.7865 7.39746 15.849 7.49642 15.8906 7.69434C15.7865 8.01725 15.7344 8.50684 15.7344 9.16309V15.3193C15.7344 15.6214 15.7448 15.887 15.7656 16.1162C15.7865 16.3454 15.8177 16.5433 15.8594 16.71C15.8802 16.7516 15.9583 16.7985 16.0938 16.8506C16.2396 16.9027 16.3958 16.9443 16.5625 16.9756C16.7292 17.0068 16.8438 17.0225 16.9062 17.0225C16.9479 17.0225 16.9688 17.1162 16.9688 17.3037C16.9688 17.4079 16.9635 17.4652 16.9531 17.4756C16.4323 17.4548 16.0156 17.4391 15.7031 17.4287C15.3906 17.4079 15.1771 17.3975 15.0625 17.3975C14.9792 17.3975 14.7865 17.4079 14.4844 17.4287C14.1823 17.4391 13.7708 17.4548 13.25 17.4756Z" fill="#323333" style="fill:#323333;fill:color(display-p3 0.1961 0.2000 0.2000);fill-opacity:1;"/>
</svg>
