<svg width="31" height="25" viewBox="0 0 31 25" fill="none" xmlns="http://www.w3.org/2000/svg">
<g clip-path="url(#clip0_421_6194)">
<path d="M13.0342 22.4408C7.46886 21.1079 3.01988 17.8361 2.92652 14.1106C2.83721 10.4173 0.990234 9.6505 0.990234 9.6505C1.1729 9.6505 1.35151 9.64648 1.53012 9.64648C3.05641 9.64648 4.4244 9.78298 5.58941 10.068C5.58941 10.2085 5.59347 10.3571 5.59347 10.5096C5.59347 14.5723 7.52975 20.0923 13.0301 22.4448L13.0342 22.4408Z" stroke="#F4EFEB" style="stroke:#F4EFEB;stroke:color(display-p3 0.9569 0.9373 0.9216);stroke-opacity:1;" stroke-width="0.75" stroke-linecap="round" stroke-linejoin="round"/>
<path d="M15.4828 23.2154H15.4787C14.5978 23.0267 13.7819 22.7698 13.0391 22.4487C13.0391 22.4487 13.0391 22.4487 13.035 22.4487C7.53466 20.0961 5.59838 14.5802 5.59838 10.5135C5.59838 10.3649 5.59838 10.2164 5.59432 10.0719C5.46848 5.12198 3.24805 3.60449 3.24805 3.60449C7.57119 3.60449 10.2138 4.29098 11.5737 6.58327C10.226 8.8595 9.04877 11.5292 9.04877 13.9178C9.04877 19.3936 15.2473 23.0789 15.4868 23.2194L15.4828 23.2154Z" stroke="#F4EFEB" style="stroke:#F4EFEB;stroke:color(display-p3 0.9569 0.9373 0.9216);stroke-opacity:1;" stroke-width="0.75" stroke-linecap="round" stroke-linejoin="round"/>
<path d="M15.5435 23.2263C15.5435 23.2263 15.5191 23.2223 15.5029 23.2183C15.4948 23.2183 15.4866 23.2143 15.4785 23.2143H15.4826C15.4826 23.2143 15.4948 23.2023 15.4988 23.1982C15.4988 23.1982 15.5029 23.2023 15.5069 23.2023C15.511 23.2063 15.5191 23.2103 15.5232 23.2143C15.5272 23.2183 15.5353 23.2223 15.5394 23.2263H15.5435Z" stroke="#F4EFEB" style="stroke:#F4EFEB;stroke:color(display-p3 0.9569 0.9373 0.9216);stroke-opacity:1;" stroke-width="0.75" stroke-linecap="round" stroke-linejoin="round"/>
<path d="M30.0142 9.65061C30.0142 9.65061 28.1672 10.4174 28.0779 14.1107C27.9845 17.8322 23.5437 21.096 17.9824 22.4369C23.4746 20.0763 25.4069 14.5644 25.4069 10.5057C25.4069 10.3572 25.4069 10.2086 25.4109 10.0641C26.5759 9.77907 27.948 9.64258 29.4702 9.64258C29.6488 9.64258 29.8274 9.64258 30.0101 9.64659L30.0142 9.65061Z" stroke="#F4EFEB" style="stroke:#F4EFEB;stroke:color(display-p3 0.9569 0.9373 0.9216);stroke-opacity:1;" stroke-width="0.75" stroke-linecap="round" stroke-linejoin="round"/>
<path d="M27.7557 3.59581C27.7557 3.59581 25.5352 5.1133 25.4094 10.0632C25.4094 10.2037 25.4053 10.3523 25.4053 10.5048C25.4053 14.5635 23.4731 20.0754 17.9809 22.436C17.9809 22.436 17.9809 22.436 17.9768 22.436C17.2259 22.7571 16.41 23.0181 15.525 23.2108C15.525 23.2108 15.5169 23.2068 15.5088 23.1987C15.8863 22.9739 21.9346 19.3127 21.9346 13.9011C21.9346 11.5205 20.7615 8.85483 19.4179 6.58262C20.7778 4.27828 23.4244 3.5918 27.7557 3.5918V3.59581Z" stroke="#F4EFEB" style="stroke:#F4EFEB;stroke:color(display-p3 0.9569 0.9373 0.9216);stroke-opacity:1;" stroke-width="0.75" stroke-linecap="round" stroke-linejoin="round"/>
<path d="M15.5171 23.2143C15.5171 23.2143 15.5009 23.2143 15.4927 23.2183C15.4765 23.2183 15.4684 23.2223 15.4521 23.2263C15.4562 23.2223 15.4643 23.2183 15.4684 23.2143H15.4724C15.4724 23.2143 15.4846 23.2023 15.4887 23.1982C15.4887 23.1982 15.4927 23.2023 15.4968 23.2023C15.5009 23.2063 15.509 23.2103 15.513 23.2143H15.5171Z" stroke="#F4EFEB" style="stroke:#F4EFEB;stroke:color(display-p3 0.9569 0.9373 0.9216);stroke-opacity:1;" stroke-width="0.75" stroke-linecap="round" stroke-linejoin="round"/>
<path d="M21.9361 13.9065C21.9361 19.3181 15.8878 22.9793 15.5102 23.2041C15.5102 23.2041 15.5062 23.2041 15.5021 23.2001C15.4981 23.2041 15.4899 23.2081 15.4859 23.2121C15.2464 23.0716 9.04785 19.3863 9.04785 13.9105C9.04785 11.5259 10.225 8.8522 11.5727 6.57597C13.3791 3.52493 15.494 1.18848 15.494 1.18848C15.494 1.18848 17.613 3.53697 19.4193 6.59202C20.763 8.86023 21.9361 11.5259 21.9361 13.9105V13.9065Z" stroke="#F4EFEB" style="stroke:#F4EFEB;stroke:color(display-p3 0.9569 0.9373 0.9216);stroke-opacity:1;" stroke-width="0.75" stroke-linecap="round" stroke-linejoin="round"/>
<path d="M15.5075 23.2024L15.4908 23.2149C15.4908 23.2149 15.4908 23.2149 15.4824 23.2107C15.4866 23.2107 15.4949 23.2066 15.4991 23.1982C15.4991 23.1982 15.5033 23.2024 15.5075 23.2024Z" stroke="#F4EFEB" style="stroke:#F4EFEB;stroke:color(display-p3 0.9569 0.9373 0.9216);stroke-opacity:1;" stroke-width="0.75" stroke-linecap="round" stroke-linejoin="round"/>
<path d="M12.9375 17.208C12.8958 17.208 12.8542 17.1507 12.8125 17.0361C12.7812 16.9111 12.7656 16.8122 12.7656 16.7393C13.526 15.9684 14.2188 15.1768 14.8438 14.3643C15.4688 13.5518 15.9688 12.7705 16.3438 12.0205C16.7188 11.2601 16.9062 10.5986 16.9062 10.0361C16.9062 9.47363 16.7656 9.04134 16.4844 8.73926C16.2031 8.42676 15.8333 8.27051 15.375 8.27051C14.5104 8.27051 13.8177 8.7028 13.2969 9.56738C13.2344 9.56738 13.1667 9.53613 13.0938 9.47363C13.0312 9.40072 13 9.34863 13 9.31738C13.0312 9.19238 13.1198 9.0153 13.2656 8.78613C13.4219 8.54655 13.625 8.30697 13.875 8.06738C14.1354 7.81738 14.4427 7.60905 14.7969 7.44238C15.151 7.2653 15.5521 7.17676 16 7.17676C16.4688 7.17676 16.8698 7.29655 17.2031 7.53613C17.5365 7.77572 17.7917 8.09342 17.9688 8.48926C18.1562 8.87467 18.25 9.28613 18.25 9.72363C18.25 10.2132 18.151 10.708 17.9531 11.208C17.7552 11.6976 17.4948 12.1768 17.1719 12.6455C16.8594 13.1143 16.5208 13.5622 16.1562 13.9893C15.7917 14.4059 15.4375 14.7861 15.0938 15.1299C14.75 15.4632 14.4583 15.7445 14.2188 15.9736C14.1875 16.0257 14.1979 16.0622 14.25 16.083H17.2656C17.5573 16.083 17.7656 15.9997 17.8906 15.833C18.026 15.6663 18.1615 15.3486 18.2969 14.8799C18.349 14.7653 18.4219 14.708 18.5156 14.708C18.6615 14.708 18.7552 14.7288 18.7969 14.7705C18.5469 15.9997 18.4062 16.7288 18.375 16.958C18.3646 17.1247 18.2604 17.208 18.0625 17.208H12.9375Z" fill="#F4EFEB" style="fill:#F4EFEB;fill:color(display-p3 0.9569 0.9373 0.9216);fill-opacity:1;"/>
</g>
<defs>
<clipPath id="clip0_421_6194">
<rect width="31" height="24" fill="white" style="fill:white;fill-opacity:1;" transform="translate(0 0.208008)"/>
</clipPath>
</defs>
</svg>
