<svg width="31" height="25" viewBox="0 0 31 25" fill="none" xmlns="http://www.w3.org/2000/svg">
<path d="M13.0344 22.6615C7.46911 21.3286 3.02012 18.0568 2.92676 14.3313C2.83746 10.638 0.990479 9.8712 0.990479 9.8712C1.17315 9.8712 1.35176 9.86719 1.53036 9.86719C3.05666 9.86719 4.42464 10.0037 5.58966 10.2887C5.58966 10.4292 5.59372 10.5778 5.59372 10.7303C5.59372 14.793 7.53 20.313 13.0303 22.6655L13.0344 22.6615Z" stroke="#4A778C" style="stroke:#4A778C;stroke:color(display-p3 0.2902 0.4667 0.5490);stroke-opacity:1;" stroke-width="0.75" stroke-linecap="round" stroke-linejoin="round"/>
<path d="M15.4825 23.4361H15.4784C14.5976 23.2474 13.7817 22.9905 13.0388 22.6694C13.0388 22.6694 13.0388 22.6694 13.0348 22.6694C7.53441 20.3168 5.59813 14.8009 5.59813 10.7342C5.59813 10.5856 5.59813 10.4371 5.59407 10.2926C5.46824 5.34268 3.2478 3.8252 3.2478 3.8252C7.57095 3.8252 10.2135 4.51168 11.5734 6.80397C10.2257 9.0802 9.04853 11.7499 9.04853 14.1385C9.04853 19.6143 15.2471 23.2996 15.4866 23.4401L15.4825 23.4361Z" stroke="#4A778C" style="stroke:#4A778C;stroke:color(display-p3 0.2902 0.4667 0.5490);stroke-opacity:1;" stroke-width="0.75" stroke-linecap="round" stroke-linejoin="round"/>
<path d="M15.5432 23.447C15.5432 23.447 15.5189 23.443 15.5026 23.439C15.4945 23.439 15.4864 23.435 15.4783 23.435H15.4823C15.4823 23.435 15.4945 23.423 15.4986 23.4189C15.4986 23.4189 15.5026 23.423 15.5067 23.423C15.5107 23.427 15.5189 23.431 15.5229 23.435C15.527 23.439 15.5351 23.443 15.5392 23.447H15.5432Z" stroke="#4A778C" style="stroke:#4A778C;stroke:color(display-p3 0.2902 0.4667 0.5490);stroke-opacity:1;" stroke-width="0.75" stroke-linecap="round" stroke-linejoin="round"/>
<path d="M30.0142 9.87131C30.0142 9.87131 28.1672 10.6381 28.0779 14.3314C27.9845 18.0529 23.5437 21.3167 17.9824 22.6576C23.4746 20.297 25.4069 14.7851 25.4069 10.7264C25.4069 10.5779 25.4069 10.4293 25.4109 10.2848C26.5759 9.99977 27.948 9.86328 29.4702 9.86328C29.6488 9.86328 29.8274 9.86328 30.0101 9.8673L30.0142 9.87131Z" stroke="#4A778C" style="stroke:#4A778C;stroke:color(display-p3 0.2902 0.4667 0.5490);stroke-opacity:1;" stroke-width="0.75" stroke-linecap="round" stroke-linejoin="round"/>
<path d="M27.7554 3.81651C27.7554 3.81651 25.535 5.334 25.4092 10.2839C25.4092 10.4244 25.4051 10.573 25.4051 10.7255C25.4051 14.7842 23.4729 20.2961 17.9807 22.6567C17.9807 22.6567 17.9807 22.6567 17.9766 22.6567C17.2256 22.9778 16.4097 23.2388 15.5248 23.4315C15.5248 23.4315 15.5167 23.4275 15.5085 23.4194C15.8861 23.1946 21.9344 19.5334 21.9344 14.1218C21.9344 11.7412 20.7613 9.07554 19.4176 6.80332C20.7775 4.49898 23.4242 3.8125 27.7554 3.8125V3.81651Z" stroke="#4A778C" style="stroke:#4A778C;stroke:color(display-p3 0.2902 0.4667 0.5490);stroke-opacity:1;" stroke-width="0.75" stroke-linecap="round" stroke-linejoin="round"/>
<path d="M15.5173 23.435C15.5173 23.435 15.5011 23.435 15.493 23.439C15.4767 23.439 15.4686 23.443 15.4524 23.447C15.4565 23.443 15.4646 23.439 15.4686 23.435H15.4727C15.4727 23.435 15.4849 23.423 15.4889 23.4189C15.4889 23.4189 15.493 23.423 15.497 23.423C15.5011 23.427 15.5092 23.431 15.5133 23.435H15.5173Z" stroke="#4A778C" style="stroke:#4A778C;stroke:color(display-p3 0.2902 0.4667 0.5490);stroke-opacity:1;" stroke-width="0.75" stroke-linecap="round" stroke-linejoin="round"/>
<path d="M21.9356 14.1272C21.9356 19.5388 15.8873 23.2 15.5098 23.4248C15.5098 23.4248 15.5057 23.4248 15.5016 23.4208C15.4976 23.4248 15.4895 23.4288 15.4854 23.4328C15.2459 23.2923 9.04736 19.607 9.04736 14.1312C9.04736 11.7466 10.2246 9.0729 11.5722 6.79667C13.3786 3.74563 15.4935 1.40918 15.4935 1.40918C15.4935 1.40918 17.6125 3.75768 19.4189 6.81273C20.7625 9.08093 21.9356 11.7466 21.9356 14.1312V14.1272Z" stroke="#4A778C" style="stroke:#4A778C;stroke:color(display-p3 0.2902 0.4667 0.5490);stroke-opacity:1;" stroke-width="0.75" stroke-linecap="round" stroke-linejoin="round"/>
<path d="M15.5077 23.4231L15.491 23.4356C15.491 23.4356 15.491 23.4356 15.4827 23.4314C15.4868 23.4314 15.4952 23.4273 15.4994 23.4189C15.4994 23.4189 15.5035 23.4231 15.5077 23.4231Z" stroke="#4A778C" style="stroke:#4A778C;stroke:color(display-p3 0.2902 0.4667 0.5490);stroke-opacity:1;" stroke-width="0.75" stroke-linecap="round" stroke-linejoin="round"/>
<path d="M12.9375 17.4287C12.8958 17.4287 12.8542 17.3714 12.8125 17.2568C12.7812 17.1318 12.7656 17.0329 12.7656 16.96C13.526 16.1891 14.2188 15.3975 14.8438 14.585C15.4688 13.7725 15.9688 12.9912 16.3438 12.2412C16.7188 11.4808 16.9062 10.8193 16.9062 10.2568C16.9062 9.69434 16.7656 9.26204 16.4844 8.95996C16.2031 8.64746 15.8333 8.49121 15.375 8.49121C14.5104 8.49121 13.8177 8.9235 13.2969 9.78809C13.2344 9.78809 13.1667 9.75684 13.0938 9.69434C13.0312 9.62142 13 9.56934 13 9.53809C13.0312 9.41309 13.1198 9.236 13.2656 9.00684C13.4219 8.76725 13.625 8.52767 13.875 8.28809C14.1354 8.03809 14.4427 7.82975 14.7969 7.66309C15.151 7.486 15.5521 7.39746 16 7.39746C16.4688 7.39746 16.8698 7.51725 17.2031 7.75684C17.5365 7.99642 17.7917 8.31413 17.9688 8.70996C18.1562 9.09538 18.25 9.50684 18.25 9.94434C18.25 10.4339 18.151 10.9287 17.9531 11.4287C17.7552 11.9183 17.4948 12.3975 17.1719 12.8662C16.8594 13.335 16.5208 13.7829 16.1562 14.21C15.7917 14.6266 15.4375 15.0068 15.0938 15.3506C14.75 15.6839 14.4583 15.9652 14.2188 16.1943C14.1875 16.2464 14.1979 16.2829 14.25 16.3037H17.2656C17.5573 16.3037 17.7656 16.2204 17.8906 16.0537C18.026 15.887 18.1615 15.5693 18.2969 15.1006C18.349 14.986 18.4219 14.9287 18.5156 14.9287C18.6615 14.9287 18.7552 14.9495 18.7969 14.9912C18.5469 16.2204 18.4062 16.9495 18.375 17.1787C18.3646 17.3454 18.2604 17.4287 18.0625 17.4287H12.9375Z" fill="#323333" style="fill:#323333;fill:color(display-p3 0.1961 0.2000 0.2000);fill-opacity:1;"/>
</svg>
