<svg width="96" height="30" viewBox="0 0 96 30" fill="none" xmlns="http://www.w3.org/2000/svg">
<g clip-path="url(#clip0_928_9858)">
<path fill-rule="evenodd" clip-rule="evenodd" d="M22.3445 11.5076C22.3445 11.638 22.3373 11.7699 22.3288 11.9075C21.8279 11.1134 21.3671 10.305 20.8062 9.55098C20.3598 8.95755 19.9362 8.34118 19.4912 7.74774C19.2293 7.40229 19.1535 7.38652 18.7614 7.60154C18.169 7.91689 17.5694 8.22507 16.9927 8.57913C16.655 8.7798 16.4404 8.73394 16.1857 8.44009C14.9636 7.0468 13.4325 5.99037 12.0788 4.7347C11.7783 4.45662 11.6324 4.47238 11.3319 4.75763C10.2715 5.76676 9.0781 6.61391 8.0335 7.6388C7.77164 7.89252 7.51836 8.14767 7.28654 8.42432C7.04757 8.71673 6.81003 8.76977 6.4709 8.57769C5.95575 8.26234 5.41056 7.99286 4.87824 7.70044C4.29441 7.38509 4.20999 7.41519 3.83221 7.93839C3.17111 8.87871 2.43274 9.76456 1.84748 10.7508C1.63999 11.0976 1.44108 11.4445 1.2336 11.79C1.18637 11.767 1.14058 11.7441 1.09336 11.7212C1.09336 11.0432 1.14058 10.3967 1.24075 9.77316C1.24075 9.77316 0.412227 10.325 0.257684 11.6366C0.197583 12.1498 0.22191 12.6658 0.22191 13.2248C0.22191 14.3415 1.06331 15.332 1.06331 15.332C1.10195 15.3248 1.24934 15.7491 1.27939 15.7419C1.48831 16.1117 1.60851 16.6636 1.80741 17.042C2.01633 17.419 2.28535 17.7501 2.55437 18.0813C4.05544 19.8687 5.72537 21.0585 7.64714 21.7594C9.46303 22.4302 11.3734 22.5263 13.5355 22.241C14.3741 22.1335 15.184 21.9615 15.9453 21.6906C17.784 21.0355 19.4082 19.9117 20.7461 18.3407C22.5377 16.2221 22.5577 14.535 22.572 11.9849L22.3431 11.5062L22.3445 11.5076ZM7.86322 8.98048C8.46279 8.40282 9.0552 7.81798 9.67051 7.26182C10.2243 6.76872 10.8167 6.32149 11.3791 5.837C11.6324 5.62055 11.8169 5.60622 12.0788 5.82983C13.1635 6.77732 14.2925 7.65601 15.3013 8.69523C15.3629 8.75687 15.4315 8.81851 15.4788 8.88731C15.5775 9.03352 15.7707 9.15679 15.6562 9.35747C15.5331 9.58109 15.3485 9.47215 15.1854 9.38041C14.9393 9.2342 14.7633 9.37324 14.593 9.53522C13.846 10.2433 13.1019 10.9615 12.3478 11.6696C12.2706 11.7541 12.1947 11.8387 12.1089 11.9075C11.7325 12.2544 11.7096 12.2616 11.3476 11.9075C10.6107 11.1908 9.87085 10.4669 9.13391 9.74306C9.00369 9.61262 8.88778 9.48075 8.67314 9.48935C8.43417 9.59685 8.21094 9.73589 7.93476 9.52088C7.71297 9.34314 7.64142 9.19693 7.86608 8.98192L7.86322 8.98048ZM3.11101 16.8915C2.98795 16.9532 2.88778 16.8686 2.82625 16.7768C2.18089 15.8982 1.71869 14.9349 1.52694 13.8885C1.62711 13.1331 1.75876 12.4322 2.1351 11.7928C2.73467 10.7694 3.42725 9.79753 4.16419 8.86581C4.35594 8.61926 4.54054 8.49599 4.84104 8.66513C5.66384 9.11952 6.51669 9.53522 7.28654 10.0899C7.63999 10.3437 7.63999 10.391 7.31659 10.6906C6.67123 11.284 6.02444 11.8774 5.41771 12.5096C4.28726 13.6649 3.48735 14.9822 3.23407 16.6005C3.20975 16.7095 3.23407 16.8399 3.11101 16.8929V16.8915ZM4.48616 18.7406C4.10982 18.4009 3.92522 18.0397 3.93381 17.5165C3.94955 16.1762 4.40173 15.0051 5.21738 13.9645C6.1475 12.7704 7.33233 11.8316 8.417 10.7823C8.61733 10.5816 8.81623 10.6045 9.00941 10.7823C9.64046 11.3915 10.2615 12.0064 10.9083 12.6013C11.2016 12.8708 11.0399 13.07 10.8639 13.2936C10.1327 14.211 9.70343 15.2503 9.53314 16.4142C9.26412 18.1558 9.64189 19.7196 10.7165 21.1144C10.7781 21.1832 10.8253 21.2606 10.8711 21.3308C10.8782 21.3466 10.8639 21.3767 10.8639 21.4383C10.3931 21.4928 9.93238 21.3695 9.48592 21.2763C7.61709 20.8535 5.93429 20.0364 4.48759 18.7421L4.48616 18.7406ZM19.1062 18.6561C18.0473 19.6064 17.1172 20.2686 15.6276 20.8463C14.7905 21.1717 13.8847 21.3279 12.9546 21.4455C12.4709 21.5071 12.0946 21.3523 11.7397 21.0226C9.93953 19.3283 9.77211 16.6306 10.9484 14.5751C11.4091 13.7595 12.0717 13.1116 12.7099 12.4494C13.3323 11.8029 14.0163 11.2252 14.6631 10.6002C14.8706 10.3996 15.018 10.3996 15.2326 10.5931C16.3402 11.618 17.4635 12.6185 18.4323 13.7753C19.2708 14.7844 19.67 15.9483 19.7316 17.4276C19.816 17.8505 19.5398 18.2748 19.1077 18.6604L19.1062 18.6561ZM21.9381 14.0949C21.692 15.0811 21.2613 15.9827 20.593 16.9001C20.4928 16.6994 20.4456 16.6464 20.4456 16.5848C20.231 14.8518 19.3538 13.48 18.1632 12.2558C17.5794 11.6624 16.9856 11.0847 16.3631 10.5372C16.0011 10.2218 16.0011 10.1989 16.4246 9.90647C17.1473 9.41338 17.9457 9.05072 18.6998 8.60493C18.9145 8.46589 19.0619 8.53612 19.2078 8.7282C19.9848 9.74593 20.7461 10.778 21.37 11.9018C21.7077 12.4952 21.8537 13.1575 21.9395 13.8283C21.9467 13.9215 21.9624 14.0132 21.9395 14.0978L21.9381 14.0949Z" fill="#ADADAD" style="fill:#ADADAD;fill:color(display-p3 0.6782 0.6782 0.6782);fill-opacity:1;"/>
<path d="M74.132 5.88286C73.4552 3.641 71.9169 2.33229 69.6488 1.89223C68.2951 1.63851 66.9186 1.60698 65.5577 1.87646C63.852 2.20758 62.3896 2.98592 61.2663 4.35627C60.8814 4.81783 60.6209 5.35823 60.3047 5.97317C60.2131 5.76532 60.1659 5.67358 60.1272 5.56608C59.5205 3.96352 58.413 2.85405 56.8289 2.19898C55.584 1.67435 54.2832 1.65141 52.9839 1.73598C51.0078 1.87503 49.3693 2.72934 48.0471 4.20863C47.5391 4.77913 47.1943 5.45714 46.7163 6.08067V4.75476C46.7163 4.12406 46.7321 3.49192 46.7092 2.85978C46.6934 2.33659 46.5489 2.18178 46.1554 2.17461C45.7633 2.16744 45.6402 2.32942 45.6102 2.84545V20.756C45.6102 20.9567 45.603 21.1645 45.6259 21.3652C45.6574 21.7508 45.8105 21.8884 46.1726 21.8884C46.496 21.8884 46.6805 21.7422 46.7034 21.4111C46.7106 21.1645 46.7178 20.9108 46.7178 20.6643C46.7249 17.2441 46.7249 13.8154 46.7249 10.3953C46.7249 9.3245 46.9252 8.28384 47.3188 7.29048C48.0872 5.34246 49.3722 3.87751 51.3641 3.1006C52.6705 2.59173 54.0085 2.6462 55.355 2.83828C56.1163 2.94579 56.8246 3.24537 57.4542 3.69977C58.4702 4.42364 58.931 5.49441 59.2071 6.64974C59.4218 7.5743 59.5005 8.51462 59.5005 9.46927C59.4933 13.2291 59.5005 16.9876 59.5005 20.756C59.5005 20.9567 59.4933 21.1559 59.5005 21.3652C59.5234 21.758 59.6307 21.8741 59.9613 21.8812C60.3304 21.8884 60.4836 21.7508 60.5136 21.3652C60.5308 21.1645 60.5222 20.9639 60.5222 20.7646C60.5222 17.2212 60.5293 13.685 60.5222 10.1487C60.5222 9.51801 60.5293 8.89304 60.6452 8.2695C61.0445 6.0348 62.1978 4.36344 64.2513 3.36291C65.2887 2.85405 66.3891 2.70067 67.5267 2.70784C68.5956 2.71644 69.6259 2.83972 70.6247 3.26257C71.6479 3.7098 72.3719 4.44084 72.8084 5.44997C73.2176 6.36592 73.3922 7.34495 73.4022 8.33831C73.4251 12.4364 73.418 16.5346 73.4251 20.6413C73.4251 20.8649 73.4094 21.0886 73.4323 21.3122C73.4638 21.7508 73.6169 21.897 74.0089 21.8898C74.3638 21.8741 74.4869 21.735 74.5241 21.3193C74.5312 21.1889 74.5312 21.0499 74.5312 20.9194V8.54902C74.5241 7.6474 74.3924 6.75438 74.132 5.8843V5.88286Z" fill="white" style="fill:white;fill-opacity:1;"/>
<path fill-rule="evenodd" clip-rule="evenodd" d="M46.7121 6.0863C47.1944 5.45846 47.5407 4.78475 48.0472 4.21425C49.3651 2.7321 51.0093 1.87922 52.9812 1.74161C54.2819 1.6513 55.5855 1.67854 56.829 2.19887C58.4088 2.85824 59.5178 3.96341 60.1259 5.56883C60.1631 5.67204 60.2132 5.77095 60.3048 5.97592C60.6182 5.36242 60.88 4.82202 61.2664 4.35473C62.3897 2.98725 63.8493 2.2089 65.5578 1.87492C66.9172 1.6083 68.2953 1.63984 69.6475 1.89642C71.9184 2.32788 73.451 3.64375 74.1321 5.88562C74.3954 6.7514 74.5256 7.64442 74.5271 8.54891C74.5285 12.6714 74.5271 16.7939 74.5271 20.9164C74.5271 21.0512 74.5328 21.1874 74.5228 21.3207C74.4856 21.7392 74.3596 21.8754 74.0076 21.8869C73.6184 21.8983 73.4624 21.7521 73.4295 21.3164C73.4109 21.0927 73.4209 20.8663 73.4209 20.6412C73.4152 16.5416 73.4224 12.4421 73.398 8.3425C73.3952 7.34771 73.2192 6.36725 72.8128 5.44986C72.3663 4.44073 71.6437 3.70682 70.622 3.26676C69.6275 2.83817 68.5929 2.7192 67.5283 2.7106C66.3864 2.702 65.2888 2.85537 64.2514 3.3628C62.1951 4.3705 61.0475 6.04043 60.6439 8.26939C60.5294 8.8958 60.5237 9.5222 60.5237 10.1529C60.5252 13.6891 60.5237 17.2268 60.5237 20.7631C60.5237 20.9652 60.5323 21.1687 60.5166 21.3708C60.4851 21.7536 60.3263 21.894 59.9628 21.884C59.6337 21.8768 59.5249 21.7607 59.502 21.3651C59.4891 21.163 59.4963 20.9594 59.4963 20.7559C59.4963 16.9946 59.4949 13.2319 59.4963 9.46916C59.4963 8.52024 59.4262 7.57705 59.2072 6.65393C58.9339 5.4943 58.4732 4.42783 57.4572 3.70109C56.8233 3.24813 56.1178 2.94855 55.3523 2.84104C54.01 2.64896 52.6663 2.59162 51.3627 3.10049C49.3723 3.87883 48.0873 5.34235 47.3174 7.29324C46.9282 8.28516 46.7264 9.32295 46.725 10.3952C46.725 13.8196 46.7207 17.2426 46.7179 20.6656C46.7179 20.9136 46.7121 21.1616 46.6993 21.4095C46.6807 21.7407 46.4889 21.8883 46.1684 21.8897C45.8063 21.894 45.6532 21.755 45.6203 21.3651C45.6017 21.163 45.6117 20.9594 45.6117 20.7573C45.6117 14.9219 45.6103 9.08787 45.6089 3.25386C45.6089 3.11912 45.606 2.98438 45.6117 2.84821C45.6375 2.32931 45.7648 2.17307 46.1569 2.1788C46.5447 2.1831 46.6907 2.33648 46.7064 2.86254C46.7293 3.49324 46.7121 4.12395 46.7121 4.75465V6.08486V6.0863Z" fill="white" style="fill:white;fill-opacity:1;"/>
<path fill-rule="evenodd" clip-rule="evenodd" d="M92.158 17.9909C90.8701 20.078 89.0084 21.2591 86.7747 21.9013C84.6612 22.5105 82.5148 22.5148 80.3698 22.0575C79.5498 21.8841 78.7785 21.5773 78.0659 21.1286C76.8954 20.3947 76.1813 19.3469 75.9352 17.988C75.7277 16.8327 75.8394 15.6931 76.2615 14.6023C76.8925 12.9825 78.1689 12.0795 79.773 11.6022C80.9178 11.2639 82.0941 11.1134 83.2918 11.0417C85.4167 10.917 87.5575 10.9141 89.6652 10.5328C89.8642 10.497 90.0602 10.4482 90.2562 10.3952C91.5226 10.0541 92.1265 9.32732 92.1437 8.02721C92.1537 7.30906 92.0621 6.59092 91.8575 5.89428C91.3724 4.24155 90.1375 3.44314 88.582 3.00164C87.4158 2.67196 86.2252 2.70063 85.0347 2.71783C83.9672 2.7336 82.9383 2.94574 81.9452 3.33276C79.9305 4.11828 78.7614 5.6033 78.3564 7.71472C78.3392 7.80359 78.3392 7.89533 78.3235 7.98277C78.2319 8.4171 78.0144 8.57477 77.6195 8.5031C77.2975 8.44577 77.1701 8.26372 77.2302 7.8423C77.4191 6.54792 77.8599 5.35532 78.7213 4.35049C79.9891 2.87407 81.6605 2.15736 83.5307 1.86494C85.0046 1.6356 86.4857 1.64706 87.9653 1.85348C88.8854 1.98248 89.774 2.22903 90.5796 2.69776C92.3039 3.69829 93.1668 5.23061 93.1797 7.20729C93.2054 10.765 93.1868 14.3242 93.1868 17.882C93.1868 18.3779 93.1854 18.8739 93.1883 19.3684C93.1968 20.4951 93.599 20.895 94.7423 20.9208C95.0356 20.9265 95.3275 20.9208 95.6195 20.9308C95.8599 20.9409 95.9844 21.077 95.9987 21.3179C96.0158 21.5644 95.9643 21.8067 95.691 21.8396C94.6979 21.9629 93.7034 21.9987 92.8291 21.3953C92.3798 21.0842 92.1523 20.6284 92.1594 20.0636C92.1651 19.3713 92.1594 18.6789 92.1594 17.9866L92.158 17.9909ZM92.1608 10.6145C91.1305 11.3026 90.1131 11.5462 89.06 11.6781C87.2527 11.906 85.4339 11.9361 83.618 12.0465C82.1599 12.1339 80.7017 12.2157 79.3495 12.8679C77.2403 13.8842 76.3016 16.536 77.3018 18.6703C77.93 20.0077 79.0776 20.6485 80.417 21.0383C81.6447 21.3953 82.9026 21.3953 84.1618 21.3351C85.6686 21.2634 87.0881 20.8635 88.3974 20.1195C90.2734 19.0545 91.514 17.4749 91.9748 15.3563C92.3039 13.8497 92.1265 12.3103 92.1594 10.616L92.1608 10.6145Z" fill="white" style="fill:white;fill-opacity:1;"/>
<path fill-rule="evenodd" clip-rule="evenodd" d="M34.7193 12.3073C31.9991 12.3073 29.2774 12.3073 26.5572 12.3073C26.3783 12.3073 26.1966 12.2973 26.0191 12.3145C25.6399 12.3517 25.5383 12.4449 25.577 12.8362C25.7058 14.1607 25.8846 15.4752 26.3998 16.7179C27.3642 19.0515 29.0685 20.5351 31.5297 21.0727C34.0268 21.6188 36.488 21.5113 38.8333 20.3703C40.7251 19.45 41.897 17.9206 42.4837 15.9181C42.5338 15.7446 42.5796 15.5712 42.6154 15.3949C42.6783 15.1068 42.8543 14.9878 43.142 14.9778C43.6156 14.9606 43.7544 15.091 43.6814 15.5669C43.4983 16.7724 43.0017 17.8446 42.2905 18.8251C41.2016 20.323 39.7205 21.269 37.9805 21.7994C35.5135 22.5491 33.0151 22.6208 30.5367 21.8868C28.1341 21.1744 26.4384 19.6063 25.4525 17.297C24.6025 15.3118 24.3621 13.2347 24.5066 11.086C24.6468 9.05202 25.2507 7.19574 26.4541 5.56021C27.9638 3.51043 30 2.28342 32.5085 1.85626C33.9867 1.60398 35.4706 1.63981 36.9273 1.97667C40.2257 2.73925 42.3821 4.78473 43.4711 7.97695C43.8417 9.06922 44.0249 10.2002 44.0392 11.3584C44.0478 12.2356 43.9876 12.303 43.0804 12.3073C42.136 12.3116 41.1916 12.3087 40.2471 12.3087H34.7165L34.7193 12.3073ZM34.157 11.3211H41.5708C41.8398 11.3211 42.1088 11.3297 42.3793 11.3183C42.85 11.2968 42.9259 11.2251 42.9016 10.7463C42.8815 10.365 42.8314 9.98374 42.767 9.60818C42.3006 6.94346 40.9612 4.89081 38.53 3.62367C37.0346 2.84389 35.4219 2.65897 33.7563 2.72061C32.3053 2.77508 30.9631 3.18074 29.741 3.93615C27.1524 5.53584 25.9476 7.98412 25.5941 10.9269C25.5641 11.1792 25.6843 11.3082 25.9361 11.3168C26.1164 11.3211 26.2939 11.3211 26.4756 11.3211H34.157Z" fill="white" style="fill:white;fill-opacity:1;"/>
<path d="M64.6877 24.6392H65.8583C66.5308 27.5175 66.5952 27.8844 66.6925 28.485H66.7068C66.8027 27.9346 66.8828 27.3999 67.438 24.6392H68.6C69.2139 27.5246 69.2654 27.8027 69.3827 28.485H69.3985C69.4857 27.9876 69.573 27.5332 70.2527 24.6392H71.3646L69.8878 29.8984H68.8347C68.2938 27.3211 68.1979 26.8079 68.0233 25.7974H68.0076C67.8473 26.8079 67.7586 27.1878 67.1962 29.8984H66.1716L64.6877 24.6392Z" fill="white" style="fill:white;fill-opacity:1;"/>
<path d="M75.0279 28.756C74.7574 29.6934 73.9819 30.0002 73.3179 30.0002C72.2203 30.0002 71.3804 29.4741 71.3804 27.8701C71.3804 27.4 71.5406 25.8992 73.2449 25.8992C74.0119 25.8992 75.0722 26.2661 75.0722 28.045V28.2285H72.4035C72.4336 28.5223 72.4922 29.1803 73.3179 29.1803C73.6012 29.1803 73.8946 29.0341 73.9761 28.756H75.0279ZM74.0191 27.5605C73.9604 26.9312 73.5583 26.7406 73.2292 26.7406C72.7469 26.7406 72.4922 27.0488 72.4336 27.5605H74.0191Z" fill="white" style="fill:white;fill-opacity:1;"/>
<path d="M76.8007 29.8969H75.7776V24.6377H76.8007V29.8969Z" fill="white" style="fill:white;fill-opacity:1;"/>
<path d="M78.8312 29.8969H77.8081V24.6377H78.8312V29.8969Z" fill="white" style="fill:white;fill-opacity:1;"/>
<path d="M83.3274 29.8969H82.3028V27.5318C82.3028 27.2466 82.2899 26.7635 81.6374 26.7635C81.1852 26.7635 80.8332 27.0702 80.8332 27.6637V29.8969H79.8101V26.0009H80.7888V26.5714H80.8046C80.9434 26.3378 81.2353 25.8977 81.9737 25.8977C82.712 25.8977 83.3274 26.3449 83.3274 27.2021V29.8969Z" fill="white" style="fill:white;fill-opacity:1;"/>
<path d="M87.616 28.756C87.3455 29.6934 86.57 30.0002 85.9046 30.0002C84.8084 30.0002 83.967 29.4741 83.967 27.8701C83.967 27.4 84.1273 25.8992 85.8316 25.8992C86.5986 25.8992 87.6589 26.2661 87.6589 28.045V28.2285H84.9916C85.0202 28.5223 85.0789 29.1803 85.9046 29.1803C86.1893 29.1803 86.4827 29.0341 86.5628 28.756H87.616ZM86.6072 27.5605C86.5485 26.9312 86.1478 26.7406 85.8187 26.7406C85.335 26.7406 85.0803 27.0488 85.0217 27.5605H86.6072Z" fill="white" style="fill:white;fill-opacity:1;"/>
<path d="M90.538 27.1878C90.4951 26.9398 90.4078 26.6761 89.8512 26.6761C89.2945 26.6761 89.2216 26.8882 89.2216 27.0574C89.2216 27.6723 91.6571 27.2265 91.6571 28.6614C91.6571 29.7966 90.5609 30.0016 89.9542 30.0016C89.0699 30.0016 88.1111 29.6949 88.0825 28.6542H89.1357C89.1357 28.9839 89.3403 29.2247 89.9828 29.2247C90.5094 29.2247 90.6339 28.9696 90.6339 28.8219C90.6339 28.1697 88.2213 28.6614 88.2213 27.2036C88.2213 26.6316 88.5805 25.8992 89.7939 25.8992C90.5538 25.8992 91.4596 26.0898 91.5411 27.1878H90.5395H90.538Z" fill="white" style="fill:white;fill-opacity:1;"/>
<path d="M94.5991 27.1878C94.5562 26.9398 94.4689 26.6761 93.9122 26.6761C93.3556 26.6761 93.2826 26.8882 93.2826 27.0574C93.2826 27.6723 95.7181 27.2265 95.7181 28.6614C95.7181 29.7966 94.622 30.0016 94.0152 30.0016C93.1309 30.0016 92.1722 29.6949 92.1436 28.6542H93.1967C93.1967 28.9839 93.4014 29.2247 94.0439 29.2247C94.5705 29.2247 94.695 28.9696 94.695 28.8219C94.695 28.1697 92.2824 28.6614 92.2824 27.2036C92.2824 26.6316 92.6415 25.8992 93.855 25.8992C94.6148 25.8992 95.5206 26.0898 95.6022 27.1878H94.6005H94.5991Z" fill="white" style="fill:white;fill-opacity:1;"/>
<path fill-rule="evenodd" clip-rule="evenodd" d="M23.1243 8.56476C21.5317 2.4713 15.4372 -0.806923 9.73489 0.170668C7.05184 0.630796 4.76661 1.85493 2.92783 3.87175C1.318 5.63486 0.366415 7.69611 0.0888091 10.0899C0.0659138 10.282 0.0501733 10.4741 0.0358637 10.6662C8.98078e-05 11.2066 -0.0027721 11.7455 0.00152077 12.2845C0.00295172 12.6557 0.00867555 13.0241 0.00867555 13.3939C8.98089e-05 18.1715 0.00295172 22.9477 0.00295172 27.7253C0.00295172 27.9044 0.00438268 28.085 0.027278 28.2642C0.0558971 28.5222 0.204717 28.6699 0.473736 28.6742C0.739894 28.6799 0.908747 28.5509 0.937366 28.2872C0.964554 28.042 0.968847 27.7941 0.968847 27.5475C0.970278 24.0543 0.968847 20.5625 0.968847 17.0692V15.9927C1.00033 15.9856 1.03181 15.9798 1.06186 15.9741C1.26935 16.3454 1.48113 16.7152 1.68003 17.0907C1.88466 17.472 2.15511 17.8031 2.42842 18.13C5.34185 21.6089 9.09239 23.0136 13.5384 22.4288C16.396 22.0547 18.8501 20.7416 20.7346 18.5241C23.2073 15.6215 24.0945 12.2759 23.1243 8.56476ZM6.48662 2.45554C10.3244 0.37708 14.2181 0.533323 17.857 2.96297C20.6459 4.82498 22.1327 7.43236 22.3201 10.6647C22.3216 10.6719 22.3216 10.6819 22.3216 10.6891C22.3244 10.6948 22.3273 10.6977 22.3287 10.6991C22.3287 10.745 22.3287 10.7923 22.3273 10.8367C22.3445 11.1851 22.3445 11.5448 22.3287 11.9089C22.2515 13.1259 21.961 14.0103 21.9381 14.0949C21.692 15.0854 21.2598 15.9813 20.5873 16.9001C20.4914 17.0176 20.2052 17.4104 19.9362 17.7401C19.7559 17.9565 19.5741 18.1271 19.4983 18.2317C19.391 18.3779 19.2579 18.5184 19.1062 18.6546C17.3476 20.2342 15.4358 21.1201 13.0919 21.4111C12.8258 21.444 12.1775 21.4254 11.5179 21.4111C11.2732 21.4053 10.7895 21.3824 10.3402 21.3265C9.80643 21.2605 9.2827 21.1387 9.2269 21.1244C7.47827 20.6886 5.8527 19.9604 4.48614 18.7435C4.43749 18.699 4.3917 18.6546 4.34877 18.6087C3.74204 18.0712 2.79332 16.741 2.79332 16.7395C1.95621 15.5211 1.67288 14.5163 1.50689 13.9114C1.31228 13.1976 1.14915 12.5167 1.10765 11.7355C1.10479 11.7283 1.1005 11.7254 1.09906 11.724C1.09906 11.6781 1.09906 11.6337 1.1005 11.5893C1.13341 7.52697 2.89491 4.40068 6.48518 2.45554H6.48662Z" fill="white" style="fill:white;fill-opacity:1;"/>
</g>
<defs>
<clipPath id="clip0_928_9858">
<rect width="96" height="30" fill="white" style="fill:white;fill-opacity:1;"/>
</clipPath>
</defs>
</svg>
