<svg width="96" height="30" viewBox="0 0 96 30" fill="none" xmlns="http://www.w3.org/2000/svg">
<g clip-path="url(#clip0_928_8795)">
<path fill-rule="evenodd" clip-rule="evenodd" d="M22.3462 11.5076C22.3462 11.638 22.339 11.7699 22.3305 11.9075C21.8296 11.1134 21.3689 10.305 20.8079 9.55098C20.3615 8.95755 19.9379 8.34118 19.4929 7.74774C19.231 7.40229 19.1552 7.38652 18.7631 7.60154C18.1707 7.91689 17.5711 8.22507 16.9944 8.57913C16.6567 8.7798 16.4421 8.73394 16.1874 8.44009C14.9653 7.0468 13.4342 5.99037 12.0805 4.7347C11.78 4.45662 11.6341 4.47238 11.3336 4.75763C10.2732 5.76676 9.07981 6.61391 8.03521 7.6388C7.77334 7.89252 7.52006 8.14767 7.28825 8.42432C7.04928 8.71673 6.81174 8.76977 6.4726 8.57769C5.95746 8.26234 5.41227 7.99286 4.87995 7.70044C4.29612 7.38509 4.21169 7.41519 3.83392 7.93839C3.17282 8.87871 2.43445 9.76456 1.84918 10.7508C1.6417 11.0976 1.44279 11.4445 1.2353 11.79C1.18808 11.767 1.14229 11.7441 1.09507 11.7212C1.09507 11.0432 1.14229 10.3967 1.24246 9.77316C1.24246 9.77316 0.413936 10.325 0.259393 11.6366C0.199292 12.1498 0.223619 12.6658 0.223619 13.2248C0.223619 14.3415 1.06502 15.332 1.06502 15.332C1.10366 15.3248 1.25105 15.7491 1.2811 15.7419C1.49001 16.1117 1.61022 16.6636 1.80912 17.042C2.01804 17.419 2.28706 17.7501 2.55608 18.0813C4.05715 19.8687 5.72708 21.0585 7.64885 21.7594C9.46473 22.4302 11.3751 22.5263 13.5372 22.241C14.3758 22.1335 15.1857 21.9615 15.947 21.6906C17.7857 21.0355 19.4099 19.9117 20.7478 18.3407C22.5394 16.2221 22.5594 14.535 22.5737 11.9849L22.3448 11.5062L22.3462 11.5076ZM7.86493 8.98048C8.4645 8.40282 9.05691 7.81798 9.67222 7.26182C10.226 6.76872 10.8184 6.32149 11.3808 5.837C11.6341 5.62055 11.8187 5.60622 12.0805 5.82983C13.1652 6.77732 14.2942 7.65601 15.303 8.69523C15.3646 8.75687 15.4333 8.81851 15.4805 8.88731C15.5792 9.03352 15.7724 9.15679 15.6579 9.35747C15.5349 9.58109 15.3503 9.47215 15.1871 9.38041C14.941 9.2342 14.765 9.37324 14.5947 9.53522C13.8478 10.2433 13.1037 10.9615 12.3495 11.6696C12.2723 11.7541 12.1964 11.8387 12.1106 11.9075C11.7342 12.2544 11.7113 12.2616 11.3493 11.9075C10.6124 11.1908 9.87256 10.4669 9.13561 9.74306C9.0054 9.61262 8.88949 9.48075 8.67485 9.48935C8.43588 9.59685 8.21265 9.73589 7.93647 9.52088C7.71467 9.34314 7.64313 9.19693 7.86779 8.98192L7.86493 8.98048ZM3.11272 16.8915C2.98966 16.9532 2.88949 16.8686 2.82796 16.7768C2.1826 15.8982 1.7204 14.9349 1.52865 13.8885C1.62882 13.1331 1.76047 12.4322 2.13681 11.7928C2.73638 10.7694 3.42896 9.79753 4.1659 8.86581C4.35765 8.61926 4.54224 8.49599 4.84275 8.66513C5.66555 9.11952 6.51839 9.53522 7.28825 10.0899C7.6417 10.3437 7.6417 10.391 7.3183 10.6906C6.67294 11.284 6.02615 11.8774 5.41942 12.5096C4.28897 13.6649 3.48906 14.9822 3.23578 16.6005C3.21146 16.7095 3.23578 16.8399 3.11272 16.8929V16.8915ZM4.48787 18.7406C4.11153 18.4009 3.92693 18.0397 3.93552 17.5165C3.95126 16.1762 4.40344 15.0051 5.21909 13.9645C6.14921 12.7704 7.33404 11.8316 8.4187 10.7823C8.61904 10.5816 8.81794 10.6045 9.01112 10.7823C9.64217 11.3915 10.2632 12.0064 10.91 12.6013C11.2033 12.8708 11.0416 13.07 10.8656 13.2936C10.1344 14.211 9.70514 15.2503 9.53485 16.4142C9.26583 18.1558 9.6436 19.7196 10.7183 21.1144C10.7798 21.1832 10.827 21.2606 10.8728 21.3308C10.88 21.3466 10.8656 21.3767 10.8656 21.4383C10.3949 21.4928 9.93409 21.3695 9.48763 21.2763C7.6188 20.8535 5.936 20.0364 4.4893 18.7421L4.48787 18.7406ZM19.1079 18.6561C18.049 19.6064 17.1189 20.2686 15.6293 20.8463C14.7922 21.1717 13.8864 21.3279 12.9563 21.4455C12.4726 21.5071 12.0963 21.3523 11.7414 21.0226C9.94124 19.3283 9.77382 16.6306 10.9501 14.5751C11.4108 13.7595 12.0734 13.1116 12.7116 12.4494C13.334 11.8029 14.018 11.2252 14.6648 10.6002C14.8723 10.3996 15.0197 10.3996 15.2343 10.5931C16.3419 11.618 17.4652 12.6185 18.434 13.7753C19.2725 14.7844 19.6717 15.9483 19.7333 17.4276C19.8177 17.8505 19.5415 18.2748 19.1094 18.6604L19.1079 18.6561ZM21.9398 14.0949C21.6937 15.0811 21.263 15.9827 20.5947 16.9001C20.4945 16.6994 20.4473 16.6464 20.4473 16.5848C20.2327 14.8518 19.3555 13.48 18.1649 12.2558C17.5811 11.6624 16.9873 11.0847 16.3648 10.5372C16.0028 10.2218 16.0028 10.1989 16.4263 9.90647C17.149 9.41338 17.9474 9.05072 18.7016 8.60493C18.9162 8.46589 19.0636 8.53612 19.2095 8.7282C19.9866 9.74593 20.7478 10.778 21.3717 11.9018C21.7094 12.4952 21.8554 13.1575 21.9412 13.8283C21.9484 13.9215 21.9641 14.0132 21.9412 14.0978L21.9398 14.0949Z" fill="#85A2AD" style="fill:#85A2AD;fill:color(display-p3 0.5216 0.6353 0.6784);fill-opacity:1;"/>
<path d="M74.1323 5.88286C73.4554 3.641 71.9171 2.33229 69.6491 1.89223C68.2954 1.63851 66.9188 1.60698 65.558 1.87646C63.8523 2.20758 62.3898 2.98592 61.2665 4.35627C60.8816 4.81783 60.6212 5.35823 60.3049 5.97317C60.2133 5.76532 60.1661 5.67358 60.1275 5.56608C59.5208 3.96352 58.4132 2.85405 56.8291 2.19898C55.5842 1.67435 54.2835 1.65141 52.9842 1.73598C51.008 1.87503 49.3696 2.72934 48.0474 4.20863C47.5394 4.77913 47.1945 5.45714 46.7166 6.08067V4.75476C46.7166 4.12406 46.7323 3.49192 46.7094 2.85978C46.6937 2.33659 46.5491 2.18178 46.1556 2.17461C45.7635 2.16744 45.6405 2.32942 45.6104 2.84545V20.756C45.6104 20.9567 45.6033 21.1645 45.6262 21.3652C45.6577 21.7508 45.8108 21.8884 46.1728 21.8884C46.4962 21.8884 46.6808 21.7422 46.7037 21.4111C46.7108 21.1645 46.718 20.9108 46.718 20.6643C46.7252 17.2441 46.7251 13.8154 46.7251 10.3953C46.7251 9.3245 46.9255 8.28384 47.319 7.29048C48.0874 5.34246 49.3724 3.87751 51.3643 3.1006C52.6708 2.59173 54.0087 2.6462 55.3552 2.83828C56.1165 2.94579 56.8248 3.24537 57.4545 3.69977C58.4704 4.42364 58.9312 5.49441 59.2074 6.64974C59.422 7.5743 59.5007 8.51462 59.5007 9.46927C59.4936 13.2291 59.5007 16.9876 59.5007 20.756C59.5007 20.9567 59.4936 21.1559 59.5007 21.3652C59.5236 21.758 59.6309 21.8741 59.9615 21.8812C60.3307 21.8884 60.4838 21.7508 60.5138 21.3652C60.531 21.1645 60.5224 20.9639 60.5224 20.7646C60.5224 17.2212 60.5296 13.685 60.5224 10.1487C60.5224 9.51801 60.5296 8.89304 60.6455 8.2695C61.0447 6.0348 62.1981 4.36344 64.2515 3.36291C65.2889 2.85405 66.3893 2.70067 67.527 2.70784C68.5959 2.71644 69.6262 2.83972 70.625 3.26257C71.6481 3.7098 72.3722 4.44084 72.8086 5.44997C73.2179 6.36592 73.3925 7.34495 73.4025 8.33831C73.4254 12.4364 73.4182 16.5346 73.4254 20.6413C73.4254 20.8649 73.4096 21.0886 73.4325 21.3122C73.464 21.7508 73.6171 21.897 74.0092 21.8898C74.3641 21.8741 74.4871 21.735 74.5243 21.3193C74.5315 21.1889 74.5315 21.0499 74.5315 20.9194V8.54902C74.5243 7.6474 74.3927 6.75438 74.1323 5.8843V5.88286Z" fill="#4A778C" style="fill:#4A778C;fill:color(display-p3 0.2902 0.4667 0.5490);fill-opacity:1;"/>
<path fill-rule="evenodd" clip-rule="evenodd" d="M46.7134 6.0863C47.1956 5.45846 47.5419 4.78475 48.0484 4.21425C49.3663 2.7321 51.0105 1.87922 52.9824 1.74161C54.2831 1.6513 55.5867 1.67854 56.8302 2.19887C58.41 2.85824 59.519 3.96341 60.1271 5.56883C60.1643 5.67204 60.2144 5.77095 60.306 5.97592C60.6194 5.36242 60.8813 4.82202 61.2676 4.35473C62.3909 2.98725 63.8505 2.2089 65.5591 1.87492C66.9185 1.6083 68.2965 1.63984 69.6487 1.89642C71.9197 2.32788 73.4522 3.64375 74.1333 5.88562C74.3966 6.7514 74.5269 7.64442 74.5283 8.54891C74.5297 12.6714 74.5283 16.7939 74.5283 20.9164C74.5283 21.0512 74.534 21.1874 74.524 21.3207C74.4868 21.7392 74.3609 21.8754 74.0089 21.8869C73.6196 21.8983 73.4637 21.7521 73.4307 21.3164C73.4121 21.0927 73.4222 20.8663 73.4222 20.6412C73.4164 16.5416 73.4236 12.4421 73.3993 8.3425C73.3964 7.34771 73.2204 6.36725 72.814 5.44986C72.3675 4.44073 71.6449 3.70682 70.6232 3.26676C69.6287 2.83817 68.5941 2.7192 67.5295 2.7106C66.3876 2.702 65.29 2.85537 64.2526 3.3628C62.1963 4.3705 61.0487 6.04043 60.6451 8.26939C60.5307 8.8958 60.5249 9.5222 60.5249 10.1529C60.5264 13.6891 60.5249 17.2268 60.5249 20.7631C60.5249 20.9652 60.5335 21.1687 60.5178 21.3708C60.4863 21.7536 60.3275 21.894 59.964 21.884C59.6349 21.8768 59.5261 21.7607 59.5032 21.3651C59.4904 21.163 59.4975 20.9594 59.4975 20.7559C59.4975 16.9946 59.4961 13.2319 59.4975 9.46916C59.4975 8.52024 59.4274 7.57705 59.2085 6.65393C58.9352 5.4943 58.4744 4.42783 57.4584 3.70109C56.8245 3.24813 56.119 2.94855 55.3535 2.84104C54.0112 2.64896 52.6676 2.59162 51.364 3.10049C49.3735 3.87883 48.0885 5.34235 47.3187 7.29324C46.9294 8.28516 46.7277 9.32295 46.7262 10.3952C46.7262 13.8196 46.7219 17.2426 46.7191 20.6656C46.7191 20.9136 46.7134 21.1616 46.7005 21.4095C46.6819 21.7407 46.4901 21.8883 46.1696 21.8897C45.8076 21.894 45.6544 21.755 45.6215 21.3651C45.6029 21.163 45.613 20.9594 45.613 20.7573C45.613 14.9219 45.6115 9.08787 45.6101 3.25386C45.6101 3.11912 45.6072 2.98438 45.613 2.84821C45.6387 2.32931 45.7661 2.17307 46.1581 2.1788C46.5459 2.1831 46.6919 2.33648 46.7076 2.86254C46.7305 3.49324 46.7134 4.12395 46.7134 4.75465V6.08486V6.0863Z" fill="#4A778C" style="fill:#4A778C;fill:color(display-p3 0.2902 0.4667 0.5490);fill-opacity:1;"/>
<path fill-rule="evenodd" clip-rule="evenodd" d="M92.1563 17.9909C90.8684 20.078 89.0067 21.2591 86.773 21.9013C84.6595 22.5105 82.5131 22.5148 80.3681 22.0575C79.5481 21.8841 78.7768 21.5773 78.0642 21.1286C76.8937 20.3947 76.1796 19.3469 75.9335 17.988C75.726 16.8327 75.8376 15.6931 76.2598 14.6023C76.8908 12.9825 78.1672 12.0795 79.7713 11.6022C80.9161 11.2639 82.0924 11.1134 83.2901 11.0417C85.415 10.917 87.5557 10.9141 89.6635 10.5328C89.8624 10.497 90.0585 10.4482 90.2545 10.3952C91.5209 10.0541 92.1248 9.32732 92.142 8.02721C92.152 7.30906 92.0604 6.59092 91.8558 5.89428C91.3707 4.24155 90.1358 3.44314 88.5803 3.00164C87.4141 2.67196 86.2235 2.70063 85.033 2.71783C83.9655 2.7336 82.9366 2.94574 81.9435 3.33276C79.9287 4.11828 78.7597 5.6033 78.3547 7.71472C78.3375 7.80359 78.3375 7.89533 78.3218 7.98277C78.2302 8.4171 78.0127 8.57477 77.6178 8.5031C77.2958 8.44577 77.1684 8.26372 77.2285 7.8423C77.4174 6.54792 77.8582 5.35532 78.7196 4.35049C79.9874 2.87407 81.6588 2.15736 83.529 1.86494C85.0029 1.6356 86.484 1.64706 87.9636 1.85348C88.8837 1.98248 89.7723 2.22903 90.5779 2.69776C92.3022 3.69829 93.1651 5.23061 93.178 7.20729C93.2037 10.765 93.1851 14.3242 93.1851 17.882C93.1851 18.3779 93.1837 18.8739 93.1866 19.3684C93.1951 20.4951 93.5972 20.895 94.7406 20.9208C95.0339 20.9265 95.3258 20.9208 95.6177 20.9308C95.8581 20.9409 95.9826 21.077 95.997 21.3179C96.0141 21.5644 95.9626 21.8067 95.6893 21.8396C94.6962 21.9629 93.7017 21.9987 92.8274 21.3953C92.3781 21.0842 92.1505 20.6284 92.1577 20.0636C92.1634 19.3713 92.1577 18.6789 92.1577 17.9866L92.1563 17.9909ZM92.1591 10.6145C91.1288 11.3026 90.1114 11.5462 89.0582 11.6781C87.251 11.906 85.4322 11.9361 83.6163 12.0465C82.1582 12.1339 80.7 12.2157 79.3478 12.8679C77.2386 13.8842 76.2998 16.536 77.3001 18.6703C77.9283 20.0077 79.0759 20.6485 80.4153 21.0383C81.643 21.3953 82.9008 21.3953 84.1601 21.3351C85.6669 21.2634 87.0864 20.8635 88.3957 20.1195C90.2717 19.0545 91.5123 17.4749 91.9731 15.3563C92.3022 13.8497 92.1248 12.3103 92.1577 10.616L92.1591 10.6145Z" fill="#4A778C" style="fill:#4A778C;fill:color(display-p3 0.2902 0.4667 0.5490);fill-opacity:1;"/>
<path fill-rule="evenodd" clip-rule="evenodd" d="M34.7208 12.3073C32.0006 12.3073 29.2789 12.3073 26.5586 12.3073C26.3798 12.3073 26.198 12.2973 26.0206 12.3145C25.6414 12.3517 25.5398 12.4449 25.5784 12.8362C25.7072 14.1607 25.8861 15.4752 26.4012 16.7179C27.3657 19.0515 29.07 20.5351 31.5312 21.0727C34.0282 21.6188 36.4895 21.5113 38.8348 20.3703C40.7265 19.45 41.8985 17.9206 42.4852 15.9181C42.5353 15.7446 42.5811 15.5712 42.6168 15.3949C42.6798 15.1068 42.8558 14.9878 43.1434 14.9778C43.6171 14.9606 43.7559 15.091 43.6829 15.5669C43.4997 16.7724 43.0032 17.8446 42.292 18.8251C41.203 20.323 39.722 21.269 37.982 21.7994C35.515 22.5491 33.0165 22.6208 30.5381 21.8868C28.1355 21.1744 26.4399 19.6063 25.4539 17.297C24.6039 15.3118 24.3635 13.2347 24.5081 11.086C24.6483 9.05202 25.2522 7.19574 26.4556 5.56021C27.9653 3.51043 30.0015 2.28342 32.51 1.85626C33.9882 1.60398 35.4721 1.63981 36.9288 1.97667C40.2271 2.73925 42.3836 4.78473 43.4725 7.97695C43.8432 9.06922 44.0263 10.2002 44.0406 11.3584C44.0492 12.2356 43.9891 12.303 43.0819 12.3073C42.1375 12.3116 41.193 12.3087 40.2486 12.3087H34.7179L34.7208 12.3073ZM34.1584 11.3211H41.5722C41.8412 11.3211 42.1103 11.3297 42.3807 11.3183C42.8515 11.2968 42.9273 11.2251 42.903 10.7463C42.883 10.365 42.8329 9.98374 42.7685 9.60818C42.302 6.94346 40.9626 4.89081 38.5314 3.62367C37.0361 2.84389 35.4234 2.65897 33.7578 2.72061C32.3068 2.77508 30.9645 3.18074 29.7425 3.93615C27.1539 5.53584 25.949 7.98412 25.5956 10.9269C25.5655 11.1792 25.6858 11.3082 25.9376 11.3168C26.1179 11.3211 26.2953 11.3211 26.4771 11.3211H34.1584Z" fill="#4A778C" style="fill:#4A778C;fill:color(display-p3 0.2902 0.4667 0.5490);fill-opacity:1;"/>
<path d="M64.6875 24.6392H65.858C66.5306 27.5175 66.595 27.8844 66.6923 28.485H66.7066C66.8025 27.9346 66.8826 27.3999 67.4378 24.6392H68.5997C69.2136 27.5246 69.2651 27.8027 69.3825 28.485H69.3982C69.4855 27.9876 69.5728 27.5332 70.2525 24.6392H71.3643L69.8876 29.8984H68.8344C68.2935 27.3211 68.1976 26.8079 68.0231 25.7974H68.0073C67.8471 26.8079 67.7583 27.1878 67.196 29.8984H66.1714L64.6875 24.6392Z" fill="#4A778C" style="fill:#4A778C;fill:color(display-p3 0.2902 0.4667 0.5490);fill-opacity:1;"/>
<path d="M75.0264 28.756C74.756 29.6934 73.9804 30.0002 73.3164 30.0002C72.2189 30.0002 71.3789 29.4741 71.3789 27.8701C71.3789 27.4 71.5392 25.8992 73.2434 25.8992C74.0104 25.8992 75.0708 26.2661 75.0708 28.045V28.2285H72.402C72.4321 28.5223 72.4908 29.1803 73.3164 29.1803C73.5998 29.1803 73.8931 29.0341 73.9747 28.756H75.0264ZM74.0176 27.5605C73.9589 26.9312 73.5568 26.7406 73.2277 26.7406C72.7455 26.7406 72.4908 27.0488 72.4321 27.5605H74.0176Z" fill="#4A778C" style="fill:#4A778C;fill:color(display-p3 0.2902 0.4667 0.5490);fill-opacity:1;"/>
<path d="M76.8005 29.8969H75.7773V24.6377H76.8005V29.8969Z" fill="#4A778C" style="fill:#4A778C;fill:color(display-p3 0.2902 0.4667 0.5490);fill-opacity:1;"/>
<path d="M78.8317 29.8969H77.8086V24.6377H78.8317V29.8969Z" fill="#4A778C" style="fill:#4A778C;fill:color(display-p3 0.2902 0.4667 0.5490);fill-opacity:1;"/>
<path d="M83.3259 29.8969H82.3013V27.5318C82.3013 27.2466 82.2884 26.7635 81.6359 26.7635C81.1837 26.7635 80.8317 27.0702 80.8317 27.6637V29.8969H79.8086V26.0009H80.7874V26.5714H80.8031C80.9419 26.3378 81.2338 25.8977 81.9722 25.8977C82.7106 25.8977 83.3259 26.3449 83.3259 27.2021V29.8969Z" fill="#4A778C" style="fill:#4A778C;fill:color(display-p3 0.2902 0.4667 0.5490);fill-opacity:1;"/>
<path d="M87.6138 28.756C87.3433 29.6934 86.5678 30.0002 85.9024 30.0002C84.8063 30.0002 83.9648 29.4741 83.9648 27.8701C83.9648 27.4 84.1251 25.8992 85.8294 25.8992C86.5964 25.8992 87.6567 26.2661 87.6567 28.045V28.2285H84.9894C85.018 28.5223 85.0767 29.1803 85.9024 29.1803C86.1871 29.1803 86.4805 29.0341 86.5606 28.756H87.6138ZM86.605 27.5605C86.5463 26.9312 86.1456 26.7406 85.8165 26.7406C85.3328 26.7406 85.0781 27.0488 85.0195 27.5605H86.605Z" fill="#4A778C" style="fill:#4A778C;fill:color(display-p3 0.2902 0.4667 0.5490);fill-opacity:1;"/>
<path d="M90.5376 27.1878C90.4946 26.9398 90.4073 26.6761 89.8507 26.6761C89.294 26.6761 89.2211 26.8882 89.2211 27.0574C89.2211 27.6723 91.6566 27.2265 91.6566 28.6614C91.6566 29.7966 90.5604 30.0016 89.9537 30.0016C89.0694 30.0016 88.1107 29.6949 88.082 28.6542H89.1352C89.1352 28.9839 89.3398 29.2247 89.9823 29.2247C90.5089 29.2247 90.6334 28.9696 90.6334 28.8219C90.6334 28.1697 88.2208 28.6614 88.2208 27.2036C88.2208 26.6316 88.58 25.8992 89.7935 25.8992C90.5533 25.8992 91.4591 26.0898 91.5407 27.1878H90.539H90.5376Z" fill="#4A778C" style="fill:#4A778C;fill:color(display-p3 0.2902 0.4667 0.5490);fill-opacity:1;"/>
<path d="M94.6001 27.1878C94.5571 26.9398 94.4698 26.6761 93.9132 26.6761C93.3565 26.6761 93.2836 26.8882 93.2836 27.0574C93.2836 27.6723 95.7191 27.2265 95.7191 28.6614C95.7191 29.7966 94.6229 30.0016 94.0162 30.0016C93.1319 30.0016 92.1732 29.6949 92.1445 28.6542H93.1977C93.1977 28.9839 93.4023 29.2247 94.0448 29.2247C94.5714 29.2247 94.6959 28.9696 94.6959 28.8219C94.6959 28.1697 92.2833 28.6614 92.2833 27.2036C92.2833 26.6316 92.6425 25.8992 93.856 25.8992C94.6158 25.8992 95.5216 26.0898 95.6032 27.1878H94.6015H94.6001Z" fill="#4A778C" style="fill:#4A778C;fill:color(display-p3 0.2902 0.4667 0.5490);fill-opacity:1;"/>
<path fill-rule="evenodd" clip-rule="evenodd" d="M23.1243 8.56476C21.5317 2.4713 15.4372 -0.806923 9.73489 0.170668C7.05184 0.630796 4.76661 1.85493 2.92783 3.87175C1.318 5.63486 0.366415 7.69611 0.0888091 10.0899C0.0659138 10.282 0.0501733 10.4741 0.0358637 10.6662C8.98078e-05 11.2066 -0.0027721 11.7455 0.00152077 12.2845C0.00295172 12.6557 0.00867555 13.0241 0.00867555 13.3939C8.98089e-05 18.1715 0.00295172 22.9477 0.00295172 27.7253C0.00295172 27.9044 0.00438268 28.085 0.027278 28.2642C0.0558971 28.5222 0.204717 28.6699 0.473736 28.6742C0.739894 28.6799 0.908747 28.5509 0.937366 28.2872C0.964554 28.042 0.968847 27.7941 0.968847 27.5475C0.970278 24.0543 0.968847 20.5625 0.968847 17.0692V15.9927C1.00033 15.9856 1.03181 15.9798 1.06186 15.9741C1.26935 16.3454 1.48113 16.7152 1.68003 17.0907C1.88466 17.472 2.15511 17.8031 2.42842 18.13C5.34185 21.6089 9.09239 23.0136 13.5384 22.4288C16.396 22.0547 18.8501 20.7416 20.7346 18.5241C23.2073 15.6215 24.0945 12.2759 23.1243 8.56476ZM6.48662 2.45554C10.3244 0.37708 14.2181 0.533323 17.857 2.96297C20.6459 4.82498 22.1327 7.43236 22.3201 10.6647C22.3216 10.6719 22.3216 10.6819 22.3216 10.6891C22.3244 10.6948 22.3273 10.6977 22.3287 10.6991C22.3287 10.745 22.3287 10.7923 22.3273 10.8367C22.3445 11.1851 22.3445 11.5448 22.3287 11.9089C22.2515 13.1259 21.961 14.0103 21.9381 14.0949C21.692 15.0854 21.2598 15.9813 20.5873 16.9001C20.4914 17.0176 20.2052 17.4104 19.9362 17.7401C19.7559 17.9565 19.5741 18.1271 19.4983 18.2317C19.391 18.3779 19.2579 18.5184 19.1062 18.6546C17.3476 20.2342 15.4358 21.1201 13.0919 21.4111C12.8258 21.444 12.1775 21.4254 11.5179 21.4111C11.2732 21.4053 10.7895 21.3824 10.3402 21.3265C9.80643 21.2605 9.2827 21.1387 9.2269 21.1244C7.47827 20.6886 5.8527 19.9604 4.48614 18.7435C4.43749 18.699 4.3917 18.6546 4.34877 18.6087C3.74204 18.0712 2.79332 16.741 2.79332 16.7395C1.95621 15.5211 1.67288 14.5163 1.50689 13.9114C1.31228 13.1976 1.14915 12.5167 1.10765 11.7355C1.10479 11.7283 1.1005 11.7254 1.09906 11.724C1.09906 11.6781 1.09906 11.6337 1.1005 11.5893C1.13341 7.52697 2.89491 4.40068 6.48518 2.45554H6.48662Z" fill="#4A778C" style="fill:#4A778C;fill:color(display-p3 0.2902 0.4667 0.5490);fill-opacity:1;"/>
</g>
<defs>
<clipPath id="clip0_928_8795">
<rect width="96" height="30" fill="white" style="fill:white;fill-opacity:1;"/>
</clipPath>
</defs>
</svg>
