<svg width="31" height="24" viewBox="0 0 31 24" fill="none" xmlns="http://www.w3.org/2000/svg">
<path d="M15.6153 0.105195C15.8205 0.0854919 16.0128 0.243118 16.1615 0.370094C16.4361 0.605072 16.7077 0.926163 16.9816 1.17282C18.4815 2.52431 20.0557 3.77875 21.4463 5.25284C21.7944 5.62209 22.0247 6.17086 22.6366 5.92275C23.5382 5.55715 24.4225 4.77558 25.3391 4.38006C25.5621 4.28374 25.7945 4.16406 26.0147 4.34357C26.222 4.51288 26.6002 5.06895 26.7796 5.31195C27.4867 6.26573 28.183 7.32752 28.8157 8.33603C29.4463 9.34016 30.0833 10.2356 30.4901 11.6921C30.5587 11.9373 30.3528 12.535 30.2742 12.8065C28.5777 18.6474 23.4166 23.0419 17.4942 23.7797C9.76438 24.7437 2.56078 19.6435 0.742727 11.9935C0.686963 11.7578 0.704836 11.5097 0.794202 11.2857C1.82584 8.70894 3.63889 6.58463 5.30825 4.41947C5.65641 4.11954 6.23122 4.50266 6.57867 4.68364C7.05839 4.93321 8.47037 5.9067 8.86071 5.96216C9.4684 6.04827 9.77153 5.38128 10.1247 4.99889C11.4981 3.50948 13.1338 2.27692 14.6252 0.918865C14.8704 0.695562 15.2872 0.137304 15.6146 0.106655L15.6153 0.105195ZM15.561 1.30273C15.3858 1.33922 14.801 1.84348 14.6252 1.98797C13.8495 2.62431 13.0516 3.35333 12.321 4.04586C11.759 4.57784 10.8668 5.36816 10.4107 5.95926C10.1554 6.28911 9.97529 6.28544 10.3077 6.52698C10.8947 6.95388 11.1521 6.20298 11.694 6.6058C12.7563 7.39538 13.783 8.83591 14.7674 9.77363C15.0641 10.0568 15.3408 10.3903 15.729 10.0976C16.3767 9.61017 17.0452 8.78774 17.6236 8.20467C18.1326 7.69166 18.9598 6.7211 19.5196 6.34965C20.0793 5.97821 20.198 6.51312 20.6048 6.43795C20.707 6.41898 20.8329 6.22706 20.8343 6.12927C20.8386 5.91691 20.351 5.3842 20.1966 5.21635C19.1635 4.09692 17.7251 2.80745 16.554 1.8274C16.2795 1.59753 15.9113 1.2283 15.5617 1.302L15.561 1.30273ZM27.3723 16.3881C27.5589 15.9918 27.8163 15.6328 28.0215 15.2467C28.3675 14.5965 29.3169 12.597 29.2554 11.9344C29.0931 10.1896 27.1278 7.33481 26.0504 5.94902C25.8838 5.73448 25.4842 5.21344 25.2089 5.25284C24.2237 5.82934 23.0885 6.4643 22.1369 7.09918C21.9653 7.21375 21.7207 7.68119 21.7529 7.88552C21.7694 7.9906 22.3464 8.54839 22.4979 8.70017C24.1387 10.3406 25.753 11.7534 26.6752 13.985C26.9855 14.7345 27.1099 15.3832 27.2901 16.164C27.3037 16.2224 27.3158 16.3691 27.3723 16.3881ZM3.87696 16.3516C4.15864 14.5754 4.96151 13.0174 6.05677 11.633C7.03336 10.3983 8.22086 9.36935 9.32399 8.26159C9.70433 7.87921 9.93882 7.79893 9.44838 7.36765C8.77778 6.77802 7.12476 6.03424 6.29616 5.64528C5.7328 5.38111 5.63414 5.47598 5.24093 5.91967C4.69044 6.53995 4.07489 7.48425 3.60876 8.18992C3.11832 8.9328 2.04092 10.5966 1.94226 11.4453C1.81572 12.5363 2.73451 14.2441 3.19349 15.2467L3.87696 16.3516ZM19.7219 7.86899C19.6711 7.88213 19.5968 7.95072 19.5524 7.98721C19.022 8.41922 18.3921 9.049 17.8917 9.53574C16.2681 11.1134 14.4536 12.9561 13.7429 15.1782C12.9179 17.7578 13.4384 20.795 15.4001 22.6858C19.2629 22.8427 23.3566 21.0636 25.9453 18.157C25.9961 18.1001 26.2863 17.7739 26.2942 17.7476C26.3478 17.5637 26.2849 16.9624 26.2613 16.7391C25.9046 13.3312 23.6518 11.4068 21.3905 9.20954C21.0381 8.86656 20.6856 8.42798 20.3196 8.11637C20.1408 7.96459 19.9635 7.80477 19.7219 7.86899ZM13.8037 22.5829C11.6904 19.5851 11.9249 15.2883 13.9174 12.2942C14.2534 11.7892 14.8039 11.4718 14.3042 10.8653C13.5428 9.94075 12.4246 9.15116 11.626 8.24116C11.5302 8.15651 11.3801 8.10032 11.2536 8.11565C11.0991 8.13389 10.7288 8.51409 10.5887 8.64252C8.2423 10.8091 5.04158 13.6844 4.84068 17.1353C4.81852 17.5133 4.80208 17.6286 5.03657 17.9191C5.43908 18.419 6.11254 19.0341 6.6087 19.4486C8.62193 21.13 11.2035 22.3049 13.803 22.5836L13.8037 22.5829Z" fill="#4A778C" style="fill:#4A778C;fill:color(display-p3 0.2902 0.4667 0.5490);fill-opacity:1;"/>
</svg>
