<svg width="18" height="19" viewBox="0 0 18 19" fill="none" xmlns="http://www.w3.org/2000/svg">
<path d="M14.9625 15.957C13.4 15.957 11.8562 15.6165 10.3312 14.9355C8.80625 14.2545 7.41875 13.2888 6.16875 12.0383C4.91875 10.7878 3.95325 9.40028 3.27225 7.87578C2.59125 6.35128 2.2505 4.80753 2.25 3.24453C2.25 3.01953 2.325 2.83203 2.475 2.68203C2.625 2.53203 2.8125 2.45703 3.0375 2.45703H6.075C6.25 2.45703 6.40625 2.51653 6.54375 2.63553C6.68125 2.75453 6.7625 2.89503 6.7875 3.05703L7.275 5.68203C7.3 5.88203 7.29375 6.05078 7.25625 6.18828C7.21875 6.32578 7.15 6.44453 7.05 6.54453L5.23125 8.38203C5.48125 8.84453 5.778 9.29128 6.1215 9.72228C6.465 10.1533 6.84325 10.569 7.25625 10.9695C7.64375 11.357 8.05 11.7165 8.475 12.048C8.9 12.3795 9.35 12.6825 9.825 12.957L11.5875 11.1945C11.7 11.082 11.847 10.9978 12.0285 10.9418C12.21 10.8858 12.388 10.87 12.5625 10.8945L15.15 11.4195C15.325 11.4695 15.4688 11.5603 15.5812 11.6918C15.6937 11.8233 15.75 11.97 15.75 12.132V15.1695C15.75 15.3945 15.675 15.582 15.525 15.732C15.375 15.882 15.1875 15.957 14.9625 15.957Z" fill="#F4EFEB" style="fill:#F4EFEB;fill:color(display-p3 0.9569 0.9373 0.9216);fill-opacity:1;"/>
</svg>
