<svg width="28" height="28" viewBox="0 0 28 28" fill="none" xmlns="http://www.w3.org/2000/svg">
<g clip-path="url(#clip0_2098_13072)">
<path fill-rule="evenodd" clip-rule="evenodd" d="M14 28C21.732 28 28 21.732 28 14C28 6.26801 21.732 0 14 0C6.26801 0 0 6.26801 0 14C0 21.732 6.26801 28 14 28Z" fill="#4A778C" style="fill:#4A778C;fill:color(display-p3 0.2902 0.4667 0.5490);fill-opacity:1;"/>
<path fill-rule="evenodd" clip-rule="evenodd" d="M15.2876 18.2394C18.3702 18.2394 20.4614 15.3706 20.4614 11.5306C20.4614 8.62771 18.0521 5.9231 14.3913 5.9231C9.83552 5.9231 7.53833 9.25752 7.53833 12.038C7.53833 13.7217 8.16227 15.2195 9.50197 15.7778C9.72145 15.8693 9.91812 15.7807 9.98202 15.5328C10.0257 15.361 10.1314 14.9274 10.1773 14.7471C10.2416 14.5016 10.2169 14.4156 10.0396 14.2015C9.65369 13.736 9.40742 13.1345 9.40742 12.2816C9.40742 9.80807 11.2195 7.59368 14.1281 7.59368C16.7023 7.59368 18.1178 9.19944 18.1178 11.3449C18.1178 14.1673 16.8943 16.5493 15.0776 16.5493C14.0741 16.5493 13.3238 15.7025 13.5641 14.6639C13.8517 13.4239 14.4108 12.0852 14.4108 11.19C14.4108 10.3892 13.9896 9.72038 13.1174 9.72038C12.0918 9.72038 11.2681 10.8038 11.2681 12.2544C11.2681 13.1783 11.5745 13.8033 11.5745 13.8033C11.5745 13.8033 10.5249 18.3425 10.3406 19.1372C10.1735 19.8609 10.1485 20.6563 10.172 21.3284C10.2422 21.9315 10.8263 22.4225 11.333 21.761C11.6892 21.1797 12.0722 20.4457 12.2704 19.7099C12.3886 19.2746 12.9452 17.0193 12.9452 17.0193C13.2788 17.6681 14.2525 18.2394 15.2876 18.2394Z" fill="white" style="fill:white;fill-opacity:1;"/>
</g>
<defs>
<clipPath id="clip0_2098_13072">
<rect width="28" height="28" fill="white" style="fill:white;fill-opacity:1;"/>
</clipPath>
</defs>
</svg>
