<svg width="58" height="58" viewBox="0 0 58 58" fill="none" xmlns="http://www.w3.org/2000/svg">
<rect width="58" height="58" fill="#25D366" style="fill:#25D366;fill:color(display-p3 0.1451 0.8275 0.4000);fill-opacity:1;"/>
<g clip-path="url(#clip0_376_17821)">
<path fill-rule="evenodd" clip-rule="evenodd" d="M41.046 16.9371C37.8503 13.7549 33.6 12.0016 29.0714 12C19.7398 12 12.1453 19.5518 12.1421 28.8342C12.1404 31.8016 12.9205 34.698 14.4019 37.2505L12 45.9752L20.9745 43.6342C23.4469 44.9759 26.2312 45.6822 29.0641 45.683H29.0714C38.4014 45.683 45.9968 38.1304 46 28.8479C46.0016 24.3492 44.2426 20.1201 41.046 16.9379V16.9371ZM29.0714 42.8399H29.0657C26.5412 42.8391 24.0647 42.1642 21.9039 40.8896L21.3901 40.5861L16.0643 41.9753L17.4857 36.8113L17.1512 36.2818C15.7429 34.0539 14.9985 31.4787 15.0001 28.8351C15.0034 21.1202 21.3154 14.8431 29.0772 14.8431C32.8354 14.8447 36.3681 16.3018 39.0248 18.9471C41.6816 21.5917 43.1435 25.108 43.1419 28.8463C43.1386 36.562 36.8267 42.8391 29.0714 42.8391V42.8399ZM36.7893 32.3603C36.3664 32.1496 34.2868 31.1324 33.8987 30.992C33.5108 30.8515 33.2291 30.7813 32.9474 31.2027C32.6658 31.6241 31.8549 32.5718 31.6081 32.8519C31.3613 33.1328 31.1145 33.1675 30.6916 32.9568C30.2688 32.7461 28.9058 32.3021 27.2897 30.8692C26.0324 29.7536 25.1832 28.3765 24.9365 27.9551C24.6897 27.5338 24.9106 27.3061 25.1215 27.097C25.3115 26.9081 25.5445 26.6054 25.7563 26.36C25.9682 26.1146 26.038 25.9387 26.1792 25.6585C26.3205 25.3776 26.2499 25.1323 26.1444 24.9215C26.0388 24.7108 25.193 22.6402 24.8399 21.7983C24.4965 20.9781 24.1475 21.0895 23.8886 21.0758C23.6418 21.0637 23.3602 21.0613 23.0777 21.0613C22.7952 21.0613 22.3373 21.1662 21.9493 21.5876C21.5614 22.009 20.4687 23.0269 20.4687 25.0967C20.4687 27.1664 21.9843 29.1676 22.1961 29.4486C22.408 29.7295 25.1792 33.978 29.4221 35.8007C30.4311 36.2342 31.2193 36.4933 31.8337 36.6871C32.8468 37.0076 33.7689 36.9624 34.4978 36.8542C35.3104 36.7331 37.0004 35.8362 37.3527 34.8538C37.7049 33.8714 37.7049 33.0286 37.5995 32.8535C37.494 32.6783 37.2115 32.5725 36.7886 32.3619L36.7893 32.3603Z" fill="#F7F2EE" style="fill:#F7F2EE;fill:color(display-p3 0.9686 0.9490 0.9333);fill-opacity:1;"/>
</g>
<defs>
<clipPath id="clip0_376_17821">
<rect width="34" height="34" fill="white" style="fill:white;fill-opacity:1;" transform="translate(12 12)"/>
</clipPath>
</defs>
</svg>
