<svg width="19" height="20" viewBox="0 0 19 20" fill="none" xmlns="http://www.w3.org/2000/svg">
<g clip-path="url(#clip0_376_17691)">
<path d="M16.2306 3.69078C14.4445 1.9113 12.0695 0.930773 9.53913 0.929688C4.32487 0.929688 0.081507 5.15303 0.0794194 10.3441C0.0788119 12.0035 0.514295 13.6232 1.34203 15.051L0 19.9297L5.0147 18.6206C6.39635 19.3707 7.95199 19.766 9.53507 19.7667H9.53909H9.53913C14.7526 19.7667 18.9966 15.5426 18.9988 10.3517C18.9996 7.8359 18.0165 5.47038 16.2306 3.69078ZM9.53913 18.1765H9.53606C8.12499 18.1758 6.74124 17.7986 5.53428 17.0856L5.24704 16.9161L2.27121 17.6929L3.06572 14.8053L2.87857 14.5092C2.09147 13.2632 1.67594 11.8233 1.67653 10.3447C1.67826 6.03006 5.20518 2.51988 9.54211 2.51988C11.6423 2.52075 13.6162 3.33577 15.1008 4.81482C16.5852 6.29385 17.4021 8.26002 17.4015 10.3511C17.3997 14.6659 13.8726 18.1765 9.53913 18.1765Z" fill="#E0E0E0" style="fill:#E0E0E0;fill:color(display-p3 0.8784 0.8784 0.8784);fill-opacity:1;"/>
<path d="M0.4375 19.3895L1.71823 14.7337C0.9281 13.3711 0.512589 11.8252 0.513087 10.242C0.515159 5.28812 4.56472 1.25781 9.54037 1.25781C11.9553 1.2589 14.2218 2.19459 15.926 3.89282C17.6305 5.59104 18.5686 7.84835 18.5676 10.249C18.5656 15.203 14.5158 19.2337 9.54073 19.2337C9.54037 19.2337 9.54098 19.2337 9.54073 19.2337H9.53671C8.02595 19.2332 6.54149 18.8556 5.22304 18.1402L0.4375 19.3895Z" fill="url(#paint0_linear_376_17691)" style=""/>
<path fill-rule="evenodd" clip-rule="evenodd" d="M7.20349 6.34489C7.02848 5.9575 6.84422 5.94974 6.67771 5.94296C6.54152 5.93715 6.38561 5.9375 6.22995 5.9375C6.07417 5.9375 5.82102 5.99579 5.60694 6.22856C5.39273 6.46134 4.78906 7.02406 4.78906 8.16852C4.78906 9.31312 5.62641 10.4191 5.74312 10.5744C5.85996 10.7295 7.35952 13.1532 9.73439 14.0856C11.7081 14.8605 12.1098 14.7063 12.5382 14.6676C12.9666 14.6288 13.9205 14.105 14.1153 13.5618C14.31 13.0187 14.31 12.5531 14.2516 12.4558C14.1931 12.3589 14.0374 12.3007 13.8037 12.1844C13.57 12.0681 12.4213 11.5052 12.2071 11.4277C11.9929 11.3501 11.8371 11.3113 11.6814 11.5442C11.5256 11.7769 11.078 12.3007 10.9417 12.4558C10.8054 12.6113 10.6691 12.6307 10.4354 12.5143C10.2018 12.3977 9.44923 12.1523 8.55652 11.3598C7.86193 10.7433 7.39299 9.98183 7.25667 9.74895C7.12036 9.5163 7.24206 9.39028 7.35927 9.27431C7.46418 9.1701 7.59295 9.00276 7.70979 8.86692C7.82638 8.73109 7.86533 8.63415 7.94322 8.47905C8.02111 8.3237 7.98217 8.18788 7.92375 8.07156C7.86533 7.95523 7.41124 6.80485 7.20349 6.34489Z" fill="#F7F2EE" style="fill:#F7F2EE;fill:color(display-p3 0.9686 0.9490 0.9333);fill-opacity:1;"/>
<path d="M16.1537 3.65909C14.3881 1.90004 12.0403 0.930789 9.53902 0.929688C4.3846 0.929688 0.189947 5.10455 0.187875 10.236C0.187268 11.8764 0.61775 13.4775 1.43598 14.8889L0.109375 19.7116L5.06652 18.4174C6.43232 19.159 7.97009 19.5498 9.535 19.5504H9.53898H9.53902C14.6926 19.5504 18.8878 15.3748 18.89 10.2436C18.8909 7.75663 17.9191 5.41827 16.1537 3.65909ZM9.53902 17.9786H9.53598C8.1411 17.9778 6.77322 17.605 5.58012 16.9002L5.29617 16.7326L2.35451 17.5004L3.13989 14.646L2.95489 14.3534C2.17682 13.1216 1.76606 11.6982 1.76667 10.2367C1.76837 5.97154 5.2548 2.50166 9.54195 2.50166C11.618 2.50251 13.5693 3.30818 15.0368 4.77024C16.5042 6.23231 17.3118 8.1759 17.3111 10.243C17.3093 14.5082 13.8227 17.9786 9.53902 17.9786Z" fill="#F7F2EE" style="fill:#F7F2EE;fill:color(display-p3 0.9686 0.9490 0.9333);fill-opacity:1;"/>
</g>
<defs>
<linearGradient id="paint0_linear_376_17691" x1="9.50258" y1="19.3895" x2="9.50258" y2="1.25784" gradientUnits="userSpaceOnUse">
<stop stop-color="#20B038" style="stop-color:#20B038;stop-color:color(display-p3 0.1255 0.6902 0.2196);stop-opacity:1;"/>
<stop offset="1" stop-color="#60D66A" style="stop-color:#60D66A;stop-color:color(display-p3 0.3765 0.8392 0.4157);stop-opacity:1;"/>
</linearGradient>
<clipPath id="clip0_376_17691">
<rect width="19" height="19" fill="white" style="fill:white;fill-opacity:1;" transform="translate(0 0.929688)"/>
</clipPath>
</defs>
</svg>
