<svg width="77" height="58" viewBox="0 0 77 58" fill="none" xmlns="http://www.w3.org/2000/svg">
<g filter="url(#filter0_i_376_17176)">
<path d="M45.7644 4.83984C51.1057 4.83984 55.4358 9.16776 55.4358 14.5065C55.4358 16.2683 54.9641 17.9201 54.1404 19.3425L65.1073 19.3398V24.1732H60.2716V48.3398C60.2716 49.6745 59.1891 50.7565 57.8537 50.7565H19.1677C17.8323 50.7565 16.7498 49.6745 16.7498 48.3398V24.1732H11.9141V19.3398L22.881 19.3425C22.0571 17.9201 21.5856 16.2683 21.5856 14.5065C21.5856 9.16776 25.9156 4.83984 31.2571 4.83984C34.1469 4.83984 36.7408 6.10668 38.5129 8.11505C40.2806 6.10668 42.8745 4.83984 45.7644 4.83984ZM36.0929 24.1732H21.5856V45.9232H36.0929V24.1732ZM55.4358 24.1732H40.9286V45.9232H55.4358V24.1732ZM31.2571 9.67318C28.5863 9.67318 26.4213 11.8371 26.4213 14.5065C26.4213 17.0545 28.394 19.1421 30.8962 19.3266L31.2571 19.3398H36.0929V14.5065C36.0929 12.0859 34.3126 10.0808 31.9891 9.7282L31.618 9.68642L31.2571 9.67318ZM45.7644 9.67318C43.2149 9.67318 41.1264 11.6449 40.9419 14.1458L40.9286 14.5065V19.3398H45.7644C48.3135 19.3398 50.4021 17.3681 50.5868 14.8672L50.6001 14.5065C50.6001 11.8371 48.4351 9.67318 45.7644 9.67318Z" fill="#CEA17A" style="fill:#CEA17A;fill:color(display-p3 0.8078 0.6314 0.4784);fill-opacity:1;"/>
</g>
<defs>
<filter id="filter0_i_376_17176" x="11.9141" y="4.83984" width="53.1934" height="45.916" filterUnits="userSpaceOnUse" color-interpolation-filters="sRGB">
<feFlood flood-opacity="0" result="BackgroundImageFix"/>
<feBlend mode="normal" in="SourceGraphic" in2="BackgroundImageFix" result="shape"/>
<feColorMatrix in="SourceAlpha" type="matrix" values="0 0 0 0 0 0 0 0 0 0 0 0 0 0 0 0 0 0 127 0" result="hardAlpha"/>
<feOffset/>
<feGaussianBlur stdDeviation="2"/>
<feComposite in2="hardAlpha" operator="arithmetic" k2="-1" k3="1"/>
<feColorMatrix type="matrix" values="0 0 0 0 0.807843 0 0 0 0 0.631373 0 0 0 0 0.478431 0 0 0 1 0"/>
<feBlend mode="normal" in2="shape" result="effect1_innerShadow_376_17176"/>
</filter>
</defs>
</svg>
