<svg width="493" height="351" viewBox="0 0 493 351" fill="none" xmlns="http://www.w3.org/2000/svg">
<path fill-rule="evenodd" clip-rule="evenodd" d="M450.92 138.898C450.92 141.443 450.767 143.975 450.628 146.673C440.914 131.247 431.949 115.53 421.042 100.869C412.368 89.3385 404.153 77.3486 395.479 65.8178C390.414 59.0995 388.915 58.7796 381.311 62.9803C369.82 69.1282 358.149 75.1092 346.936 81.9944C340.372 85.889 336.195 84.9849 331.268 79.296C307.524 52.2005 277.785 31.6981 251.501 7.28711C245.659 1.89027 242.828 2.18238 236.999 7.71831C216.405 27.3444 193.23 43.7992 172.927 63.7175C167.862 68.6692 162.921 73.607 158.425 79.0039C153.79 84.6928 149.183 85.7221 142.577 81.9805C132.571 75.8464 121.983 70.6026 111.644 64.9137C100.292 58.7657 98.6687 59.3777 91.3414 69.5455C78.5048 87.8224 64.1417 105.028 52.8038 124.195C48.7793 130.928 44.8937 137.688 40.8692 144.406C39.9672 143.961 39.0651 143.516 38.1631 143.057C38.1631 129.884 39.0651 117.31 41.0219 105.195C41.0219 105.195 24.924 115.905 21.9126 141.415C20.7469 151.402 21.2049 161.417 21.2049 172.294C21.2049 194.007 37.5386 213.229 37.5386 213.229C38.3019 213.09 41.1606 221.325 41.7435 221.186C45.7957 228.363 48.1271 239.115 52.0128 246.459C56.065 253.775 61.2968 260.229 66.5147 266.655C95.6573 301.401 128.103 324.532 165.447 338.149C200.723 351.183 237.832 353.046 279.825 347.51C296.103 345.424 311.826 342.072 326.62 336.814C362.326 324.101 393.87 302.249 419.862 271.704C454.667 230.533 455.055 197.734 455.347 148.189L450.92 138.87V138.898ZM169.624 89.7836C181.267 78.5449 192.786 67.1809 204.734 56.3872C215.503 46.8037 226.993 38.1242 237.901 28.7076C242.828 24.5069 246.422 24.2148 251.501 28.5546C272.567 46.9706 294.507 64.0374 314.074 84.2477C315.282 85.4439 316.614 86.6401 317.516 87.9893C319.445 90.8407 323.178 93.2192 320.958 97.1278C318.557 101.468 314.976 99.3672 311.826 97.559C307.038 94.7215 303.625 97.4199 300.336 100.549C285.834 114.32 271.373 128.257 256.719 142.027C255.234 143.669 253.735 145.324 252.07 146.659C244.743 153.391 244.312 153.544 237.277 146.659C222.955 132.736 208.592 118.66 194.27 104.597C191.731 102.052 189.483 99.4924 185.319 99.6593C180.671 101.746 176.341 104.444 170.97 100.257C166.654 96.8079 165.28 93.9704 169.624 89.7697M77.3114 243.538C74.9106 244.734 72.9677 243.107 71.7743 241.298C59.2291 224.218 50.2781 205.51 46.5451 185.146C48.5018 170.458 51.0414 156.841 58.3548 144.406C69.9979 124.501 83.4452 105.626 97.7806 87.5164C101.514 82.7316 105.094 80.3392 110.936 83.6218C126.923 92.4542 143.507 100.536 158.439 111.315C165.294 116.267 165.294 117.171 159.022 122.999C146.477 134.53 133.931 146.061 122.135 158.329C100.167 180.793 84.6525 206.4 79.7122 237.835C79.2403 239.935 79.7122 242.481 77.3252 243.524M104.039 279.48C96.712 272.887 93.1594 265.849 93.2982 255.681C93.5896 229.615 102.402 206.873 118.25 186.649C136.304 163.448 159.341 145.185 180.393 124.821C184.265 120.927 188.15 121.372 191.883 124.821C204.137 136.644 216.211 148.62 228.756 160.151C234.446 165.381 231.323 169.276 227.882 173.615C213.671 191.433 205.331 211.644 202.028 234.246C196.81 268.088 204.137 298.48 225.023 325.589C226.216 326.939 227.132 328.427 228.034 329.79C228.173 330.082 227.882 330.68 227.882 331.876C218.75 332.933 209.785 330.527 201.126 328.733C164.822 320.498 132.127 304.614 104.025 279.466M388.013 277.824C367.447 296.282 349.392 309.148 320.444 320.387C304.194 326.702 286.597 329.762 268.515 332.029C259.12 333.226 251.792 330.235 244.909 323.795C209.952 290.858 206.691 238.447 229.533 198.471C238.484 182.601 251.362 170.013 263.755 157.147C275.828 144.573 289.137 133.348 301.682 121.205C305.706 117.31 308.565 117.31 312.742 121.052C334.238 140.97 356.067 160.429 374.885 182.893C391.164 202.519 398.935 225.122 400.128 253.873C401.752 262.107 396.395 270.341 388.013 277.824ZM443.01 189.194C438.222 208.361 429.854 225.873 416.865 243.705C414.908 239.81 414.006 238.767 414.006 237.571C409.843 203.882 392.801 177.232 369.667 153.419C358.316 141.888 346.797 130.649 334.71 120.023C327.674 113.875 327.674 113.443 335.917 107.755C349.948 98.1571 365.476 91.1328 380.117 82.4534C384.28 79.7689 387.153 81.1042 389.97 84.8458C405.055 104.625 419.848 124.682 431.949 146.534C438.513 158.065 441.344 170.945 443.01 183.964C443.148 185.758 443.44 187.553 443.01 189.194Z" fill="#6A704C" fill-opacity="0.05" style="fill:#6A704C;fill:color(display-p3 0.4157 0.4392 0.2980);fill-opacity:0.05;"/>
<path d="M421.441 227.664L423.662 227.304C425.029 227.626 426.801 235.231 426.852 236.714C426.931 238.962 425.531 246.964 424.679 249.078C423.629 251.681 415.251 255.025 412.637 256.278C410.857 257.131 408.379 259.341 406.548 259.4C404.218 259.473 403.949 258.392 401.545 260.673C398.895 260.194 395.465 260.172 392.952 259.66C391.496 259.364 383.351 255.334 382.93 255.67C384.328 257.812 385.524 260.098 386.285 262.556C389.982 274.49 382.649 284.72 378.419 295.252C377.917 296.505 378.034 298.09 377.276 299.125C376.964 299.553 373.736 302.753 373.274 303.072C371.301 304.439 368.221 304.783 366.222 306.062C364.868 306.927 363.195 308.95 361.78 309.986C352.943 316.441 343.178 320.755 332.287 322.54L336.77 324.95C342.559 325.474 352.907 328.907 354.454 335.329C354.733 336.489 354.213 341.894 353.861 343.035C353.468 344.309 352.37 344.395 351.771 345.129C350.747 346.387 350.81 347.861 348.627 348.263C348.028 348.374 347.41 348.055 346.847 348.157C338.859 349.582 337.226 349.41 329.19 348.397C320.556 347.309 314.782 347.506 306.191 348.481C291.986 350.088 277.405 350.952 262.992 350.136C257.551 349.828 252.106 348.379 246.667 348.015C234.975 347.228 222.928 346.888 211.114 345.936C203.689 345.339 193.224 342.764 186.18 344.453C173.823 347.415 169.789 353.643 155.043 348.43C153.025 347.716 152.812 346.39 152.239 346.023C152.069 345.914 149.896 346.245 148.519 344.916C146.987 343.435 147.667 341.463 147.066 340.099C146.797 339.486 145.385 338.608 144.839 337.727C144.294 336.846 143.883 334.762 143.675 334.615C142.674 333.909 138.145 332.537 136.532 331.808C126.8 327.415 121.366 323.648 112.691 318.003C111.971 317.535 110.825 317.499 110.313 317.137C109.8 316.775 109.735 315.811 109.207 315.213C104.115 309.451 99.0692 298.976 97.6618 291.216C96.8504 286.746 97.2663 282.244 99.5662 278.245C98.0599 278.022 96.896 279.105 95.4938 279.396C94.553 279.591 93.5641 279.361 92.6943 279.526C90.4958 279.943 87.9854 281.485 85.8757 279.784C85.366 279.374 84.6661 277.521 84.2021 277.397C83.0585 277.09 81.3595 277.672 79.8736 277.217C78.6209 276.832 76.889 274.392 75.6744 273.467C73.2376 271.612 67.9379 268.536 66.2693 266.141C64.8011 264.037 65.0294 255.774 65.2525 252.962C65.3844 251.296 66.6142 243.564 68.4374 243.21L71.5209 243.972C71.1709 237.382 76.3388 238.663 80.7231 240.425C82.5006 241.139 83.9688 242.499 85.7413 243.354C91.1475 245.962 94.5758 245.352 100.068 246.6C103.215 247.314 108.538 250.023 111.378 249.721C114.844 249.354 117.661 246.678 120.631 245.152C125.05 242.881 129.965 240.965 134.022 238.046C138.776 234.625 142.463 229.489 146.855 225.785C152.391 221.114 155.431 221.608 158.175 213.684C161.063 205.343 163.797 189.163 164.806 180.186C166.297 166.916 162.803 153.825 164.027 140.542C165.488 124.684 167.694 117.026 182.054 109.226C187.706 106.158 193.399 107.077 199.32 103.482C200.78 102.596 202.966 100.188 204.65 99.5708C205.593 99.2265 206.268 99.872 207.239 99.7252C211.58 99.0594 219.996 91.29 220.529 86.6268C221.335 79.5662 218.99 75.4094 217.06 69.1943C216.72 68.0982 216.193 64.4476 215.729 63.8375C215.221 63.1717 213.373 63.6654 212.166 62.7971C211.316 62.1869 209.983 59.7364 209.567 58.706C207.581 53.7922 207.003 46.3165 207.576 41.0964C207.888 38.2534 207.939 37.7876 207.934 34.8054C207.911 20.5855 213.774 1.98598 230.37 0.332857C243.743 -1.00129 254.127 1.40625 262.559 12.4844C269.801 22.0006 272.461 44.0254 269.058 55.2605C267.699 59.749 263.578 60.2098 263.01 61.3414C262.163 63.0249 261.818 68.7564 260.72 71.5918C258.895 76.3081 257.049 75.5106 257.368 81.6092C257.604 86.0901 258.106 88.0065 262.1 90.2571C263.535 91.0672 269.91 94.2595 271.162 94.581C273.386 95.1532 275.623 94.4519 278.06 95.2165C279.845 95.7759 281.539 97.4949 283.075 98.148C287.259 99.9227 292.569 99.8746 296.989 101.809C311.105 107.988 314.967 114.492 317.858 129.448C320.422 142.711 318.396 156.276 320.696 169.242C322.412 178.923 327.012 203.882 333.131 210.737C340.916 215.603 348.008 222.737 356.452 226.317C362.317 228.805 371.831 232.355 378.064 231.795C382.005 231.441 385.469 229.78 389.115 229.038C392.363 228.378 395.726 228.866 398.774 228.236C404.614 227.026 409.959 222.628 415.292 220.907C422.168 218.687 421.623 221.846 421.438 227.669L421.441 227.664ZM311.088 234.625C302.859 226.752 299.963 213.601 297.161 202.771C294.988 194.366 293.989 186.655 292.42 178.25C292.349 177.865 292.247 176.997 291.694 177.105C290.977 178.508 291.106 180.407 290.662 181.718C290.305 182.771 289.055 183.336 288.842 184.08C288.586 184.981 288.961 186.044 288.695 186.872C288.517 187.422 287.716 187.462 287.48 187.837C286.577 189.267 286.144 201.259 285.827 204.054C284.939 211.877 282.315 219.175 285.337 226.702C288.664 234.985 293.809 242.251 296.099 251.06C296.677 253.283 296.063 256.015 296.342 258.339C296.418 258.969 297.983 264.194 298.171 264.45C298.673 265.136 299.4 264.865 300.075 264.673C304.741 263.344 313.279 259.529 317.924 257.412C325.202 254.096 331.881 249.39 339.823 247.521C337.523 246.526 334.944 246.375 332.494 245.645C326.482 243.856 315.581 238.922 311.093 234.628L311.088 234.625ZM184.498 269.832C185.396 265.096 187.879 260.27 188.936 255.668C190.047 250.84 189.585 250.61 191.735 245.926C193.886 241.243 196.913 235.547 198.554 231.003C202.266 220.717 195.919 206.581 195.285 195.829L193.115 188.384C192.192 198.604 190.749 208.755 188.358 218.735C185.069 232.466 182.85 239.263 171.566 248.357C160.282 257.45 149.117 260.382 135.569 262.774L184.498 269.832ZM415.578 230.177C410.646 231.38 411.795 232.838 411.389 236.648C411.176 238.661 410.692 240.689 410.56 242.711C411.209 242.608 411.346 241.932 411.594 241.451C412.162 240.342 416.022 230.58 415.578 230.177ZM79.0571 256.501C80.7712 252.822 81.8743 250.509 77.3911 248.564C77.3226 251.243 77.135 254.41 79.0571 256.501Z" fill="#4A778C" style="fill:#4A778C;fill:color(display-p3 0.2902 0.4667 0.5490);fill-opacity:1;"/>
<path d="M387.397 251.462L389.188 251.173C390.289 251.432 391.718 257.562 391.759 258.758C391.822 260.57 390.694 267.021 390.007 268.725C389.161 270.823 382.409 273.519 380.302 274.529C378.867 275.217 376.87 276.999 375.395 277.046C373.517 277.105 373.3 276.233 371.363 278.072C369.227 277.686 366.462 277.668 364.437 277.256C363.264 277.017 356.699 273.768 356.36 274.039C357.486 275.766 358.451 277.609 359.064 279.59C362.044 289.211 356.133 297.457 352.725 305.947C352.32 306.957 352.414 308.235 351.803 309.069C351.551 309.414 348.95 311.994 348.578 312.251C346.988 313.353 344.505 313.63 342.895 314.661C341.803 315.359 340.454 316.989 339.314 317.824C332.192 323.028 324.322 326.505 315.544 327.944L319.157 329.887C323.823 330.31 332.163 333.077 333.41 338.254C333.635 339.189 333.216 343.546 332.932 344.466C332.615 345.493 331.73 345.562 331.248 346.154C330.422 347.168 330.473 348.356 328.714 348.68C328.231 348.77 327.733 348.513 327.279 348.595C320.841 349.744 319.525 349.605 313.049 348.789C306.09 347.911 301.437 348.07 294.513 348.856C283.064 350.152 271.313 350.848 259.697 350.191C255.311 349.942 250.924 348.774 246.54 348.48C237.117 347.846 227.407 347.572 217.886 346.805C211.902 346.323 203.468 344.248 197.79 345.609C187.832 347.997 184.58 353.017 172.696 348.815C171.069 348.24 170.898 347.17 170.436 346.874C170.299 346.787 168.548 347.054 167.438 345.983C166.204 344.789 166.751 343.199 166.267 342.099C166.05 341.605 164.912 340.897 164.473 340.187C164.033 339.477 163.702 337.797 163.534 337.679C162.727 337.109 159.077 336.003 157.777 335.415C149.934 331.875 145.554 328.838 138.563 324.287C137.983 323.91 137.059 323.881 136.646 323.589C136.233 323.297 136.18 322.52 135.755 322.038C131.651 317.393 127.584 308.949 126.45 302.694C125.796 299.09 126.131 295.461 127.985 292.237C126.771 292.057 125.833 292.931 124.703 293.166C123.945 293.323 123.148 293.137 122.447 293.27C120.675 293.606 118.652 294.849 116.951 293.478C116.54 293.147 115.976 291.653 115.602 291.553C114.681 291.306 113.311 291.776 112.114 291.408C111.104 291.098 109.708 289.131 108.73 288.386C106.766 286.89 102.494 284.411 101.15 282.48C99.9663 280.784 100.15 274.123 100.33 271.856C100.436 270.513 101.428 264.281 102.897 263.995L105.382 264.609C105.1 259.297 109.265 260.33 112.799 261.75C114.231 262.325 115.414 263.421 116.843 264.111C121.2 266.213 123.963 265.721 128.39 266.727C130.926 267.303 135.215 269.487 137.504 269.244C140.298 268.948 142.569 266.791 144.962 265.56C148.524 263.73 152.484 262.185 155.754 259.832C159.586 257.075 162.558 252.934 166.097 249.948C170.559 246.183 173.009 246.581 175.22 240.193C177.548 233.469 179.751 220.427 180.564 213.19C181.766 202.492 178.95 191.939 179.937 181.232C181.114 168.448 182.892 162.275 194.465 155.987C199.021 153.514 203.609 154.255 208.381 151.357C209.558 150.643 211.319 148.702 212.676 148.204C213.437 147.926 213.98 148.447 214.763 148.328C218.262 147.792 225.045 141.528 225.474 137.769C226.124 132.078 224.233 128.727 222.678 123.717C222.404 122.833 221.979 119.89 221.605 119.398C221.196 118.862 219.707 119.26 218.734 118.56C218.049 118.068 216.974 116.092 216.639 115.262C215.039 111.301 214.573 105.274 215.035 101.066C215.286 98.7745 215.327 98.399 215.323 95.9949C215.305 84.5319 220.03 69.5384 233.405 68.2058C244.184 67.1303 252.552 69.0711 259.348 78.0015C265.184 85.6727 267.328 103.427 264.585 112.484C263.49 116.103 260.169 116.474 259.711 117.386C259.029 118.743 258.751 123.364 257.866 125.649C256.394 129.451 254.907 128.808 255.164 133.725C255.354 137.337 255.759 138.882 258.978 140.696C260.134 141.349 265.272 143.922 266.282 144.181C268.074 144.643 269.876 144.077 271.84 144.694C273.279 145.145 274.644 146.53 275.883 147.057C279.255 148.487 283.534 148.449 287.096 150.008C298.473 154.989 301.586 160.232 303.916 172.289C305.982 182.981 304.349 193.915 306.203 204.368C307.586 212.172 311.293 232.292 316.225 237.818C322.499 241.74 328.215 247.491 335.02 250.377C339.747 252.383 347.415 255.244 352.438 254.793C355.614 254.507 358.406 253.169 361.345 252.571C363.963 252.038 366.673 252.432 369.129 251.924C373.836 250.948 378.144 247.403 382.441 246.016C387.984 244.226 387.544 246.773 387.395 251.467L387.397 251.462ZM298.459 257.075C291.827 250.728 289.494 240.126 287.235 231.396C285.484 224.62 284.679 218.404 283.414 211.629C283.357 211.319 283.275 210.619 282.829 210.706C282.251 211.837 282.355 213.368 281.997 214.425C281.709 215.274 280.702 215.729 280.53 216.329C280.324 217.055 280.626 217.912 280.412 218.58C280.269 219.022 279.623 219.055 279.433 219.357C278.705 220.51 278.356 230.177 278.1 232.43C277.385 238.736 275.27 244.62 277.706 250.687C280.387 257.364 284.534 263.221 286.379 270.323C286.845 272.115 286.35 274.317 286.575 276.19C286.637 276.699 287.898 280.911 288.049 281.117C288.453 281.67 289.04 281.452 289.584 281.296C293.344 280.225 300.225 277.15 303.969 275.444C309.834 272.77 315.217 268.976 321.618 267.47C319.764 266.668 317.686 266.546 315.712 265.958C310.866 264.515 302.081 260.538 298.463 257.077L298.459 257.075ZM196.435 285.456C197.159 281.637 199.16 277.748 200.012 274.037C200.907 270.146 200.535 269.96 202.268 266.185C204.001 262.409 206.441 257.817 207.763 254.154C210.755 245.863 205.64 234.467 205.129 225.8L203.38 219.798C202.636 228.037 201.473 236.22 199.546 244.265C196.895 255.334 195.107 260.813 186.013 268.144C176.918 275.474 167.92 277.837 157.001 279.766L196.435 285.456ZM382.672 253.489C378.697 254.458 379.623 255.634 379.296 258.705C379.125 260.328 378.734 261.962 378.628 263.593C379.151 263.509 379.262 262.964 379.462 262.576C379.92 261.683 383.03 253.813 382.672 253.489ZM111.456 274.709C112.837 271.744 113.726 269.878 110.113 268.311C110.058 270.47 109.907 273.023 111.456 274.709Z" fill="#2E6273" style="fill:#2E6273;fill:color(display-p3 0.1812 0.3831 0.4524);fill-opacity:1;"/>
<path d="M358.284 271.694L359.706 271.464C360.581 271.67 361.716 276.547 361.748 277.499C361.798 278.941 360.902 284.073 360.357 285.429C359.685 287.098 354.323 289.242 352.649 290.046C351.51 290.593 349.924 292.011 348.752 292.048C347.261 292.095 347.089 291.402 345.55 292.865C343.854 292.558 341.658 292.543 340.05 292.215C339.118 292.025 333.905 289.441 333.636 289.657C334.53 291.03 335.296 292.496 335.783 294.073C338.149 301.726 333.455 308.288 330.748 315.042C330.427 315.845 330.502 316.862 330.016 317.526C329.817 317.8 327.75 319.853 327.455 320.057C326.192 320.934 324.22 321.155 322.941 321.975C322.075 322.53 321.004 323.827 320.098 324.491C314.442 328.631 308.191 331.398 301.221 332.543L304.09 334.088C307.795 334.424 314.419 336.626 315.409 340.745C315.588 341.489 315.255 344.955 315.029 345.687C314.778 346.504 314.075 346.559 313.692 347.03C313.036 347.837 313.077 348.782 311.679 349.04C311.296 349.112 310.9 348.907 310.54 348.972C305.427 349.886 304.382 349.776 299.239 349.126C293.712 348.428 290.017 348.555 284.518 349.18C275.426 350.211 266.093 350.765 256.868 350.242C253.385 350.044 249.9 349.115 246.419 348.881C238.935 348.376 231.224 348.159 223.663 347.548C218.91 347.165 212.212 345.514 207.703 346.597C199.794 348.496 197.212 352.49 187.774 349.147C186.482 348.69 186.346 347.839 185.979 347.603C185.871 347.534 184.48 347.746 183.598 346.894C182.618 345.944 183.053 344.679 182.668 343.804C182.496 343.411 181.592 342.848 181.243 342.283C180.894 341.718 180.631 340.382 180.498 340.287C179.857 339.834 176.958 338.954 175.926 338.487C169.697 335.67 166.219 333.254 160.667 329.633C160.206 329.333 159.472 329.31 159.144 329.078C158.816 328.846 158.774 328.227 158.436 327.844C155.177 324.149 151.948 317.43 151.047 312.454C150.527 309.586 150.794 306.7 152.266 304.134C151.302 303.991 150.557 304.686 149.659 304.873C149.057 304.998 148.424 304.85 147.867 304.956C146.46 305.224 144.853 306.213 143.503 305.121C143.177 304.858 142.729 303.67 142.432 303.59C141.7 303.394 140.612 303.767 139.661 303.475C138.86 303.228 137.751 301.663 136.974 301.071C135.414 299.88 132.022 297.908 130.954 296.372C130.014 295.023 130.16 289.723 130.303 287.919C130.387 286.851 131.175 281.892 132.341 281.665L134.315 282.154C134.091 277.928 137.399 278.749 140.205 279.879C141.343 280.337 142.283 281.209 143.417 281.758C146.877 283.43 149.072 283.039 152.587 283.839C154.601 284.297 158.008 286.034 159.826 285.841C162.044 285.606 163.848 283.889 165.748 282.91C168.577 281.454 171.723 280.225 174.319 278.353C177.363 276.159 179.722 272.865 182.534 270.49C186.077 267.494 188.023 267.811 189.779 262.729C191.627 257.379 193.377 247.003 194.023 241.245C194.977 232.734 192.741 224.338 193.525 215.819C194.46 205.649 195.872 200.738 205.063 195.735C208.68 193.767 212.324 194.357 216.114 192.051C217.049 191.483 218.448 189.939 219.526 189.543C220.129 189.322 220.561 189.736 221.183 189.642C223.961 189.215 229.348 184.232 229.689 181.241C230.205 176.713 228.704 174.047 227.469 170.061C227.251 169.358 226.914 167.017 226.617 166.625C226.292 166.198 225.109 166.515 224.336 165.958C223.792 165.567 222.939 163.995 222.673 163.334C221.402 160.183 221.032 155.388 221.399 152.041C221.598 150.217 221.631 149.918 221.627 148.006C221.613 138.886 225.365 126.957 235.988 125.897C244.548 125.041 251.194 126.585 256.591 133.69C261.226 139.794 262.928 153.919 260.75 161.125C259.88 164.003 257.243 164.299 256.879 165.025C256.337 166.104 256.117 169.78 255.414 171.599C254.245 174.623 253.064 174.112 253.268 178.023C253.419 180.897 253.741 182.126 256.297 183.569C257.215 184.089 261.296 186.136 262.098 186.343C263.521 186.71 264.952 186.26 266.512 186.75C267.655 187.109 268.739 188.211 269.722 188.63C272.4 189.768 275.799 189.738 278.628 190.978C287.663 194.941 290.135 199.112 291.986 208.705C293.626 217.211 292.33 225.91 293.802 234.226C294.9 240.435 297.845 256.442 301.761 260.839C306.744 263.96 311.283 268.535 316.688 270.831C320.442 272.427 326.532 274.703 330.521 274.344C333.043 274.117 335.26 273.052 337.594 272.576C339.673 272.152 341.825 272.466 343.776 272.061C347.514 271.285 350.935 268.465 354.349 267.361C358.75 265.937 358.401 267.963 358.283 271.698L358.284 271.694ZM287.652 276.159C282.385 271.11 280.532 262.675 278.738 255.729C277.347 250.339 276.708 245.394 275.703 240.003C275.658 239.756 275.593 239.199 275.239 239.269C274.78 240.169 274.863 241.386 274.579 242.227C274.35 242.903 273.55 243.265 273.413 243.742C273.249 244.32 273.49 245.002 273.319 245.533C273.205 245.885 272.693 245.911 272.542 246.152C271.964 247.069 271.686 254.76 271.483 256.553C270.915 261.57 269.236 266.25 271.17 271.077C273.3 276.39 276.593 281.05 278.058 286.7C278.428 288.125 278.036 289.877 278.214 291.368C278.263 291.772 279.264 295.123 279.384 295.287C279.706 295.727 280.172 295.553 280.603 295.43C283.59 294.578 289.054 292.131 292.028 290.774C296.686 288.647 300.961 285.628 306.044 284.43C304.572 283.792 302.921 283.695 301.354 283.227C297.505 282.079 290.528 278.915 287.655 276.161L287.652 276.159ZM206.627 298.739C207.202 295.701 208.791 292.607 209.468 289.655C210.179 286.559 209.883 286.411 211.259 283.407C212.636 280.404 214.574 276.75 215.624 273.836C218 267.239 213.937 258.173 213.532 251.277L212.142 246.502C211.552 253.057 210.628 259.568 209.098 265.968C206.993 274.774 205.572 279.134 198.35 284.966C191.127 290.798 183.981 292.678 175.309 294.212L206.627 298.739ZM354.532 273.307C351.375 274.078 352.11 275.013 351.851 277.457C351.714 278.747 351.404 280.048 351.32 281.345C351.736 281.279 351.823 280.845 351.982 280.537C352.346 279.826 354.816 273.565 354.532 273.307ZM139.139 290.189C140.236 287.83 140.942 286.346 138.072 285.099C138.029 286.817 137.908 288.848 139.139 290.189Z" fill="#224855" style="fill:#224855;fill:color(display-p3 0.1349 0.2820 0.3326);fill-opacity:1;"/>
<path d="M335.222 287.958L336.351 287.775C337.047 287.939 337.948 291.809 337.974 292.563C338.014 293.707 337.302 297.78 336.869 298.855C336.335 300.18 332.073 301.881 330.744 302.519C329.838 302.953 328.578 304.078 327.647 304.108C326.462 304.145 326.325 303.595 325.103 304.756C323.755 304.512 322.01 304.5 320.732 304.24C319.992 304.089 315.849 302.039 315.635 302.21C316.346 303.3 316.954 304.463 317.341 305.714C319.222 311.787 315.492 316.993 313.341 322.352C313.085 322.99 313.145 323.796 312.759 324.323C312.6 324.541 310.959 326.169 310.724 326.331C309.721 327.027 308.154 327.202 307.137 327.853C306.449 328.293 305.597 329.323 304.878 329.85C300.383 333.135 295.417 335.33 289.877 336.238L292.158 337.464C295.102 337.731 300.365 339.478 301.152 342.746C301.294 343.336 301.029 346.087 300.85 346.668C300.65 347.316 300.092 347.36 299.787 347.733C299.266 348.373 299.299 349.123 298.188 349.328C297.884 349.385 297.569 349.222 297.283 349.274C293.22 349.999 292.39 349.912 288.303 349.396C283.911 348.842 280.975 348.943 276.605 349.439C269.38 350.257 261.965 350.696 254.634 350.281C251.866 350.124 249.097 349.387 246.331 349.202C240.384 348.801 234.257 348.628 228.248 348.144C224.472 347.84 219.15 346.53 215.567 347.389C209.282 348.896 207.23 352.066 199.731 349.413C198.704 349.05 198.596 348.375 198.304 348.188C198.218 348.132 197.113 348.301 196.412 347.625C195.633 346.871 195.979 345.868 195.673 345.173C195.537 344.862 194.818 344.415 194.541 343.966C194.264 343.518 194.055 342.458 193.949 342.383C193.44 342.024 191.136 341.325 190.316 340.954C185.366 338.719 182.602 336.802 178.19 333.929C177.824 333.691 177.241 333.673 176.981 333.489C176.72 333.305 176.686 332.814 176.418 332.51C173.829 329.578 171.262 324.247 170.546 320.298C170.134 318.023 170.345 315.733 171.515 313.697C170.749 313.584 170.157 314.135 169.444 314.283C168.965 314.383 168.462 314.265 168.02 314.349C166.902 314.562 165.625 315.346 164.552 314.481C164.293 314.272 163.937 313.329 163.701 313.266C163.119 313.11 162.255 313.406 161.499 313.174C160.862 312.978 159.981 311.737 159.363 311.266C158.124 310.322 155.428 308.757 154.58 307.538C153.833 306.468 153.949 302.263 154.063 300.831C154.13 299.984 154.755 296.049 155.683 295.869L157.251 296.257C157.073 292.904 159.701 293.555 161.931 294.452C162.835 294.815 163.582 295.507 164.483 295.943C167.233 297.269 168.977 296.959 171.77 297.594C173.371 297.957 176.078 299.336 177.522 299.183C179.285 298.996 180.718 297.634 182.228 296.857C184.476 295.702 186.976 294.726 189.039 293.241C191.457 291.501 193.332 288.887 195.566 287.002C198.382 284.625 199.928 284.876 201.323 280.844C202.792 276.599 204.183 268.366 204.696 263.798C205.454 257.045 203.677 250.383 204.3 243.624C205.043 235.554 206.165 231.657 213.468 227.688C216.343 226.127 219.239 226.594 222.25 224.765C222.993 224.314 224.104 223.089 224.961 222.775C225.441 222.599 225.784 222.928 226.278 222.853C228.486 222.514 232.766 218.561 233.037 216.188C233.447 212.595 232.254 210.479 231.273 207.317C231.1 206.759 230.832 204.901 230.596 204.591C230.338 204.252 229.397 204.503 228.783 204.061C228.351 203.751 227.673 202.504 227.462 201.98C226.452 199.479 226.158 195.675 226.449 193.018C226.608 191.572 226.634 191.335 226.631 189.817C226.619 182.581 229.601 173.116 238.042 172.275C244.844 171.596 250.125 172.821 254.414 178.458C258.097 183.301 259.45 194.509 257.719 200.226C257.028 202.51 254.932 202.745 254.643 203.321C254.212 204.177 254.037 207.094 253.478 208.537C252.55 210.937 251.611 210.531 251.774 213.634C251.893 215.915 252.149 216.89 254.18 218.035C254.91 218.447 258.152 220.072 258.789 220.235C259.92 220.527 261.058 220.17 262.297 220.559C263.205 220.843 264.067 221.718 264.848 222.051C266.976 222.954 269.677 222.929 271.925 223.913C279.105 227.058 281.069 230.368 282.539 237.979C283.843 244.728 282.812 251.63 283.982 258.229C284.855 263.155 287.195 275.856 290.307 279.345C294.266 281.821 297.873 285.451 302.168 287.273C305.151 288.539 309.99 290.345 313.16 290.06C315.164 289.88 316.926 289.035 318.781 288.657C320.433 288.321 322.143 288.57 323.693 288.249C326.663 287.633 329.382 285.396 332.094 284.52C335.592 283.39 335.314 284.997 335.22 287.96L335.222 287.958ZM279.096 291.501C274.911 287.494 273.438 280.802 272.013 275.29C270.907 271.013 270.399 267.089 269.601 262.812C269.565 262.617 269.513 262.175 269.232 262.23C268.867 262.944 268.933 263.91 268.707 264.577C268.525 265.113 267.889 265.4 267.781 265.779C267.651 266.238 267.842 266.779 267.706 267.2C267.616 267.48 267.209 267.5 267.089 267.691C266.629 268.419 266.409 274.521 266.248 275.944C265.796 279.924 264.461 283.638 265.999 287.468C267.691 291.684 270.308 295.381 271.472 299.864C271.766 300.995 271.454 302.385 271.596 303.568C271.635 303.889 272.43 306.547 272.526 306.678C272.781 307.027 273.151 306.889 273.494 306.791C275.868 306.115 280.21 304.173 282.573 303.096C286.274 301.409 289.671 299.014 293.71 298.063C292.541 297.557 291.229 297.479 289.983 297.108C286.925 296.198 281.381 293.687 279.098 291.502L279.096 291.501ZM214.712 309.416C215.168 307.006 216.431 304.551 216.969 302.209C217.534 299.752 217.299 299.635 218.392 297.251C219.486 294.868 221.026 291.97 221.86 289.657C223.749 284.423 220.52 277.229 220.198 271.758L219.094 267.969C218.625 273.17 217.891 278.336 216.675 283.414C215.002 290.402 213.873 293.861 208.134 298.488C202.395 303.116 196.717 304.607 189.826 305.825L214.712 309.416ZM332.24 289.237C329.731 289.849 330.316 290.591 330.109 292.53C330.001 293.554 329.755 294.586 329.688 295.615C330.018 295.562 330.087 295.219 330.214 294.974C330.503 294.41 332.466 289.442 332.24 289.237ZM161.084 302.632C161.956 300.761 162.517 299.583 160.236 298.594C160.202 299.957 160.106 301.568 161.084 302.632Z" fill="#1A3C47" style="fill:#1A3C47;fill:color(display-p3 0.1027 0.2345 0.2796);fill-opacity:1;"/>
<path d="M312.704 303.822L313.548 303.686C314.068 303.808 314.742 306.695 314.762 307.258C314.791 308.111 314.259 311.149 313.935 311.952C313.536 312.94 310.35 314.21 309.356 314.685C308.679 315.009 307.737 315.848 307.04 315.87C306.154 315.898 306.052 315.488 305.138 316.354C304.13 316.172 302.826 316.163 301.87 315.969C301.316 315.857 298.219 314.327 298.059 314.455C298.59 315.268 299.046 316.136 299.335 317.069C300.741 321.599 297.952 325.483 296.344 329.481C296.153 329.957 296.197 330.559 295.909 330.952C295.79 331.114 294.563 332.329 294.387 332.45C293.637 332.969 292.465 333.1 291.705 333.585C291.19 333.914 290.554 334.682 290.016 335.075C286.655 337.525 282.942 339.163 278.8 339.841L280.505 340.756C282.707 340.955 286.642 342.258 287.23 344.696C287.336 345.136 287.138 347.188 287.004 347.622C286.855 348.105 286.437 348.138 286.21 348.416C285.82 348.894 285.844 349.453 285.014 349.606C284.787 349.648 284.551 349.527 284.337 349.566C281.3 350.107 280.679 350.042 277.623 349.657C274.339 349.244 272.144 349.319 268.877 349.689C263.475 350.299 257.93 350.627 252.449 350.317C250.38 350.2 248.309 349.65 246.241 349.512C241.795 349.213 237.213 349.084 232.721 348.723C229.897 348.496 225.918 347.519 223.239 348.16C218.54 349.284 217.006 351.649 211.398 349.67C210.631 349.399 210.55 348.895 210.332 348.756C210.267 348.714 209.441 348.84 208.917 348.336C208.335 347.773 208.593 347.025 208.365 346.507C208.262 346.274 207.725 345.941 207.518 345.606C207.311 345.272 207.154 344.481 207.075 344.425C206.694 344.157 204.972 343.636 204.359 343.359C200.658 341.692 198.591 340.262 195.293 338.118C195.019 337.941 194.583 337.927 194.388 337.79C194.193 337.652 194.168 337.286 193.968 337.059C192.031 334.872 190.112 330.895 189.577 327.949C189.269 326.252 189.427 324.543 190.301 323.025C189.729 322.94 189.286 323.351 188.753 323.462C188.395 323.536 188.019 323.448 187.688 323.511C186.852 323.669 185.898 324.255 185.095 323.609C184.901 323.453 184.635 322.75 184.459 322.703C184.024 322.586 183.378 322.807 182.813 322.634C182.336 322.488 181.678 321.562 181.216 321.211C180.289 320.507 178.274 319.339 177.639 318.43C177.081 317.631 177.168 314.494 177.253 313.426C177.303 312.794 177.77 309.859 178.464 309.724L179.636 310.013C179.503 307.512 181.469 307.998 183.136 308.667C183.812 308.938 184.37 309.454 185.044 309.779C187.1 310.769 188.404 310.537 190.492 311.011C191.689 311.282 193.713 312.31 194.793 312.196C196.111 312.057 197.183 311.041 198.312 310.461C199.993 309.599 201.861 308.872 203.404 307.764C205.212 306.465 206.614 304.515 208.285 303.109C210.39 301.336 211.546 301.523 212.589 298.515C213.687 295.348 214.727 289.206 215.111 285.798C215.678 280.76 214.349 275.79 214.815 270.748C215.37 264.727 216.209 261.82 221.67 258.859C223.819 257.694 225.984 258.043 228.236 256.678C228.791 256.342 229.622 255.428 230.263 255.193C230.621 255.063 230.878 255.308 231.247 255.252C232.898 254.999 236.099 252.05 236.301 250.279C236.608 247.599 235.716 246.021 234.982 243.661C234.853 243.245 234.652 241.859 234.476 241.628C234.283 241.375 233.58 241.562 233.121 241.233C232.798 241.001 232.291 240.071 232.132 239.68C231.377 237.814 231.158 234.976 231.375 232.994C231.494 231.915 231.513 231.738 231.511 230.606C231.503 225.208 233.732 218.147 240.043 217.519C245.129 217.012 249.078 217.926 252.284 222.132C255.038 225.745 256.05 234.106 254.756 238.372C254.239 240.076 252.672 240.25 252.456 240.68C252.134 241.319 252.003 243.495 251.585 244.571C250.891 246.362 250.189 246.059 250.31 248.374C250.4 250.076 250.591 250.803 252.11 251.658C252.655 251.965 255.08 253.177 255.556 253.299C256.402 253.516 257.252 253.25 258.179 253.54C258.858 253.753 259.502 254.405 260.086 254.653C261.677 255.327 263.697 255.309 265.377 256.043C270.746 258.389 272.214 260.858 273.313 266.536C274.288 271.571 273.518 276.721 274.392 281.643C275.045 285.318 276.795 294.794 279.121 297.396C282.082 299.244 284.779 301.952 287.99 303.311C290.22 304.256 293.838 305.603 296.209 305.391C297.707 305.256 299.024 304.626 300.411 304.344C301.646 304.093 302.925 304.279 304.084 304.039C306.305 303.58 308.337 301.911 310.365 301.257C312.981 300.414 312.773 301.614 312.703 303.824L312.704 303.822ZM270.739 306.465C267.61 303.476 266.508 298.483 265.443 294.372C264.616 291.181 264.237 288.254 263.64 285.063C263.613 284.917 263.574 284.587 263.364 284.628C263.091 285.161 263.14 285.882 262.971 286.38C262.835 286.779 262.36 286.994 262.279 287.276C262.182 287.618 262.324 288.022 262.223 288.336C262.156 288.545 261.851 288.56 261.761 288.702C261.418 289.245 261.253 293.798 261.133 294.859C260.795 297.829 259.797 300.6 260.946 303.457C262.212 306.602 264.168 309.36 265.039 312.704C265.259 313.548 265.025 314.585 265.131 315.468C265.16 315.707 265.755 317.691 265.827 317.788C266.018 318.048 266.294 317.945 266.551 317.872C268.325 317.368 271.572 315.919 273.339 315.116C276.106 313.857 278.646 312.07 281.666 311.361C280.792 310.983 279.811 310.926 278.879 310.649C276.593 309.969 272.448 308.096 270.741 306.466L270.739 306.465ZM222.599 319.831C222.941 318.033 223.885 316.201 224.287 314.454C224.709 312.621 224.534 312.533 225.352 310.755C226.169 308.977 227.321 306.815 227.944 305.09C229.356 301.185 226.943 295.818 226.702 291.737L225.876 288.91C225.525 292.79 224.976 296.644 224.067 300.432C222.816 305.645 221.973 308.226 217.682 311.678C213.39 315.13 209.145 316.243 203.992 317.151L222.599 319.831ZM310.474 304.777C308.599 305.233 309.036 305.787 308.881 307.233C308.8 307.997 308.616 308.767 308.566 309.535C308.813 309.495 308.865 309.239 308.959 309.056C309.175 308.635 310.643 304.929 310.474 304.777ZM182.502 314.77C183.154 313.373 183.574 312.495 181.869 311.757C181.843 312.774 181.771 313.976 182.502 314.77Z" fill="#122A33" style="fill:#122A33;fill:color(display-p3 0.0705 0.1662 0.1990);fill-opacity:1;"/>
</svg>
