<svg width="28" height="23" viewBox="0 0 28 23" fill="none" xmlns="http://www.w3.org/2000/svg">
<path d="M14.0077 3.1047C14.1578 3.09079 14.2985 3.20205 14.4073 3.29167C14.6081 3.45751 14.8068 3.68414 15.0071 3.85822C16.1043 4.8121 17.2558 5.69748 18.273 6.73788C18.5276 6.9985 18.696 7.38582 19.1437 7.2107C19.8031 6.95266 20.45 6.40104 21.1204 6.12188C21.2836 6.05389 21.4536 5.96943 21.6146 6.09613C21.7663 6.21562 22.0429 6.60809 22.1742 6.7796C22.6914 7.45278 23.2008 8.20218 23.6636 8.91398C24.1248 9.62269 24.5908 10.2547 24.8883 11.2827C24.9385 11.4558 24.7879 11.8776 24.7304 12.0692C23.4894 16.1917 19.7142 19.2933 15.3821 19.8141C9.72788 20.4944 4.45859 16.8947 3.12872 11.4954C3.08793 11.3291 3.10101 11.1539 3.16637 10.9958C3.921 9.17718 5.24721 7.67785 6.46831 6.14969C6.72299 5.93801 7.14344 6.20841 7.3976 6.33614C7.7485 6.51229 8.78133 7.19937 9.06687 7.23852C9.51138 7.29929 9.73311 6.82853 9.99145 6.55865C10.996 5.50743 12.1926 4.6375 13.2834 3.67899C13.4628 3.52138 13.7677 3.12736 14.0072 3.10573L14.0077 3.1047ZM13.968 3.94992C13.8399 3.97567 13.4121 4.33157 13.2834 4.43355C12.716 4.88268 12.1324 5.39722 11.598 5.886C11.1869 6.26147 10.5343 6.81928 10.2006 7.23647C10.0139 7.46927 9.88215 7.46668 10.1253 7.63717C10.5547 7.93847 10.7429 7.40848 11.1393 7.69279C11.9164 8.25008 12.6674 9.2668 13.3875 9.92864C13.6045 10.1285 13.8069 10.3639 14.0909 10.1573C14.5647 9.81327 15.0536 9.2328 15.4767 8.82127C15.8491 8.45919 16.4541 7.77417 16.8636 7.51201C17.2731 7.24985 17.3599 7.62738 17.6574 7.57433C17.7322 7.56094 17.8243 7.42548 17.8253 7.35646C17.8284 7.20658 17.4718 6.83059 17.3588 6.71213C16.6032 5.92204 15.551 5.01194 14.6944 4.32023C14.4936 4.15798 14.2242 3.89738 13.9685 3.9494L13.968 3.94992ZM22.6077 14.5971C22.7442 14.3174 22.9325 14.064 23.0826 13.7915C23.3357 13.3326 24.0302 11.9214 23.9852 11.4537C23.8665 10.2222 22.4289 8.20733 21.6408 7.22925C21.5189 7.07782 21.2266 6.71007 21.0252 6.73788C20.3046 7.14478 19.4742 7.59293 18.7781 8.04102C18.6526 8.12188 18.4737 8.4518 18.4973 8.59602C18.5093 8.67018 18.9314 9.06386 19.0422 9.171C20.2424 10.3288 21.4232 11.326 22.0978 12.901C22.3248 13.43 22.4158 13.8879 22.5476 14.439C22.5575 14.4802 22.5664 14.5837 22.6077 14.5971ZM5.42135 14.5713C5.6274 13.3177 6.21468 12.218 7.01584 11.241C7.7302 10.3695 8.59882 9.6433 9.40574 8.86145C9.68395 8.59156 9.85548 8.5349 9.49674 8.23051C9.00621 7.81435 7.79705 7.28939 7.19095 7.01487C6.77886 6.82842 6.70669 6.89538 6.41907 7.20853C6.01639 7.64632 5.56613 8.3128 5.22516 8.81086C4.86642 9.33518 4.07833 10.5095 4.00616 11.1085C3.9136 11.8785 4.58567 13.0839 4.92141 13.7915L5.42135 14.5713ZM17.0116 8.58435C16.9745 8.59362 16.9201 8.64204 16.8876 8.66779C16.4996 8.9727 16.0389 9.41719 15.6728 9.76073C14.4852 10.8743 13.1579 12.1748 12.6381 13.7431C12.0346 15.5638 12.4153 17.7075 13.8503 19.042C16.6759 19.1527 19.6703 17.897 21.5639 15.8456C21.601 15.8054 21.8134 15.5752 21.8191 15.5566C21.8583 15.4268 21.8123 15.0024 21.7951 14.8448C21.5341 12.4395 19.8863 11.0813 18.2322 9.5305C17.9743 9.28843 17.7165 8.97888 17.4488 8.75895C17.318 8.65182 17.1883 8.53902 17.0116 8.58435ZM12.6826 18.9694C11.1367 16.8535 11.3083 13.8209 12.7657 11.7076C13.0115 11.3512 13.4142 11.1272 13.0486 10.6992C12.4917 10.0466 11.6738 9.4893 11.0897 8.84703C11.0196 8.78728 10.9098 8.74762 10.8172 8.75844C10.7042 8.77131 10.4333 9.03966 10.3308 9.13031C8.61451 10.6595 6.27325 12.6888 6.1263 15.1245C6.11008 15.3913 6.09806 15.4727 6.26959 15.6777C6.56401 16.0305 7.05663 16.4647 7.41956 16.7572C8.8922 17.9439 10.7806 18.7731 12.6821 18.9699L12.6826 18.9694Z" fill="#4A778C" style="fill:#4A778C;fill:color(display-p3 0.2902 0.4667 0.5490);fill-opacity:1;"/>
</svg>
